<?xml version="1.0" encoding="utf-8" standalone="no"?>
<!DOCTYPE svg PUBLIC "-//W3C//DTD SVG 1.1//EN"
  "http://www.w3.org/Graphics/SVG/1.1/DTD/svg11.dtd">
<!-- Created with matplotlib (http://matplotlib.org/) -->
<svg height="720pt" version="1.1" viewBox="0 0 1440 720" width="1440pt" xmlns="http://www.w3.org/2000/svg" xmlns:xlink="http://www.w3.org/1999/xlink">
 <defs>
  <style type="text/css">
*{stroke-linecap:butt;stroke-linejoin:round;}
  </style>
 </defs>
 <g id="figure_1">
  <g id="patch_1">
   <path d="M 0 720 
L 1440 720 
L 1440 0 
L 0 0 
z
" style="fill:#ffffff;"/>
  </g>
  <g id="axes_1">
   <g id="patch_2">
    <path d="M 79.94 667.96 
L 1426.68 667.96 
L 1426.68 13.32 
L 79.94 13.32 
z
" style="fill:#ffffff;"/>
   </g>
   <g id="PathCollection_1">
    <path clip-path="url(#p7dc35ed9e0)" d="M 686.909013 360.803245 
C 689.868425 360.803245 692.707025 359.627458 694.799645 357.534838 
C 696.892265 355.442218 698.068052 352.603618 698.068052 349.644206 
C 698.068052 346.684794 696.892265 343.846194 694.799645 341.753574 
C 692.707025 339.660954 689.868425 338.485167 686.909013 338.485167 
C 683.949601 338.485167 681.111001 339.660954 679.018381 341.753574 
C 676.925761 343.846194 675.749974 346.684794 675.749974 349.644206 
C 675.749974 352.603618 676.925761 355.442218 679.018381 357.534838 
C 681.111001 359.627458 683.949601 360.803245 686.909013 360.803245 
z
" style="fill:#7fc97f;stroke:#7fc97f;"/>
    <path clip-path="url(#p7dc35ed9e0)" d="M 606.095185 388.090066 
C 609.008349 388.090066 611.802589 386.932654 613.862506 384.872736 
C 615.922424 382.812818 617.079836 380.018578 617.079836 377.105415 
C 617.079836 374.192252 615.922424 371.398012 613.862506 369.338094 
C 611.802589 367.278176 609.008349 366.120764 606.095185 366.120764 
C 603.182022 366.120764 600.387782 367.278176 598.327864 369.338094 
C 596.267947 371.398012 595.110535 374.192252 595.110535 377.105415 
C 595.110535 380.018578 596.267947 382.812818 598.327864 384.872736 
C 600.387782 386.932654 603.182022 388.090066 606.095185 388.090066 
z
" style="fill:#7fc97f;stroke:#7fc97f;"/>
    <path clip-path="url(#p7dc35ed9e0)" d="M 133.108556 616.520457 
C 133.579245 616.520457 134.030719 616.333451 134.363546 616.000624 
C 134.696374 615.667796 134.88338 615.216322 134.88338 614.745634 
C 134.88338 614.274945 134.696374 613.823471 134.363546 613.490643 
C 134.030719 613.157816 133.579245 612.97081 133.108556 612.97081 
C 132.637868 612.97081 132.186394 613.157816 131.853566 613.490643 
C 131.520739 613.823471 131.333733 614.274945 131.333733 614.745634 
C 131.333733 615.216322 131.520739 615.667796 131.853566 616.000624 
C 132.186394 616.333451 132.637868 616.520457 133.108556 616.520457 
z
" style="fill:#7fc97f;stroke:#7fc97f;"/>
    <path clip-path="url(#p7dc35ed9e0)" d="M 608.879485 425.07626 
C 614.182999 425.07626 619.270009 422.969152 623.02016 419.219001 
C 626.770311 415.46885 628.87742 410.38184 628.87742 405.078326 
C 628.87742 399.774811 626.770311 394.687801 623.02016 390.93765 
C 619.270009 387.187499 614.182999 385.080391 608.879485 385.080391 
C 603.575971 385.080391 598.488961 387.187499 594.73881 390.93765 
C 590.988659 394.687801 588.88155 399.774811 588.88155 405.078326 
C 588.88155 410.38184 590.988659 415.46885 594.73881 419.219001 
C 598.488961 422.969152 603.575971 425.07626 608.879485 425.07626 
z
" style="fill:#beaed4;stroke:#beaed4;"/>
    <path clip-path="url(#p7dc35ed9e0)" d="M 269.817146 571.13827 
C 271.752775 571.13827 273.609386 570.369236 274.978083 569.00054 
C 276.34678 567.631843 277.115813 565.775232 277.115813 563.839602 
C 277.115813 561.903973 276.34678 560.047362 274.978083 558.678665 
C 273.609386 557.309968 271.752775 556.540935 269.817146 556.540935 
C 267.881516 556.540935 266.024905 557.309968 264.656208 558.678665 
C 263.287512 560.047362 262.518478 561.903973 262.518478 563.839602 
C 262.518478 565.775232 263.287512 567.631843 264.656208 569.00054 
C 266.024905 570.369236 267.881516 571.13827 269.817146 571.13827 
z
" style="fill:#beaed4;stroke:#beaed4;"/>
    <path clip-path="url(#p7dc35ed9e0)" d="M 331.578964 520.481731 
C 333.235488 520.481731 334.824388 519.823587 335.995727 518.652248 
C 337.167067 517.480909 337.825211 515.892009 337.825211 514.235485 
C 337.825211 512.578961 337.167067 510.99006 335.995727 509.818721 
C 334.824388 508.647382 333.235488 507.989238 331.578964 507.989238 
C 329.92244 507.989238 328.33354 508.647382 327.1622 509.818721 
C 325.990861 510.99006 325.332717 512.578961 325.332717 514.235485 
C 325.332717 515.892009 325.990861 517.480909 327.1622 518.652248 
C 328.33354 519.823587 329.92244 520.481731 331.578964 520.481731 
z
" style="fill:#beaed4;stroke:#beaed4;"/>
    <path clip-path="url(#p7dc35ed9e0)" d="M 297.580305 532.250708 
C 298.953186 532.250708 300.270023 531.705257 301.240797 530.734483 
C 302.21157 529.763709 302.757022 528.446873 302.757022 527.073991 
C 302.757022 525.70111 302.21157 524.384273 301.240797 523.4135 
C 300.270023 522.442726 298.953186 521.897274 297.580305 521.897274 
C 296.207423 521.897274 294.890587 522.442726 293.919813 523.4135 
C 292.949039 524.384273 292.403588 525.70111 292.403588 527.073991 
C 292.403588 528.446873 292.949039 529.763709 293.919813 530.734483 
C 294.890587 531.705257 296.207423 532.250708 297.580305 532.250708 
z
" style="fill:#fdc086;stroke:#fdc086;"/>
    <path clip-path="url(#p7dc35ed9e0)" d="M 1096.806648 400.758398 
C 1103.22036 400.758398 1109.372247 398.210203 1113.907426 393.675023 
C 1118.442606 389.139844 1120.990801 382.987957 1120.990801 376.574245 
C 1120.990801 370.160532 1118.442606 364.008646 1113.907426 359.473466 
C 1109.372247 354.938287 1103.22036 352.390092 1096.806648 352.390092 
C 1090.392936 352.390092 1084.241049 354.938287 1079.70587 359.473466 
C 1075.17069 364.008646 1072.622495 370.160532 1072.622495 376.574245 
C 1072.622495 382.987957 1075.17069 389.139844 1079.70587 393.675023 
C 1084.241049 398.210203 1090.392936 400.758398 1096.806648 400.758398 
z
" style="fill:#fdc086;stroke:#fdc086;"/>
    <path clip-path="url(#p7dc35ed9e0)" d="M 699.657236 293.879066 
C 701.509101 293.879066 703.285368 293.143312 704.594834 291.833846 
C 705.9043 290.52438 706.640054 288.748113 706.640054 286.896248 
C 706.640054 285.044383 705.9043 283.268116 704.594834 281.95865 
C 703.285368 280.649183 701.509101 279.91343 699.657236 279.91343 
C 697.805371 279.91343 696.029104 280.649183 694.719638 281.95865 
C 693.410172 283.268116 692.674418 285.044383 692.674418 286.896248 
C 692.674418 288.748113 693.410172 290.52438 694.719638 291.833846 
C 696.029104 293.143312 697.805371 293.879066 699.657236 293.879066 
z
" style="fill:#fdc086;stroke:#fdc086;"/>
    <path clip-path="url(#p7dc35ed9e0)" d="M 1027.14174 174.449954 
C 1030.555011 174.449954 1033.828942 173.093847 1036.242489 170.6803 
C 1038.656035 168.266753 1040.012142 164.992822 1040.012142 161.579551 
C 1040.012142 158.166281 1038.656035 154.89235 1036.242489 152.478803 
C 1033.828942 150.065256 1030.555011 148.709149 1027.14174 148.709149 
C 1023.72847 148.709149 1020.454538 150.065256 1018.040991 152.478803 
C 1015.627445 154.89235 1014.271338 158.166281 1014.271338 161.579551 
C 1014.271338 164.992822 1015.627445 168.266753 1018.040991 170.6803 
C 1020.454538 173.093847 1023.72847 174.449954 1027.14174 174.449954 
z
" style="fill:#ffff99;stroke:#ffff99;"/>
    <path clip-path="url(#p7dc35ed9e0)" d="M 852.491016 374.802446 
C 856.947121 374.802446 861.221315 373.032017 864.372256 369.881076 
C 867.523198 366.730134 869.293627 362.45594 869.293627 357.999835 
C 869.293627 353.54373 867.523198 349.269536 864.372256 346.118595 
C 861.221315 342.967653 856.947121 341.197224 852.491016 341.197224 
C 848.034911 341.197224 843.760717 342.967653 840.609775 346.118595 
C 837.458834 349.269536 835.688404 353.54373 835.688404 357.999835 
C 835.688404 362.45594 837.458834 366.730134 840.609775 369.881076 
C 843.760717 373.032017 848.034911 374.802446 852.491016 374.802446 
z
" style="fill:#ffff99;stroke:#ffff99;"/>
    <path clip-path="url(#p7dc35ed9e0)" d="M 318.983961 569.127629 
C 321.511126 569.127629 323.935125 568.123576 325.722101 566.3366 
C 327.509076 564.549625 328.51313 562.125626 328.51313 559.598461 
C 328.51313 557.071296 327.509076 554.647297 325.722101 552.860321 
C 323.935125 551.073346 321.511126 550.069292 318.983961 550.069292 
C 316.456796 550.069292 314.032797 551.073346 312.245822 552.860321 
C 310.458846 554.647297 309.454793 557.071296 309.454793 559.598461 
C 309.454793 562.125626 310.458846 564.549625 312.245822 566.3366 
C 314.032797 568.123576 316.456796 569.127629 318.983961 569.127629 
z
" style="fill:#ffff99;stroke:#ffff99;"/>
    <path clip-path="url(#p7dc35ed9e0)" d="M 506.77904 377.639404 
C 507.174223 377.639404 507.553275 377.482396 507.832712 377.202959 
C 508.112149 376.923522 508.269157 376.544471 508.269157 376.149287 
C 508.269157 375.754103 508.112149 375.375052 507.832712 375.095615 
C 507.553275 374.816178 507.174223 374.65917 506.77904 374.65917 
C 506.383856 374.65917 506.004805 374.816178 505.725368 375.095615 
C 505.44593 375.375052 505.288922 375.754103 505.288922 376.149287 
C 505.288922 376.544471 505.44593 376.923522 505.725368 377.202959 
C 506.004805 377.482396 506.383856 377.639404 506.77904 377.639404 
z
" style="fill:#386cb0;stroke:#386cb0;"/>
    <path clip-path="url(#p7dc35ed9e0)" d="M 1193.495112 46.58696 
C 1198.457439 46.58696 1203.217191 44.615406 1206.726087 41.10651 
C 1210.234982 37.597615 1212.206536 32.837863 1212.206536 27.875535 
C 1212.206536 22.913208 1210.234982 18.153456 1206.726087 14.64456 
C 1203.217191 11.135665 1198.457439 9.164111 1193.495112 9.164111 
C 1188.532784 9.164111 1183.773032 11.135665 1180.264137 14.64456 
C 1176.755241 18.153456 1174.783687 22.913208 1174.783687 27.875535 
C 1174.783687 32.837863 1176.755241 37.597615 1180.264137 41.10651 
C 1183.773032 44.615406 1188.532784 46.58696 1193.495112 46.58696 
z
" style="fill:#386cb0;stroke:#386cb0;"/>
    <path clip-path="url(#p7dc35ed9e0)" d="M 237.497458 574.757881 
C 239.036258 574.757881 240.512239 574.146509 241.600335 573.058413 
C 242.688431 571.970318 243.299802 570.494336 243.299802 568.955536 
C 243.299802 567.416737 242.688431 565.940755 241.600335 564.852659 
C 240.512239 563.764564 239.036258 563.153192 237.497458 563.153192 
C 235.958658 563.153192 234.482677 563.764564 233.394581 564.852659 
C 232.306485 565.940755 231.695114 567.416737 231.695114 568.955536 
C 231.695114 570.494336 232.306485 571.970318 233.394581 573.058413 
C 234.482677 574.146509 235.958658 574.757881 237.497458 574.757881 
z
" style="fill:#386cb0;stroke:#386cb0;"/>
    <path clip-path="url(#p7dc35ed9e0)" d="M 627.258309 430.387487 
C 630.674824 430.387487 633.951866 429.030092 636.367707 426.614251 
C 638.783547 424.198411 640.140943 420.921368 640.140943 417.504854 
C 640.140943 414.088339 638.783547 410.811296 636.367707 408.395456 
C 633.951866 405.979615 630.674824 404.62222 627.258309 404.62222 
C 623.841795 404.62222 620.564752 405.979615 618.148912 408.395456 
C 615.733071 410.811296 614.375675 414.088339 614.375675 417.504854 
C 614.375675 420.921368 615.733071 424.198411 618.148912 426.614251 
C 620.564752 429.030092 623.841795 430.387487 627.258309 430.387487 
z
" style="fill:#f0027f;stroke:#f0027f;"/>
    <path clip-path="url(#p7dc35ed9e0)" d="M 1409.693241 205.72297 
C 1415.80565 205.72297 1421.668534 203.294484 1425.990661 198.972358 
C 1430.312787 194.650231 1432.741273 188.787347 1432.741273 182.674938 
C 1432.741273 176.562528 1430.312787 170.699644 1425.990661 166.377518 
C 1421.668534 162.055391 1415.80565 159.626905 1409.693241 159.626905 
C 1403.580831 159.626905 1397.717947 162.055391 1393.395821 166.377518 
C 1389.073694 170.699644 1386.645208 176.562528 1386.645208 182.674938 
C 1386.645208 188.787347 1389.073694 194.650231 1393.395821 198.972358 
C 1397.717947 203.294484 1403.580831 205.72297 1409.693241 205.72297 
z
" style="fill:#f0027f;stroke:#f0027f;"/>
    <path clip-path="url(#p7dc35ed9e0)" d="M 1125.364618 22.430793 
C 1127.207145 22.430793 1128.974455 21.698749 1130.277318 20.395886 
C 1131.580182 19.093023 1132.312225 17.325713 1132.312225 15.483186 
C 1132.312225 13.640659 1131.580182 11.873349 1130.277318 10.570485 
C 1128.974455 9.267622 1127.207145 8.535578 1125.364618 8.535578 
C 1123.522091 8.535578 1121.754781 9.267622 1120.451917 10.570485 
C 1119.149054 11.873349 1118.41701 13.640659 1118.41701 15.483186 
C 1118.41701 17.325713 1119.149054 19.093023 1120.451917 20.395886 
C 1121.754781 21.698749 1123.522091 22.430793 1125.364618 22.430793 
z
" style="fill:#f0027f;stroke:#f0027f;"/>
    <path clip-path="url(#p7dc35ed9e0)" d="M 135.003599 612.30964 
C 135.200422 612.30964 135.38921 612.231442 135.528385 612.092267 
C 135.66756 611.953092 135.745758 611.764304 135.745758 611.567481 
C 135.745758 611.370658 135.66756 611.18187 135.528385 611.042696 
C 135.38921 610.903521 135.200422 610.825322 135.003599 610.825322 
C 134.806776 610.825322 134.617988 610.903521 134.478814 611.042696 
C 134.339639 611.18187 134.26144 611.370658 134.26144 611.567481 
C 134.26144 611.764304 134.339639 611.953092 134.478814 612.092267 
C 134.617988 612.231442 134.806776 612.30964 135.003599 612.30964 
z
" style="fill:#bf5b17;stroke:#bf5b17;"/>
    <path clip-path="url(#p7dc35ed9e0)" d="M 1039.545132 251.156728 
C 1044.864034 251.156728 1049.965805 249.043505 1053.726837 245.282473 
C 1057.487869 241.521441 1059.601091 236.419671 1059.601091 231.100768 
C 1059.601091 225.781866 1057.487869 220.680096 1053.726837 216.919064 
C 1049.965805 213.158031 1044.864034 211.044809 1039.545132 211.044809 
C 1034.226229 211.044809 1029.124459 213.158031 1025.363427 216.919064 
C 1021.602395 220.680096 1019.489173 225.781866 1019.489173 231.100768 
C 1019.489173 236.419671 1021.602395 241.521441 1025.363427 245.282473 
C 1029.124459 249.043505 1034.226229 251.156728 1039.545132 251.156728 
z
" style="fill:#bf5b17;stroke:#bf5b17;"/>
    <path clip-path="url(#p7dc35ed9e0)" d="M 855.212295 134.731852 
C 856.437318 134.731852 857.612332 134.245145 858.478554 133.378923 
C 859.344776 132.512701 859.831483 131.337687 859.831483 130.112664 
C 859.831483 128.88764 859.344776 127.712626 858.478554 126.846404 
C 857.612332 125.980182 856.437318 125.493475 855.212295 125.493475 
C 853.987272 125.493475 852.812257 125.980182 851.946035 126.846404 
C 851.079813 127.712626 850.593106 128.88764 850.593106 130.112664 
C 850.593106 131.337687 851.079813 132.512701 851.946035 133.378923 
C 852.812257 134.245145 853.987272 134.731852 855.212295 134.731852 
z
" style="fill:#bf5b17;stroke:#bf5b17;"/>
    <path clip-path="url(#p7dc35ed9e0)" d="M 444.059338 513.675952 
C 447.348718 513.675952 450.503817 512.369068 452.82976 510.043125 
C 455.155703 507.717182 456.462588 504.562083 456.462588 501.272703 
C 456.462588 497.983323 455.155703 494.828224 452.82976 492.502281 
C 450.503817 490.176338 447.348718 488.869453 444.059338 488.869453 
C 440.769958 488.869453 437.614859 490.176338 435.288916 492.502281 
C 432.962973 494.828224 431.656089 497.983323 431.656089 501.272703 
C 431.656089 504.562083 432.962973 507.717182 435.288916 510.043125 
C 437.614859 512.369068 440.769958 513.675952 444.059338 513.675952 
z
" style="fill:#666666;stroke:#666666;"/>
    <path clip-path="url(#p7dc35ed9e0)" d="M 134.472253 611.808823 
C 134.519879 611.808823 134.565561 611.789901 134.599238 611.756224 
C 134.632914 611.722548 134.651836 611.676866 134.651836 611.62924 
C 134.651836 611.581614 134.632914 611.535932 134.599238 611.502256 
C 134.565561 611.468579 134.519879 611.449657 134.472253 611.449657 
C 134.424628 611.449657 134.378946 611.468579 134.345269 611.502256 
C 134.311593 611.535932 134.292671 611.581614 134.292671 611.62924 
C 134.292671 611.676866 134.311593 611.722548 134.345269 611.756224 
C 134.378946 611.789901 134.424628 611.808823 134.472253 611.808823 
z
" style="fill:#666666;stroke:#666666;"/>
    <path clip-path="url(#p7dc35ed9e0)" d="M 1052.378119 121.930817 
C 1056.668403 121.930817 1060.783547 120.226269 1063.817236 117.19258 
C 1066.850925 114.158891 1068.555473 110.043747 1068.555473 105.753463 
C 1068.555473 101.463178 1066.850925 97.348035 1063.817236 94.314346 
C 1060.783547 91.280656 1056.668403 89.576108 1052.378119 89.576108 
C 1048.087834 89.576108 1043.972691 91.280656 1040.939002 94.314346 
C 1037.905312 97.348035 1036.200764 101.463178 1036.200764 105.753463 
C 1036.200764 110.043747 1037.905312 114.158891 1040.939002 117.19258 
C 1043.972691 120.226269 1048.087834 121.930817 1052.378119 121.930817 
z
" style="fill:#666666;stroke:#666666;"/>
   </g>
   <g id="matplotlib.axis_1">
    <g id="xtick_1">
     <g id="line2d_1">
      <path clip-path="url(#p7dc35ed9e0)" d="M 113.913518 667.96 
L 113.913518 13.32 
" style="fill:none;stroke:#b0b0b0;stroke-linecap:square;stroke-width:0.8;"/>
     </g>
     <g id="line2d_2">
      <defs>
       <path d="M 0 0 
L 0 3.5 
" id="m25b09bdf2c" style="stroke:#000000;stroke-width:0.8;"/>
      </defs>
      <g>
       <use style="stroke:#000000;stroke-width:0.8;" x="113.913518" xlink:href="#m25b09bdf2c" y="667.96"/>
      </g>
     </g>
     <g id="text_1">
      <!-- $0 -->
      <defs>
       <path d="M 33.796875 -14.703125 
L 28.90625 -14.703125 
L 28.859375 0 
Q 23.734375 0.09375 18.609375 1.1875 
Q 13.484375 2.296875 8.296875 4.5 
L 8.296875 13.28125 
Q 13.28125 10.15625 18.375 8.5625 
Q 23.484375 6.984375 28.90625 6.9375 
L 28.90625 29.203125 
Q 18.109375 30.953125 13.203125 35.15625 
Q 8.296875 39.359375 8.296875 46.6875 
Q 8.296875 54.640625 13.625 59.21875 
Q 18.953125 63.8125 28.90625 64.5 
L 28.90625 75.984375 
L 33.796875 75.984375 
L 33.796875 64.65625 
Q 38.328125 64.453125 42.578125 63.6875 
Q 46.828125 62.9375 50.875 61.625 
L 50.875 53.078125 
Q 46.828125 55.125 42.546875 56.25 
Q 38.28125 57.375 33.796875 57.5625 
L 33.796875 36.71875 
Q 44.875 35.015625 50.09375 30.609375 
Q 55.328125 26.21875 55.328125 18.609375 
Q 55.328125 10.359375 49.78125 5.59375 
Q 44.234375 0.828125 33.796875 0.09375 
z
M 28.90625 37.59375 
L 28.90625 57.625 
Q 23.25 56.984375 20.265625 54.390625 
Q 17.28125 51.8125 17.28125 47.515625 
Q 17.28125 43.3125 20.03125 40.96875 
Q 22.796875 38.625 28.90625 37.59375 
z
M 33.796875 28.21875 
L 33.796875 7.078125 
Q 39.984375 7.90625 43.140625 10.59375 
Q 46.296875 13.28125 46.296875 17.671875 
Q 46.296875 21.96875 43.28125 24.5 
Q 40.28125 27.046875 33.796875 28.21875 
z
" id="DejaVuSans-24"/>
       <path d="M 31.78125 66.40625 
Q 24.171875 66.40625 20.328125 58.90625 
Q 16.5 51.421875 16.5 36.375 
Q 16.5 21.390625 20.328125 13.890625 
Q 24.171875 6.390625 31.78125 6.390625 
Q 39.453125 6.390625 43.28125 13.890625 
Q 47.125 21.390625 47.125 36.375 
Q 47.125 51.421875 43.28125 58.90625 
Q 39.453125 66.40625 31.78125 66.40625 
z
M 31.78125 74.21875 
Q 44.046875 74.21875 50.515625 64.515625 
Q 56.984375 54.828125 56.984375 36.375 
Q 56.984375 17.96875 50.515625 8.265625 
Q 44.046875 -1.421875 31.78125 -1.421875 
Q 19.53125 -1.421875 13.0625 8.265625 
Q 6.59375 17.96875 6.59375 36.375 
Q 6.59375 54.828125 13.0625 64.515625 
Q 19.53125 74.21875 31.78125 74.21875 
z
" id="DejaVuSans-30"/>
      </defs>
      <g transform="translate(107.551018 682.558437)scale(0.1 -0.1)">
       <use xlink:href="#DejaVuSans-24"/>
       <use x="63.623047" xlink:href="#DejaVuSans-30"/>
      </g>
     </g>
    </g>
    <g id="xtick_2">
     <g id="line2d_3">
      <path clip-path="url(#p7dc35ed9e0)" d="M 283.781111 667.96 
L 283.781111 13.32 
" style="fill:none;stroke:#b0b0b0;stroke-linecap:square;stroke-width:0.8;"/>
     </g>
     <g id="line2d_4">
      <g>
       <use style="stroke:#000000;stroke-width:0.8;" x="283.781111" xlink:href="#m25b09bdf2c" y="667.96"/>
      </g>
     </g>
     <g id="text_2">
      <!-- $10000 -->
      <defs>
       <path d="M 12.40625 8.296875 
L 28.515625 8.296875 
L 28.515625 63.921875 
L 10.984375 60.40625 
L 10.984375 69.390625 
L 28.421875 72.90625 
L 38.28125 72.90625 
L 38.28125 8.296875 
L 54.390625 8.296875 
L 54.390625 0 
L 12.40625 0 
z
" id="DejaVuSans-31"/>
      </defs>
      <g transform="translate(264.693611 682.558437)scale(0.1 -0.1)">
       <use xlink:href="#DejaVuSans-24"/>
       <use x="63.623047" xlink:href="#DejaVuSans-31"/>
       <use x="127.246094" xlink:href="#DejaVuSans-30"/>
       <use x="190.869141" xlink:href="#DejaVuSans-30"/>
       <use x="254.492188" xlink:href="#DejaVuSans-30"/>
       <use x="318.115234" xlink:href="#DejaVuSans-30"/>
      </g>
     </g>
    </g>
    <g id="xtick_3">
     <g id="line2d_5">
      <path clip-path="url(#p7dc35ed9e0)" d="M 453.648703 667.96 
L 453.648703 13.32 
" style="fill:none;stroke:#b0b0b0;stroke-linecap:square;stroke-width:0.8;"/>
     </g>
     <g id="line2d_6">
      <g>
       <use style="stroke:#000000;stroke-width:0.8;" x="453.648703" xlink:href="#m25b09bdf2c" y="667.96"/>
      </g>
     </g>
     <g id="text_3">
      <!-- $20000 -->
      <defs>
       <path d="M 19.1875 8.296875 
L 53.609375 8.296875 
L 53.609375 0 
L 7.328125 0 
L 7.328125 8.296875 
Q 12.9375 14.109375 22.625 23.890625 
Q 32.328125 33.6875 34.8125 36.53125 
Q 39.546875 41.84375 41.421875 45.53125 
Q 43.3125 49.21875 43.3125 52.78125 
Q 43.3125 58.59375 39.234375 62.25 
Q 35.15625 65.921875 28.609375 65.921875 
Q 23.96875 65.921875 18.8125 64.3125 
Q 13.671875 62.703125 7.8125 59.421875 
L 7.8125 69.390625 
Q 13.765625 71.78125 18.9375 73 
Q 24.125 74.21875 28.421875 74.21875 
Q 39.75 74.21875 46.484375 68.546875 
Q 53.21875 62.890625 53.21875 53.421875 
Q 53.21875 48.921875 51.53125 44.890625 
Q 49.859375 40.875 45.40625 35.40625 
Q 44.1875 33.984375 37.640625 27.21875 
Q 31.109375 20.453125 19.1875 8.296875 
z
" id="DejaVuSans-32"/>
      </defs>
      <g transform="translate(434.561203 682.558437)scale(0.1 -0.1)">
       <use xlink:href="#DejaVuSans-24"/>
       <use x="63.623047" xlink:href="#DejaVuSans-32"/>
       <use x="127.246094" xlink:href="#DejaVuSans-30"/>
       <use x="190.869141" xlink:href="#DejaVuSans-30"/>
       <use x="254.492188" xlink:href="#DejaVuSans-30"/>
       <use x="318.115234" xlink:href="#DejaVuSans-30"/>
      </g>
     </g>
    </g>
    <g id="xtick_4">
     <g id="line2d_7">
      <path clip-path="url(#p7dc35ed9e0)" d="M 623.516296 667.96 
L 623.516296 13.32 
" style="fill:none;stroke:#b0b0b0;stroke-linecap:square;stroke-width:0.8;"/>
     </g>
     <g id="line2d_8">
      <g>
       <use style="stroke:#000000;stroke-width:0.8;" x="623.516296" xlink:href="#m25b09bdf2c" y="667.96"/>
      </g>
     </g>
     <g id="text_4">
      <!-- $30000 -->
      <defs>
       <path d="M 40.578125 39.3125 
Q 47.65625 37.796875 51.625 33 
Q 55.609375 28.21875 55.609375 21.1875 
Q 55.609375 10.40625 48.1875 4.484375 
Q 40.765625 -1.421875 27.09375 -1.421875 
Q 22.515625 -1.421875 17.65625 -0.515625 
Q 12.796875 0.390625 7.625 2.203125 
L 7.625 11.71875 
Q 11.71875 9.328125 16.59375 8.109375 
Q 21.484375 6.890625 26.8125 6.890625 
Q 36.078125 6.890625 40.9375 10.546875 
Q 45.796875 14.203125 45.796875 21.1875 
Q 45.796875 27.640625 41.28125 31.265625 
Q 36.765625 34.90625 28.71875 34.90625 
L 20.21875 34.90625 
L 20.21875 43.015625 
L 29.109375 43.015625 
Q 36.375 43.015625 40.234375 45.921875 
Q 44.09375 48.828125 44.09375 54.296875 
Q 44.09375 59.90625 40.109375 62.90625 
Q 36.140625 65.921875 28.71875 65.921875 
Q 24.65625 65.921875 20.015625 65.03125 
Q 15.375 64.15625 9.8125 62.3125 
L 9.8125 71.09375 
Q 15.4375 72.65625 20.34375 73.4375 
Q 25.25 74.21875 29.59375 74.21875 
Q 40.828125 74.21875 47.359375 69.109375 
Q 53.90625 64.015625 53.90625 55.328125 
Q 53.90625 49.265625 50.4375 45.09375 
Q 46.96875 40.921875 40.578125 39.3125 
z
" id="DejaVuSans-33"/>
      </defs>
      <g transform="translate(604.428796 682.558437)scale(0.1 -0.1)">
       <use xlink:href="#DejaVuSans-24"/>
       <use x="63.623047" xlink:href="#DejaVuSans-33"/>
       <use x="127.246094" xlink:href="#DejaVuSans-30"/>
       <use x="190.869141" xlink:href="#DejaVuSans-30"/>
       <use x="254.492188" xlink:href="#DejaVuSans-30"/>
       <use x="318.115234" xlink:href="#DejaVuSans-30"/>
      </g>
     </g>
    </g>
    <g id="xtick_5">
     <g id="line2d_9">
      <path clip-path="url(#p7dc35ed9e0)" d="M 793.383888 667.96 
L 793.383888 13.32 
" style="fill:none;stroke:#b0b0b0;stroke-linecap:square;stroke-width:0.8;"/>
     </g>
     <g id="line2d_10">
      <g>
       <use style="stroke:#000000;stroke-width:0.8;" x="793.383888" xlink:href="#m25b09bdf2c" y="667.96"/>
      </g>
     </g>
     <g id="text_5">
      <!-- $40000 -->
      <defs>
       <path d="M 37.796875 64.3125 
L 12.890625 25.390625 
L 37.796875 25.390625 
z
M 35.203125 72.90625 
L 47.609375 72.90625 
L 47.609375 25.390625 
L 58.015625 25.390625 
L 58.015625 17.1875 
L 47.609375 17.1875 
L 47.609375 0 
L 37.796875 0 
L 37.796875 17.1875 
L 4.890625 17.1875 
L 4.890625 26.703125 
z
" id="DejaVuSans-34"/>
      </defs>
      <g transform="translate(774.296388 682.558437)scale(0.1 -0.1)">
       <use xlink:href="#DejaVuSans-24"/>
       <use x="63.623047" xlink:href="#DejaVuSans-34"/>
       <use x="127.246094" xlink:href="#DejaVuSans-30"/>
       <use x="190.869141" xlink:href="#DejaVuSans-30"/>
       <use x="254.492188" xlink:href="#DejaVuSans-30"/>
       <use x="318.115234" xlink:href="#DejaVuSans-30"/>
      </g>
     </g>
    </g>
    <g id="xtick_6">
     <g id="line2d_11">
      <path clip-path="url(#p7dc35ed9e0)" d="M 963.251481 667.96 
L 963.251481 13.32 
" style="fill:none;stroke:#b0b0b0;stroke-linecap:square;stroke-width:0.8;"/>
     </g>
     <g id="line2d_12">
      <g>
       <use style="stroke:#000000;stroke-width:0.8;" x="963.251481" xlink:href="#m25b09bdf2c" y="667.96"/>
      </g>
     </g>
     <g id="text_6">
      <!-- $50000 -->
      <defs>
       <path d="M 10.796875 72.90625 
L 49.515625 72.90625 
L 49.515625 64.59375 
L 19.828125 64.59375 
L 19.828125 46.734375 
Q 21.96875 47.46875 24.109375 47.828125 
Q 26.265625 48.1875 28.421875 48.1875 
Q 40.625 48.1875 47.75 41.5 
Q 54.890625 34.8125 54.890625 23.390625 
Q 54.890625 11.625 47.5625 5.09375 
Q 40.234375 -1.421875 26.90625 -1.421875 
Q 22.3125 -1.421875 17.546875 -0.640625 
Q 12.796875 0.140625 7.71875 1.703125 
L 7.71875 11.625 
Q 12.109375 9.234375 16.796875 8.0625 
Q 21.484375 6.890625 26.703125 6.890625 
Q 35.15625 6.890625 40.078125 11.328125 
Q 45.015625 15.765625 45.015625 23.390625 
Q 45.015625 31 40.078125 35.4375 
Q 35.15625 39.890625 26.703125 39.890625 
Q 22.75 39.890625 18.8125 39.015625 
Q 14.890625 38.140625 10.796875 36.28125 
z
" id="DejaVuSans-35"/>
      </defs>
      <g transform="translate(944.163981 682.558437)scale(0.1 -0.1)">
       <use xlink:href="#DejaVuSans-24"/>
       <use x="63.623047" xlink:href="#DejaVuSans-35"/>
       <use x="127.246094" xlink:href="#DejaVuSans-30"/>
       <use x="190.869141" xlink:href="#DejaVuSans-30"/>
       <use x="254.492188" xlink:href="#DejaVuSans-30"/>
       <use x="318.115234" xlink:href="#DejaVuSans-30"/>
      </g>
     </g>
    </g>
    <g id="xtick_7">
     <g id="line2d_13">
      <path clip-path="url(#p7dc35ed9e0)" d="M 1133.119073 667.96 
L 1133.119073 13.32 
" style="fill:none;stroke:#b0b0b0;stroke-linecap:square;stroke-width:0.8;"/>
     </g>
     <g id="line2d_14">
      <g>
       <use style="stroke:#000000;stroke-width:0.8;" x="1133.119073" xlink:href="#m25b09bdf2c" y="667.96"/>
      </g>
     </g>
     <g id="text_7">
      <!-- $60000 -->
      <defs>
       <path d="M 33.015625 40.375 
Q 26.375 40.375 22.484375 35.828125 
Q 18.609375 31.296875 18.609375 23.390625 
Q 18.609375 15.53125 22.484375 10.953125 
Q 26.375 6.390625 33.015625 6.390625 
Q 39.65625 6.390625 43.53125 10.953125 
Q 47.40625 15.53125 47.40625 23.390625 
Q 47.40625 31.296875 43.53125 35.828125 
Q 39.65625 40.375 33.015625 40.375 
z
M 52.59375 71.296875 
L 52.59375 62.3125 
Q 48.875 64.0625 45.09375 64.984375 
Q 41.3125 65.921875 37.59375 65.921875 
Q 27.828125 65.921875 22.671875 59.328125 
Q 17.53125 52.734375 16.796875 39.40625 
Q 19.671875 43.65625 24.015625 45.921875 
Q 28.375 48.1875 33.59375 48.1875 
Q 44.578125 48.1875 50.953125 41.515625 
Q 57.328125 34.859375 57.328125 23.390625 
Q 57.328125 12.15625 50.6875 5.359375 
Q 44.046875 -1.421875 33.015625 -1.421875 
Q 20.359375 -1.421875 13.671875 8.265625 
Q 6.984375 17.96875 6.984375 36.375 
Q 6.984375 53.65625 15.1875 63.9375 
Q 23.390625 74.21875 37.203125 74.21875 
Q 40.921875 74.21875 44.703125 73.484375 
Q 48.484375 72.75 52.59375 71.296875 
z
" id="DejaVuSans-36"/>
      </defs>
      <g transform="translate(1114.031573 682.558437)scale(0.1 -0.1)">
       <use xlink:href="#DejaVuSans-24"/>
       <use x="63.623047" xlink:href="#DejaVuSans-36"/>
       <use x="127.246094" xlink:href="#DejaVuSans-30"/>
       <use x="190.869141" xlink:href="#DejaVuSans-30"/>
       <use x="254.492188" xlink:href="#DejaVuSans-30"/>
       <use x="318.115234" xlink:href="#DejaVuSans-30"/>
      </g>
     </g>
    </g>
    <g id="xtick_8">
     <g id="line2d_15">
      <path clip-path="url(#p7dc35ed9e0)" d="M 1302.986666 667.96 
L 1302.986666 13.32 
" style="fill:none;stroke:#b0b0b0;stroke-linecap:square;stroke-width:0.8;"/>
     </g>
     <g id="line2d_16">
      <g>
       <use style="stroke:#000000;stroke-width:0.8;" x="1302.986666" xlink:href="#m25b09bdf2c" y="667.96"/>
      </g>
     </g>
     <g id="text_8">
      <!-- $70000 -->
      <defs>
       <path d="M 8.203125 72.90625 
L 55.078125 72.90625 
L 55.078125 68.703125 
L 28.609375 0 
L 18.3125 0 
L 43.21875 64.59375 
L 8.203125 64.59375 
z
" id="DejaVuSans-37"/>
      </defs>
      <g transform="translate(1283.899166 682.558437)scale(0.1 -0.1)">
       <use xlink:href="#DejaVuSans-24"/>
       <use x="63.623047" xlink:href="#DejaVuSans-37"/>
       <use x="127.246094" xlink:href="#DejaVuSans-30"/>
       <use x="190.869141" xlink:href="#DejaVuSans-30"/>
       <use x="254.492188" xlink:href="#DejaVuSans-30"/>
       <use x="318.115234" xlink:href="#DejaVuSans-30"/>
      </g>
     </g>
    </g>
    <g id="text_9">
     <!-- Raised in 2017 -->
     <defs>
      <path d="M 44.390625 34.1875 
Q 47.5625 33.109375 50.5625 29.59375 
Q 53.5625 26.078125 56.59375 19.921875 
L 66.609375 0 
L 56 0 
L 46.6875 18.703125 
Q 43.0625 26.03125 39.671875 28.421875 
Q 36.28125 30.8125 30.421875 30.8125 
L 19.671875 30.8125 
L 19.671875 0 
L 9.8125 0 
L 9.8125 72.90625 
L 32.078125 72.90625 
Q 44.578125 72.90625 50.734375 67.671875 
Q 56.890625 62.453125 56.890625 51.90625 
Q 56.890625 45.015625 53.6875 40.46875 
Q 50.484375 35.9375 44.390625 34.1875 
z
M 19.671875 64.796875 
L 19.671875 38.921875 
L 32.078125 38.921875 
Q 39.203125 38.921875 42.84375 42.21875 
Q 46.484375 45.515625 46.484375 51.90625 
Q 46.484375 58.296875 42.84375 61.546875 
Q 39.203125 64.796875 32.078125 64.796875 
z
" id="DejaVuSans-52"/>
      <path d="M 34.28125 27.484375 
Q 23.390625 27.484375 19.1875 25 
Q 14.984375 22.515625 14.984375 16.5 
Q 14.984375 11.71875 18.140625 8.90625 
Q 21.296875 6.109375 26.703125 6.109375 
Q 34.1875 6.109375 38.703125 11.40625 
Q 43.21875 16.703125 43.21875 25.484375 
L 43.21875 27.484375 
z
M 52.203125 31.203125 
L 52.203125 0 
L 43.21875 0 
L 43.21875 8.296875 
Q 40.140625 3.328125 35.546875 0.953125 
Q 30.953125 -1.421875 24.3125 -1.421875 
Q 15.921875 -1.421875 10.953125 3.296875 
Q 6 8.015625 6 15.921875 
Q 6 25.140625 12.171875 29.828125 
Q 18.359375 34.515625 30.609375 34.515625 
L 43.21875 34.515625 
L 43.21875 35.40625 
Q 43.21875 41.609375 39.140625 45 
Q 35.0625 48.390625 27.6875 48.390625 
Q 23 48.390625 18.546875 47.265625 
Q 14.109375 46.140625 10.015625 43.890625 
L 10.015625 52.203125 
Q 14.9375 54.109375 19.578125 55.046875 
Q 24.21875 56 28.609375 56 
Q 40.484375 56 46.34375 49.84375 
Q 52.203125 43.703125 52.203125 31.203125 
z
" id="DejaVuSans-61"/>
      <path d="M 9.421875 54.6875 
L 18.40625 54.6875 
L 18.40625 0 
L 9.421875 0 
z
M 9.421875 75.984375 
L 18.40625 75.984375 
L 18.40625 64.59375 
L 9.421875 64.59375 
z
" id="DejaVuSans-69"/>
      <path d="M 44.28125 53.078125 
L 44.28125 44.578125 
Q 40.484375 46.53125 36.375 47.5 
Q 32.28125 48.484375 27.875 48.484375 
Q 21.1875 48.484375 17.84375 46.4375 
Q 14.5 44.390625 14.5 40.28125 
Q 14.5 37.15625 16.890625 35.375 
Q 19.28125 33.59375 26.515625 31.984375 
L 29.59375 31.296875 
Q 39.15625 29.25 43.1875 25.515625 
Q 47.21875 21.78125 47.21875 15.09375 
Q 47.21875 7.46875 41.1875 3.015625 
Q 35.15625 -1.421875 24.609375 -1.421875 
Q 20.21875 -1.421875 15.453125 -0.5625 
Q 10.6875 0.296875 5.421875 2 
L 5.421875 11.28125 
Q 10.40625 8.6875 15.234375 7.390625 
Q 20.0625 6.109375 24.8125 6.109375 
Q 31.15625 6.109375 34.5625 8.28125 
Q 37.984375 10.453125 37.984375 14.40625 
Q 37.984375 18.0625 35.515625 20.015625 
Q 33.0625 21.96875 24.703125 23.78125 
L 21.578125 24.515625 
Q 13.234375 26.265625 9.515625 29.90625 
Q 5.8125 33.546875 5.8125 39.890625 
Q 5.8125 47.609375 11.28125 51.796875 
Q 16.75 56 26.8125 56 
Q 31.78125 56 36.171875 55.265625 
Q 40.578125 54.546875 44.28125 53.078125 
z
" id="DejaVuSans-73"/>
      <path d="M 56.203125 29.59375 
L 56.203125 25.203125 
L 14.890625 25.203125 
Q 15.484375 15.921875 20.484375 11.0625 
Q 25.484375 6.203125 34.421875 6.203125 
Q 39.59375 6.203125 44.453125 7.46875 
Q 49.3125 8.734375 54.109375 11.28125 
L 54.109375 2.78125 
Q 49.265625 0.734375 44.1875 -0.34375 
Q 39.109375 -1.421875 33.890625 -1.421875 
Q 20.796875 -1.421875 13.15625 6.1875 
Q 5.515625 13.8125 5.515625 26.8125 
Q 5.515625 40.234375 12.765625 48.109375 
Q 20.015625 56 32.328125 56 
Q 43.359375 56 49.78125 48.890625 
Q 56.203125 41.796875 56.203125 29.59375 
z
M 47.21875 32.234375 
Q 47.125 39.59375 43.09375 43.984375 
Q 39.0625 48.390625 32.421875 48.390625 
Q 24.90625 48.390625 20.390625 44.140625 
Q 15.875 39.890625 15.1875 32.171875 
z
" id="DejaVuSans-65"/>
      <path d="M 45.40625 46.390625 
L 45.40625 75.984375 
L 54.390625 75.984375 
L 54.390625 0 
L 45.40625 0 
L 45.40625 8.203125 
Q 42.578125 3.328125 38.25 0.953125 
Q 33.9375 -1.421875 27.875 -1.421875 
Q 17.96875 -1.421875 11.734375 6.484375 
Q 5.515625 14.40625 5.515625 27.296875 
Q 5.515625 40.1875 11.734375 48.09375 
Q 17.96875 56 27.875 56 
Q 33.9375 56 38.25 53.625 
Q 42.578125 51.265625 45.40625 46.390625 
z
M 14.796875 27.296875 
Q 14.796875 17.390625 18.875 11.75 
Q 22.953125 6.109375 30.078125 6.109375 
Q 37.203125 6.109375 41.296875 11.75 
Q 45.40625 17.390625 45.40625 27.296875 
Q 45.40625 37.203125 41.296875 42.84375 
Q 37.203125 48.484375 30.078125 48.484375 
Q 22.953125 48.484375 18.875 42.84375 
Q 14.796875 37.203125 14.796875 27.296875 
z
" id="DejaVuSans-64"/>
      <path id="DejaVuSans-20"/>
      <path d="M 54.890625 33.015625 
L 54.890625 0 
L 45.90625 0 
L 45.90625 32.71875 
Q 45.90625 40.484375 42.875 44.328125 
Q 39.84375 48.1875 33.796875 48.1875 
Q 26.515625 48.1875 22.3125 43.546875 
Q 18.109375 38.921875 18.109375 30.90625 
L 18.109375 0 
L 9.078125 0 
L 9.078125 54.6875 
L 18.109375 54.6875 
L 18.109375 46.1875 
Q 21.34375 51.125 25.703125 53.5625 
Q 30.078125 56 35.796875 56 
Q 45.21875 56 50.046875 50.171875 
Q 54.890625 44.34375 54.890625 33.015625 
z
" id="DejaVuSans-6e"/>
     </defs>
     <g transform="translate(678.825625 703.835)scale(0.2 -0.2)">
      <use xlink:href="#DejaVuSans-52"/>
      <use x="69.451172" xlink:href="#DejaVuSans-61"/>
      <use x="130.730469" xlink:href="#DejaVuSans-69"/>
      <use x="158.513672" xlink:href="#DejaVuSans-73"/>
      <use x="210.613281" xlink:href="#DejaVuSans-65"/>
      <use x="272.136719" xlink:href="#DejaVuSans-64"/>
      <use x="335.613281" xlink:href="#DejaVuSans-20"/>
      <use x="367.400391" xlink:href="#DejaVuSans-69"/>
      <use x="395.183594" xlink:href="#DejaVuSans-6e"/>
      <use x="458.5625" xlink:href="#DejaVuSans-20"/>
      <use x="490.349609" xlink:href="#DejaVuSans-32"/>
      <use x="553.972656" xlink:href="#DejaVuSans-30"/>
      <use x="617.595703" xlink:href="#DejaVuSans-31"/>
      <use x="681.21875" xlink:href="#DejaVuSans-37"/>
     </g>
    </g>
   </g>
   <g id="matplotlib.axis_2">
    <g id="ytick_1">
     <g id="line2d_17">
      <path clip-path="url(#p7dc35ed9e0)" d="M 79.94 624.696287 
L 1426.68 624.696287 
" style="fill:none;stroke:#b0b0b0;stroke-linecap:square;stroke-width:0.8;"/>
     </g>
     <g id="line2d_18">
      <defs>
       <path d="M 0 0 
L -3.5 0 
" id="m3367cd7dca" style="stroke:#000000;stroke-width:0.8;"/>
      </defs>
      <g>
       <use style="stroke:#000000;stroke-width:0.8;" x="79.94" xlink:href="#m3367cd7dca" y="624.696287"/>
      </g>
     </g>
     <g id="text_10">
      <!-- $0 -->
      <g transform="translate(60.215 628.495506)scale(0.1 -0.1)">
       <use xlink:href="#DejaVuSans-24"/>
       <use x="63.623047" xlink:href="#DejaVuSans-30"/>
      </g>
     </g>
    </g>
    <g id="ytick_2">
     <g id="line2d_19">
      <path clip-path="url(#p7dc35ed9e0)" d="M 79.94 516.537006 
L 1426.68 516.537006 
" style="fill:none;stroke:#b0b0b0;stroke-linecap:square;stroke-width:0.8;"/>
     </g>
     <g id="line2d_20">
      <g>
       <use style="stroke:#000000;stroke-width:0.8;" x="79.94" xlink:href="#m3367cd7dca" y="516.537006"/>
      </g>
     </g>
     <g id="text_11">
      <!-- $10000 -->
      <g transform="translate(34.765 520.336225)scale(0.1 -0.1)">
       <use xlink:href="#DejaVuSans-24"/>
       <use x="63.623047" xlink:href="#DejaVuSans-31"/>
       <use x="127.246094" xlink:href="#DejaVuSans-30"/>
       <use x="190.869141" xlink:href="#DejaVuSans-30"/>
       <use x="254.492188" xlink:href="#DejaVuSans-30"/>
       <use x="318.115234" xlink:href="#DejaVuSans-30"/>
      </g>
     </g>
    </g>
    <g id="ytick_3">
     <g id="line2d_21">
      <path clip-path="url(#p7dc35ed9e0)" d="M 79.94 408.377724 
L 1426.68 408.377724 
" style="fill:none;stroke:#b0b0b0;stroke-linecap:square;stroke-width:0.8;"/>
     </g>
     <g id="line2d_22">
      <g>
       <use style="stroke:#000000;stroke-width:0.8;" x="79.94" xlink:href="#m3367cd7dca" y="408.377724"/>
      </g>
     </g>
     <g id="text_12">
      <!-- $20000 -->
      <g transform="translate(34.765 412.176943)scale(0.1 -0.1)">
       <use xlink:href="#DejaVuSans-24"/>
       <use x="63.623047" xlink:href="#DejaVuSans-32"/>
       <use x="127.246094" xlink:href="#DejaVuSans-30"/>
       <use x="190.869141" xlink:href="#DejaVuSans-30"/>
       <use x="254.492188" xlink:href="#DejaVuSans-30"/>
       <use x="318.115234" xlink:href="#DejaVuSans-30"/>
      </g>
     </g>
    </g>
    <g id="ytick_4">
     <g id="line2d_23">
      <path clip-path="url(#p7dc35ed9e0)" d="M 79.94 300.218443 
L 1426.68 300.218443 
" style="fill:none;stroke:#b0b0b0;stroke-linecap:square;stroke-width:0.8;"/>
     </g>
     <g id="line2d_24">
      <g>
       <use style="stroke:#000000;stroke-width:0.8;" x="79.94" xlink:href="#m3367cd7dca" y="300.218443"/>
      </g>
     </g>
     <g id="text_13">
      <!-- $30000 -->
      <g transform="translate(34.765 304.017662)scale(0.1 -0.1)">
       <use xlink:href="#DejaVuSans-24"/>
       <use x="63.623047" xlink:href="#DejaVuSans-33"/>
       <use x="127.246094" xlink:href="#DejaVuSans-30"/>
       <use x="190.869141" xlink:href="#DejaVuSans-30"/>
       <use x="254.492188" xlink:href="#DejaVuSans-30"/>
       <use x="318.115234" xlink:href="#DejaVuSans-30"/>
      </g>
     </g>
    </g>
    <g id="ytick_5">
     <g id="line2d_25">
      <path clip-path="url(#p7dc35ed9e0)" d="M 79.94 192.059161 
L 1426.68 192.059161 
" style="fill:none;stroke:#b0b0b0;stroke-linecap:square;stroke-width:0.8;"/>
     </g>
     <g id="line2d_26">
      <g>
       <use style="stroke:#000000;stroke-width:0.8;" x="79.94" xlink:href="#m3367cd7dca" y="192.059161"/>
      </g>
     </g>
     <g id="text_14">
      <!-- $40000 -->
      <g transform="translate(34.765 195.85838)scale(0.1 -0.1)">
       <use xlink:href="#DejaVuSans-24"/>
       <use x="63.623047" xlink:href="#DejaVuSans-34"/>
       <use x="127.246094" xlink:href="#DejaVuSans-30"/>
       <use x="190.869141" xlink:href="#DejaVuSans-30"/>
       <use x="254.492188" xlink:href="#DejaVuSans-30"/>
       <use x="318.115234" xlink:href="#DejaVuSans-30"/>
      </g>
     </g>
    </g>
    <g id="ytick_6">
     <g id="line2d_27">
      <path clip-path="url(#p7dc35ed9e0)" d="M 79.94 83.89988 
L 1426.68 83.89988 
" style="fill:none;stroke:#b0b0b0;stroke-linecap:square;stroke-width:0.8;"/>
     </g>
     <g id="line2d_28">
      <g>
       <use style="stroke:#000000;stroke-width:0.8;" x="79.94" xlink:href="#m3367cd7dca" y="83.89988"/>
      </g>
     </g>
     <g id="text_15">
      <!-- $50000 -->
      <g transform="translate(34.765 87.699099)scale(0.1 -0.1)">
       <use xlink:href="#DejaVuSans-24"/>
       <use x="63.623047" xlink:href="#DejaVuSans-35"/>
       <use x="127.246094" xlink:href="#DejaVuSans-30"/>
       <use x="190.869141" xlink:href="#DejaVuSans-30"/>
       <use x="254.492188" xlink:href="#DejaVuSans-30"/>
       <use x="318.115234" xlink:href="#DejaVuSans-30"/>
      </g>
     </g>
    </g>
    <g id="text_16">
     <!-- Spent in 2017 -->
     <defs>
      <path d="M 53.515625 70.515625 
L 53.515625 60.890625 
Q 47.90625 63.578125 42.921875 64.890625 
Q 37.9375 66.21875 33.296875 66.21875 
Q 25.25 66.21875 20.875 63.09375 
Q 16.5 59.96875 16.5 54.203125 
Q 16.5 49.359375 19.40625 46.890625 
Q 22.3125 44.4375 30.421875 42.921875 
L 36.375 41.703125 
Q 47.40625 39.59375 52.65625 34.296875 
Q 57.90625 29 57.90625 20.125 
Q 57.90625 9.515625 50.796875 4.046875 
Q 43.703125 -1.421875 29.984375 -1.421875 
Q 24.8125 -1.421875 18.96875 -0.25 
Q 13.140625 0.921875 6.890625 3.21875 
L 6.890625 13.375 
Q 12.890625 10.015625 18.65625 8.296875 
Q 24.421875 6.59375 29.984375 6.59375 
Q 38.421875 6.59375 43.015625 9.90625 
Q 47.609375 13.234375 47.609375 19.390625 
Q 47.609375 24.75 44.3125 27.78125 
Q 41.015625 30.8125 33.5 32.328125 
L 27.484375 33.5 
Q 16.453125 35.6875 11.515625 40.375 
Q 6.59375 45.0625 6.59375 53.421875 
Q 6.59375 63.09375 13.40625 68.65625 
Q 20.21875 74.21875 32.171875 74.21875 
Q 37.3125 74.21875 42.625 73.28125 
Q 47.953125 72.359375 53.515625 70.515625 
z
" id="DejaVuSans-53"/>
      <path d="M 18.109375 8.203125 
L 18.109375 -20.796875 
L 9.078125 -20.796875 
L 9.078125 54.6875 
L 18.109375 54.6875 
L 18.109375 46.390625 
Q 20.953125 51.265625 25.265625 53.625 
Q 29.59375 56 35.59375 56 
Q 45.5625 56 51.78125 48.09375 
Q 58.015625 40.1875 58.015625 27.296875 
Q 58.015625 14.40625 51.78125 6.484375 
Q 45.5625 -1.421875 35.59375 -1.421875 
Q 29.59375 -1.421875 25.265625 0.953125 
Q 20.953125 3.328125 18.109375 8.203125 
z
M 48.6875 27.296875 
Q 48.6875 37.203125 44.609375 42.84375 
Q 40.53125 48.484375 33.40625 48.484375 
Q 26.265625 48.484375 22.1875 42.84375 
Q 18.109375 37.203125 18.109375 27.296875 
Q 18.109375 17.390625 22.1875 11.75 
Q 26.265625 6.109375 33.40625 6.109375 
Q 40.53125 6.109375 44.609375 11.75 
Q 48.6875 17.390625 48.6875 27.296875 
z
" id="DejaVuSans-70"/>
      <path d="M 18.3125 70.21875 
L 18.3125 54.6875 
L 36.8125 54.6875 
L 36.8125 47.703125 
L 18.3125 47.703125 
L 18.3125 18.015625 
Q 18.3125 11.328125 20.140625 9.421875 
Q 21.96875 7.515625 27.59375 7.515625 
L 36.8125 7.515625 
L 36.8125 0 
L 27.59375 0 
Q 17.1875 0 13.234375 3.875 
Q 9.28125 7.765625 9.28125 18.015625 
L 9.28125 47.703125 
L 2.6875 47.703125 
L 2.6875 54.6875 
L 9.28125 54.6875 
L 9.28125 70.21875 
z
" id="DejaVuSans-74"/>
     </defs>
     <g transform="translate(26.605625 410.669688)rotate(-90)scale(0.2 -0.2)">
      <use xlink:href="#DejaVuSans-53"/>
      <use x="63.476562" xlink:href="#DejaVuSans-70"/>
      <use x="126.953125" xlink:href="#DejaVuSans-65"/>
      <use x="188.476562" xlink:href="#DejaVuSans-6e"/>
      <use x="251.855469" xlink:href="#DejaVuSans-74"/>
      <use x="291.064453" xlink:href="#DejaVuSans-20"/>
      <use x="322.851562" xlink:href="#DejaVuSans-69"/>
      <use x="350.634766" xlink:href="#DejaVuSans-6e"/>
      <use x="414.013672" xlink:href="#DejaVuSans-20"/>
      <use x="445.800781" xlink:href="#DejaVuSans-32"/>
      <use x="509.423828" xlink:href="#DejaVuSans-30"/>
      <use x="573.046875" xlink:href="#DejaVuSans-31"/>
      <use x="636.669922" xlink:href="#DejaVuSans-37"/>
     </g>
    </g>
   </g>
   <g id="patch_3">
    <path d="M 79.94 667.96 
L 79.94 13.32 
" style="fill:none;stroke:#000000;stroke-linecap:square;stroke-linejoin:miter;stroke-width:0.8;"/>
   </g>
   <g id="patch_4">
    <path d="M 1426.68 667.96 
L 1426.68 13.32 
" style="fill:none;stroke:#000000;stroke-linecap:square;stroke-linejoin:miter;stroke-width:0.8;"/>
   </g>
   <g id="patch_5">
    <path d="M 79.94 667.96 
L 1426.68 667.96 
" style="fill:none;stroke:#000000;stroke-linecap:square;stroke-linejoin:miter;stroke-width:0.8;"/>
   </g>
   <g id="patch_6">
    <path d="M 79.94 13.32 
L 1426.68 13.32 
" style="fill:none;stroke:#000000;stroke-linecap:square;stroke-linejoin:miter;stroke-width:0.8;"/>
   </g>
   <g id="text_17">
    <!-- Operating Balance -->
    <defs>
     <path d="M 39.40625 66.21875 
Q 28.65625 66.21875 22.328125 58.203125 
Q 16.015625 50.203125 16.015625 36.375 
Q 16.015625 22.609375 22.328125 14.59375 
Q 28.65625 6.59375 39.40625 6.59375 
Q 50.140625 6.59375 56.421875 14.59375 
Q 62.703125 22.609375 62.703125 36.375 
Q 62.703125 50.203125 56.421875 58.203125 
Q 50.140625 66.21875 39.40625 66.21875 
z
M 39.40625 74.21875 
Q 54.734375 74.21875 63.90625 63.9375 
Q 73.09375 53.65625 73.09375 36.375 
Q 73.09375 19.140625 63.90625 8.859375 
Q 54.734375 -1.421875 39.40625 -1.421875 
Q 24.03125 -1.421875 14.8125 8.828125 
Q 5.609375 19.09375 5.609375 36.375 
Q 5.609375 53.65625 14.8125 63.9375 
Q 24.03125 74.21875 39.40625 74.21875 
z
" id="DejaVuSans-4f"/>
     <path d="M 41.109375 46.296875 
Q 39.59375 47.171875 37.8125 47.578125 
Q 36.03125 48 33.890625 48 
Q 26.265625 48 22.1875 43.046875 
Q 18.109375 38.09375 18.109375 28.8125 
L 18.109375 0 
L 9.078125 0 
L 9.078125 54.6875 
L 18.109375 54.6875 
L 18.109375 46.1875 
Q 20.953125 51.171875 25.484375 53.578125 
Q 30.03125 56 36.53125 56 
Q 37.453125 56 38.578125 55.875 
Q 39.703125 55.765625 41.0625 55.515625 
z
" id="DejaVuSans-72"/>
     <path d="M 45.40625 27.984375 
Q 45.40625 37.75 41.375 43.109375 
Q 37.359375 48.484375 30.078125 48.484375 
Q 22.859375 48.484375 18.828125 43.109375 
Q 14.796875 37.75 14.796875 27.984375 
Q 14.796875 18.265625 18.828125 12.890625 
Q 22.859375 7.515625 30.078125 7.515625 
Q 37.359375 7.515625 41.375 12.890625 
Q 45.40625 18.265625 45.40625 27.984375 
z
M 54.390625 6.78125 
Q 54.390625 -7.171875 48.1875 -13.984375 
Q 42 -20.796875 29.203125 -20.796875 
Q 24.46875 -20.796875 20.265625 -20.09375 
Q 16.0625 -19.390625 12.109375 -17.921875 
L 12.109375 -9.1875 
Q 16.0625 -11.328125 19.921875 -12.34375 
Q 23.78125 -13.375 27.78125 -13.375 
Q 36.625 -13.375 41.015625 -8.765625 
Q 45.40625 -4.15625 45.40625 5.171875 
L 45.40625 9.625 
Q 42.625 4.78125 38.28125 2.390625 
Q 33.9375 0 27.875 0 
Q 17.828125 0 11.671875 7.65625 
Q 5.515625 15.328125 5.515625 27.984375 
Q 5.515625 40.671875 11.671875 48.328125 
Q 17.828125 56 27.875 56 
Q 33.9375 56 38.28125 53.609375 
Q 42.625 51.21875 45.40625 46.390625 
L 45.40625 54.6875 
L 54.390625 54.6875 
z
" id="DejaVuSans-67"/>
     <path d="M 19.671875 34.8125 
L 19.671875 8.109375 
L 35.5 8.109375 
Q 43.453125 8.109375 47.28125 11.40625 
Q 51.125 14.703125 51.125 21.484375 
Q 51.125 28.328125 47.28125 31.5625 
Q 43.453125 34.8125 35.5 34.8125 
z
M 19.671875 64.796875 
L 19.671875 42.828125 
L 34.28125 42.828125 
Q 41.5 42.828125 45.03125 45.53125 
Q 48.578125 48.25 48.578125 53.8125 
Q 48.578125 59.328125 45.03125 62.0625 
Q 41.5 64.796875 34.28125 64.796875 
z
M 9.8125 72.90625 
L 35.015625 72.90625 
Q 46.296875 72.90625 52.390625 68.21875 
Q 58.5 63.53125 58.5 54.890625 
Q 58.5 48.1875 55.375 44.234375 
Q 52.25 40.28125 46.1875 39.3125 
Q 53.46875 37.75 57.5 32.78125 
Q 61.53125 27.828125 61.53125 20.40625 
Q 61.53125 10.640625 54.890625 5.3125 
Q 48.25 0 35.984375 0 
L 9.8125 0 
z
" id="DejaVuSans-42"/>
     <path d="M 9.421875 75.984375 
L 18.40625 75.984375 
L 18.40625 0 
L 9.421875 0 
z
" id="DejaVuSans-6c"/>
     <path d="M 48.78125 52.59375 
L 48.78125 44.1875 
Q 44.96875 46.296875 41.140625 47.34375 
Q 37.3125 48.390625 33.40625 48.390625 
Q 24.65625 48.390625 19.8125 42.84375 
Q 14.984375 37.3125 14.984375 27.296875 
Q 14.984375 17.28125 19.8125 11.734375 
Q 24.65625 6.203125 33.40625 6.203125 
Q 37.3125 6.203125 41.140625 7.25 
Q 44.96875 8.296875 48.78125 10.40625 
L 48.78125 2.09375 
Q 45.015625 0.34375 40.984375 -0.53125 
Q 36.96875 -1.421875 32.421875 -1.421875 
Q 20.0625 -1.421875 12.78125 6.34375 
Q 5.515625 14.109375 5.515625 27.296875 
Q 5.515625 40.671875 12.859375 48.328125 
Q 20.21875 56 33.015625 56 
Q 37.15625 56 41.109375 55.140625 
Q 45.0625 54.296875 48.78125 52.59375 
z
" id="DejaVuSans-63"/>
    </defs>
    <g transform="translate(660.250625 33.99275)scale(0.2 -0.2)">
     <use xlink:href="#DejaVuSans-4f"/>
     <use x="78.710938" xlink:href="#DejaVuSans-70"/>
     <use x="142.1875" xlink:href="#DejaVuSans-65"/>
     <use x="203.710938" xlink:href="#DejaVuSans-72"/>
     <use x="244.824219" xlink:href="#DejaVuSans-61"/>
     <use x="306.103516" xlink:href="#DejaVuSans-74"/>
     <use x="345.3125" xlink:href="#DejaVuSans-69"/>
     <use x="373.095703" xlink:href="#DejaVuSans-6e"/>
     <use x="436.474609" xlink:href="#DejaVuSans-67"/>
     <use x="499.951172" xlink:href="#DejaVuSans-20"/>
     <use x="531.738281" xlink:href="#DejaVuSans-42"/>
     <use x="600.341797" xlink:href="#DejaVuSans-61"/>
     <use x="661.621094" xlink:href="#DejaVuSans-6c"/>
     <use x="689.404297" xlink:href="#DejaVuSans-61"/>
     <use x="750.683594" xlink:href="#DejaVuSans-6e"/>
     <use x="814.0625" xlink:href="#DejaVuSans-63"/>
     <use x="869.042969" xlink:href="#DejaVuSans-65"/>
    </g>
    <!-- for City Council Candidates -->
    <defs>
     <path d="M 37.109375 75.984375 
L 37.109375 68.5 
L 28.515625 68.5 
Q 23.6875 68.5 21.796875 66.546875 
Q 19.921875 64.59375 19.921875 59.515625 
L 19.921875 54.6875 
L 34.71875 54.6875 
L 34.71875 47.703125 
L 19.921875 47.703125 
L 19.921875 0 
L 10.890625 0 
L 10.890625 47.703125 
L 2.296875 47.703125 
L 2.296875 54.6875 
L 10.890625 54.6875 
L 10.890625 58.5 
Q 10.890625 67.625 15.140625 71.796875 
Q 19.390625 75.984375 28.609375 75.984375 
z
" id="DejaVuSans-66"/>
     <path d="M 30.609375 48.390625 
Q 23.390625 48.390625 19.1875 42.75 
Q 14.984375 37.109375 14.984375 27.296875 
Q 14.984375 17.484375 19.15625 11.84375 
Q 23.34375 6.203125 30.609375 6.203125 
Q 37.796875 6.203125 41.984375 11.859375 
Q 46.1875 17.53125 46.1875 27.296875 
Q 46.1875 37.015625 41.984375 42.703125 
Q 37.796875 48.390625 30.609375 48.390625 
z
M 30.609375 56 
Q 42.328125 56 49.015625 48.375 
Q 55.71875 40.765625 55.71875 27.296875 
Q 55.71875 13.875 49.015625 6.21875 
Q 42.328125 -1.421875 30.609375 -1.421875 
Q 18.84375 -1.421875 12.171875 6.21875 
Q 5.515625 13.875 5.515625 27.296875 
Q 5.515625 40.765625 12.171875 48.375 
Q 18.84375 56 30.609375 56 
z
" id="DejaVuSans-6f"/>
     <path d="M 64.40625 67.28125 
L 64.40625 56.890625 
Q 59.421875 61.53125 53.78125 63.8125 
Q 48.140625 66.109375 41.796875 66.109375 
Q 29.296875 66.109375 22.65625 58.46875 
Q 16.015625 50.828125 16.015625 36.375 
Q 16.015625 21.96875 22.65625 14.328125 
Q 29.296875 6.6875 41.796875 6.6875 
Q 48.140625 6.6875 53.78125 8.984375 
Q 59.421875 11.28125 64.40625 15.921875 
L 64.40625 5.609375 
Q 59.234375 2.09375 53.4375 0.328125 
Q 47.65625 -1.421875 41.21875 -1.421875 
Q 24.65625 -1.421875 15.125 8.703125 
Q 5.609375 18.84375 5.609375 36.375 
Q 5.609375 53.953125 15.125 64.078125 
Q 24.65625 74.21875 41.21875 74.21875 
Q 47.75 74.21875 53.53125 72.484375 
Q 59.328125 70.75 64.40625 67.28125 
z
" id="DejaVuSans-43"/>
     <path d="M 32.171875 -5.078125 
Q 28.375 -14.84375 24.75 -17.8125 
Q 21.140625 -20.796875 15.09375 -20.796875 
L 7.90625 -20.796875 
L 7.90625 -13.28125 
L 13.1875 -13.28125 
Q 16.890625 -13.28125 18.9375 -11.515625 
Q 21 -9.765625 23.484375 -3.21875 
L 25.09375 0.875 
L 2.984375 54.6875 
L 12.5 54.6875 
L 29.59375 11.921875 
L 46.6875 54.6875 
L 56.203125 54.6875 
z
" id="DejaVuSans-79"/>
     <path d="M 8.5 21.578125 
L 8.5 54.6875 
L 17.484375 54.6875 
L 17.484375 21.921875 
Q 17.484375 14.15625 20.5 10.265625 
Q 23.53125 6.390625 29.59375 6.390625 
Q 36.859375 6.390625 41.078125 11.03125 
Q 45.3125 15.671875 45.3125 23.6875 
L 45.3125 54.6875 
L 54.296875 54.6875 
L 54.296875 0 
L 45.3125 0 
L 45.3125 8.40625 
Q 42.046875 3.421875 37.71875 1 
Q 33.40625 -1.421875 27.6875 -1.421875 
Q 18.265625 -1.421875 13.375 4.4375 
Q 8.5 10.296875 8.5 21.578125 
z
M 31.109375 56 
z
" id="DejaVuSans-75"/>
    </defs>
    <g transform="translate(617.26 56.388375)scale(0.2 -0.2)">
     <use xlink:href="#DejaVuSans-66"/>
     <use x="35.205078" xlink:href="#DejaVuSans-6f"/>
     <use x="96.386719" xlink:href="#DejaVuSans-72"/>
     <use x="137.5" xlink:href="#DejaVuSans-20"/>
     <use x="169.287109" xlink:href="#DejaVuSans-43"/>
     <use x="239.111328" xlink:href="#DejaVuSans-69"/>
     <use x="266.894531" xlink:href="#DejaVuSans-74"/>
     <use x="306.103516" xlink:href="#DejaVuSans-79"/>
     <use x="365.283203" xlink:href="#DejaVuSans-20"/>
     <use x="397.070312" xlink:href="#DejaVuSans-43"/>
     <use x="466.894531" xlink:href="#DejaVuSans-6f"/>
     <use x="528.076172" xlink:href="#DejaVuSans-75"/>
     <use x="591.455078" xlink:href="#DejaVuSans-6e"/>
     <use x="654.833984" xlink:href="#DejaVuSans-63"/>
     <use x="709.814453" xlink:href="#DejaVuSans-69"/>
     <use x="737.597656" xlink:href="#DejaVuSans-6c"/>
     <use x="765.380859" xlink:href="#DejaVuSans-20"/>
     <use x="797.167969" xlink:href="#DejaVuSans-43"/>
     <use x="866.992188" xlink:href="#DejaVuSans-61"/>
     <use x="928.271484" xlink:href="#DejaVuSans-6e"/>
     <use x="991.650391" xlink:href="#DejaVuSans-64"/>
     <use x="1055.126953" xlink:href="#DejaVuSans-69"/>
     <use x="1082.910156" xlink:href="#DejaVuSans-64"/>
     <use x="1146.386719" xlink:href="#DejaVuSans-61"/>
     <use x="1207.666016" xlink:href="#DejaVuSans-74"/>
     <use x="1246.875" xlink:href="#DejaVuSans-65"/>
     <use x="1308.398438" xlink:href="#DejaVuSans-73"/>
    </g>
    <!-- Cambridge, MA (11/04/2017) -->
    <defs>
     <path d="M 52 44.1875 
Q 55.375 50.25 60.0625 53.125 
Q 64.75 56 71.09375 56 
Q 79.640625 56 84.28125 50.015625 
Q 88.921875 44.046875 88.921875 33.015625 
L 88.921875 0 
L 79.890625 0 
L 79.890625 32.71875 
Q 79.890625 40.578125 77.09375 44.375 
Q 74.3125 48.1875 68.609375 48.1875 
Q 61.625 48.1875 57.5625 43.546875 
Q 53.515625 38.921875 53.515625 30.90625 
L 53.515625 0 
L 44.484375 0 
L 44.484375 32.71875 
Q 44.484375 40.625 41.703125 44.40625 
Q 38.921875 48.1875 33.109375 48.1875 
Q 26.21875 48.1875 22.15625 43.53125 
Q 18.109375 38.875 18.109375 30.90625 
L 18.109375 0 
L 9.078125 0 
L 9.078125 54.6875 
L 18.109375 54.6875 
L 18.109375 46.1875 
Q 21.1875 51.21875 25.484375 53.609375 
Q 29.78125 56 35.6875 56 
Q 41.65625 56 45.828125 52.96875 
Q 50 49.953125 52 44.1875 
z
" id="DejaVuSans-6d"/>
     <path d="M 48.6875 27.296875 
Q 48.6875 37.203125 44.609375 42.84375 
Q 40.53125 48.484375 33.40625 48.484375 
Q 26.265625 48.484375 22.1875 42.84375 
Q 18.109375 37.203125 18.109375 27.296875 
Q 18.109375 17.390625 22.1875 11.75 
Q 26.265625 6.109375 33.40625 6.109375 
Q 40.53125 6.109375 44.609375 11.75 
Q 48.6875 17.390625 48.6875 27.296875 
z
M 18.109375 46.390625 
Q 20.953125 51.265625 25.265625 53.625 
Q 29.59375 56 35.59375 56 
Q 45.5625 56 51.78125 48.09375 
Q 58.015625 40.1875 58.015625 27.296875 
Q 58.015625 14.40625 51.78125 6.484375 
Q 45.5625 -1.421875 35.59375 -1.421875 
Q 29.59375 -1.421875 25.265625 0.953125 
Q 20.953125 3.328125 18.109375 8.203125 
L 18.109375 0 
L 9.078125 0 
L 9.078125 75.984375 
L 18.109375 75.984375 
z
" id="DejaVuSans-62"/>
     <path d="M 11.71875 12.40625 
L 22.015625 12.40625 
L 22.015625 4 
L 14.015625 -11.625 
L 7.71875 -11.625 
L 11.71875 4 
z
" id="DejaVuSans-2c"/>
     <path d="M 9.8125 72.90625 
L 24.515625 72.90625 
L 43.109375 23.296875 
L 61.8125 72.90625 
L 76.515625 72.90625 
L 76.515625 0 
L 66.890625 0 
L 66.890625 64.015625 
L 48.09375 14.015625 
L 38.1875 14.015625 
L 19.390625 64.015625 
L 19.390625 0 
L 9.8125 0 
z
" id="DejaVuSans-4d"/>
     <path d="M 34.1875 63.1875 
L 20.796875 26.90625 
L 47.609375 26.90625 
z
M 28.609375 72.90625 
L 39.796875 72.90625 
L 67.578125 0 
L 57.328125 0 
L 50.6875 18.703125 
L 17.828125 18.703125 
L 11.1875 0 
L 0.78125 0 
z
" id="DejaVuSans-41"/>
     <path d="M 31 75.875 
Q 24.46875 64.65625 21.28125 53.65625 
Q 18.109375 42.671875 18.109375 31.390625 
Q 18.109375 20.125 21.3125 9.0625 
Q 24.515625 -2 31 -13.1875 
L 23.1875 -13.1875 
Q 15.875 -1.703125 12.234375 9.375 
Q 8.59375 20.453125 8.59375 31.390625 
Q 8.59375 42.28125 12.203125 53.3125 
Q 15.828125 64.359375 23.1875 75.875 
z
" id="DejaVuSans-28"/>
     <path d="M 25.390625 72.90625 
L 33.6875 72.90625 
L 8.296875 -9.28125 
L 0 -9.28125 
z
" id="DejaVuSans-2f"/>
     <path d="M 8.015625 75.875 
L 15.828125 75.875 
Q 23.140625 64.359375 26.78125 53.3125 
Q 30.421875 42.28125 30.421875 31.390625 
Q 30.421875 20.453125 26.78125 9.375 
Q 23.140625 -1.703125 15.828125 -13.1875 
L 8.015625 -13.1875 
Q 14.5 -2 17.703125 9.0625 
Q 20.90625 20.125 20.90625 31.390625 
Q 20.90625 42.671875 17.703125 53.65625 
Q 14.5 64.65625 8.015625 75.875 
z
" id="DejaVuSans-29"/>
    </defs>
    <g transform="translate(607.927187 78.784)scale(0.2 -0.2)">
     <use xlink:href="#DejaVuSans-43"/>
     <use x="69.824219" xlink:href="#DejaVuSans-61"/>
     <use x="131.103516" xlink:href="#DejaVuSans-6d"/>
     <use x="228.515625" xlink:href="#DejaVuSans-62"/>
     <use x="291.992188" xlink:href="#DejaVuSans-72"/>
     <use x="333.105469" xlink:href="#DejaVuSans-69"/>
     <use x="360.888672" xlink:href="#DejaVuSans-64"/>
     <use x="424.365234" xlink:href="#DejaVuSans-67"/>
     <use x="487.841797" xlink:href="#DejaVuSans-65"/>
     <use x="549.365234" xlink:href="#DejaVuSans-2c"/>
     <use x="581.152344" xlink:href="#DejaVuSans-20"/>
     <use x="612.939453" xlink:href="#DejaVuSans-4d"/>
     <use x="699.21875" xlink:href="#DejaVuSans-41"/>
     <use x="767.626953" xlink:href="#DejaVuSans-20"/>
     <use x="799.414062" xlink:href="#DejaVuSans-28"/>
     <use x="838.427734" xlink:href="#DejaVuSans-31"/>
     <use x="902.050781" xlink:href="#DejaVuSans-31"/>
     <use x="965.673828" xlink:href="#DejaVuSans-2f"/>
     <use x="999.365234" xlink:href="#DejaVuSans-30"/>
     <use x="1062.988281" xlink:href="#DejaVuSans-34"/>
     <use x="1126.611328" xlink:href="#DejaVuSans-2f"/>
     <use x="1160.302734" xlink:href="#DejaVuSans-32"/>
     <use x="1223.925781" xlink:href="#DejaVuSans-30"/>
     <use x="1287.548828" xlink:href="#DejaVuSans-31"/>
     <use x="1351.171875" xlink:href="#DejaVuSans-37"/>
     <use x="1414.794922" xlink:href="#DejaVuSans-29"/>
    </g>
   </g>
   <g id="text_18">
    <!-- cambridgecouncilcandidates.com -->
    <defs>
     <path d="M 10.6875 12.40625 
L 21 12.40625 
L 21 0 
L 10.6875 0 
z
" id="DejaVuSans-2e"/>
    </defs>
    <g transform="translate(1063.3702 648.3208)scale(0.2 -0.2)">
     <use xlink:href="#DejaVuSans-63"/>
     <use x="54.980469" xlink:href="#DejaVuSans-61"/>
     <use x="116.259766" xlink:href="#DejaVuSans-6d"/>
     <use x="213.671875" xlink:href="#DejaVuSans-62"/>
     <use x="277.148438" xlink:href="#DejaVuSans-72"/>
     <use x="318.261719" xlink:href="#DejaVuSans-69"/>
     <use x="346.044922" xlink:href="#DejaVuSans-64"/>
     <use x="409.521484" xlink:href="#DejaVuSans-67"/>
     <use x="472.998047" xlink:href="#DejaVuSans-65"/>
     <use x="534.521484" xlink:href="#DejaVuSans-63"/>
     <use x="589.501953" xlink:href="#DejaVuSans-6f"/>
     <use x="650.683594" xlink:href="#DejaVuSans-75"/>
     <use x="714.0625" xlink:href="#DejaVuSans-6e"/>
     <use x="777.441406" xlink:href="#DejaVuSans-63"/>
     <use x="832.421875" xlink:href="#DejaVuSans-69"/>
     <use x="860.205078" xlink:href="#DejaVuSans-6c"/>
     <use x="887.988281" xlink:href="#DejaVuSans-63"/>
     <use x="942.96875" xlink:href="#DejaVuSans-61"/>
     <use x="1004.248047" xlink:href="#DejaVuSans-6e"/>
     <use x="1067.626953" xlink:href="#DejaVuSans-64"/>
     <use x="1131.103516" xlink:href="#DejaVuSans-69"/>
     <use x="1158.886719" xlink:href="#DejaVuSans-64"/>
     <use x="1222.363281" xlink:href="#DejaVuSans-61"/>
     <use x="1283.642578" xlink:href="#DejaVuSans-74"/>
     <use x="1322.851562" xlink:href="#DejaVuSans-65"/>
     <use x="1384.375" xlink:href="#DejaVuSans-73"/>
     <use x="1436.474609" xlink:href="#DejaVuSans-2e"/>
     <use x="1468.261719" xlink:href="#DejaVuSans-63"/>
     <use x="1523.242188" xlink:href="#DejaVuSans-6f"/>
     <use x="1584.423828" xlink:href="#DejaVuSans-6d"/>
    </g>
   </g>
   <g id="text_19">
    <!-- $8k -->
    <defs>
     <path d="M 38.8125 -14.703125 
L 30.90625 -14.703125 
L 30.859375 0 
Q 24.75 0.25 19.03125 1.359375 
Q 13.328125 2.484375 7.90625 4.5 
L 7.90625 17.28125 
Q 13.53125 14.40625 19.265625 12.859375 
Q 25 11.328125 30.90625 11.140625 
L 30.90625 26.3125 
L 29.296875 26.609375 
Q 17.625 28.65625 12.71875 33.046875 
Q 7.8125 37.453125 7.8125 45.703125 
Q 7.8125 54.4375 13.796875 59.34375 
Q 19.78125 64.265625 30.859375 64.703125 
L 30.90625 75.984375 
L 38.8125 75.984375 
L 38.8125 64.890625 
Q 43.703125 64.5 48.578125 63.671875 
Q 53.46875 62.84375 58.40625 61.53125 
L 58.40625 49.125 
Q 53.515625 51.171875 48.625 52.3125 
Q 43.75 53.46875 38.8125 53.71875 
L 38.8125 39.703125 
L 40.375 39.40625 
Q 52.78125 37.453125 57.78125 32.890625 
Q 62.796875 28.328125 62.796875 19.390625 
Q 62.796875 10.40625 56.828125 5.59375 
Q 50.875 0.78125 38.8125 0.09375 
z
M 30.90625 40.828125 
L 30.90625 53.5625 
Q 27.4375 53.375 25.359375 51.6875 
Q 23.296875 50 23.296875 47.40625 
Q 23.296875 44.53125 25.1875 42.890625 
Q 27.09375 41.265625 30.90625 40.828125 
z
M 38.8125 24.90625 
L 38.8125 11.328125 
Q 43.0625 11.375 45.1875 12.984375 
Q 47.3125 14.59375 47.3125 17.828125 
Q 47.3125 21.140625 45.359375 22.78125 
Q 43.40625 24.421875 38.8125 24.90625 
z
" id="DejaVuSans-Bold-24"/>
     <path d="M 34.8125 32.625 
Q 29.546875 32.625 26.703125 29.734375 
Q 23.875 26.859375 23.875 21.484375 
Q 23.875 16.109375 26.703125 13.25 
Q 29.546875 10.40625 34.8125 10.40625 
Q 40.046875 10.40625 42.828125 13.25 
Q 45.609375 16.109375 45.609375 21.484375 
Q 45.609375 26.90625 42.828125 29.765625 
Q 40.046875 32.625 34.8125 32.625 
z
M 21.09375 38.8125 
Q 14.453125 40.828125 11.078125 44.96875 
Q 7.71875 49.125 7.71875 55.328125 
Q 7.71875 64.546875 14.59375 69.375 
Q 21.484375 74.21875 34.8125 74.21875 
Q 48.046875 74.21875 54.921875 69.40625 
Q 61.8125 64.59375 61.8125 55.328125 
Q 61.8125 49.125 58.421875 44.96875 
Q 55.03125 40.828125 48.390625 38.8125 
Q 55.8125 36.765625 59.59375 32.15625 
Q 63.375 27.546875 63.375 20.515625 
Q 63.375 9.671875 56.171875 4.125 
Q 48.96875 -1.421875 34.8125 -1.421875 
Q 20.609375 -1.421875 13.359375 4.125 
Q 6.109375 9.671875 6.109375 20.515625 
Q 6.109375 27.546875 9.890625 32.15625 
Q 13.671875 36.765625 21.09375 38.8125 
z
M 25.484375 53.421875 
Q 25.484375 49.078125 27.90625 46.734375 
Q 30.328125 44.390625 34.8125 44.390625 
Q 39.203125 44.390625 41.59375 46.734375 
Q 44 49.078125 44 53.421875 
Q 44 57.765625 41.59375 60.078125 
Q 39.203125 62.40625 34.8125 62.40625 
Q 30.328125 62.40625 27.90625 60.0625 
Q 25.484375 57.71875 25.484375 53.421875 
z
" id="DejaVuSans-Bold-38"/>
     <path d="M 8.40625 75.984375 
L 25.875 75.984375 
L 25.875 34.625 
L 46 54.6875 
L 66.3125 54.6875 
L 39.59375 29.59375 
L 68.40625 0 
L 47.21875 0 
L 25.875 22.796875 
L 25.875 0 
L 8.40625 0 
z
" id="DejaVuSans-Bold-6b"/>
    </defs>
    <g transform="translate(678.788619 351.8233)scale(0.078971 -0.078971)">
     <use xlink:href="#DejaVuSans-Bold-24"/>
     <use x="69.580078" xlink:href="#DejaVuSans-Bold-38"/>
     <use x="139.160156" xlink:href="#DejaVuSans-Bold-6b"/>
    </g>
   </g>
   <g id="text_20">
    <!-- Musgrave -->
    <defs>
     <path d="M 2.984375 54.6875 
L 12.5 54.6875 
L 29.59375 8.796875 
L 46.6875 54.6875 
L 56.203125 54.6875 
L 35.6875 0 
L 23.484375 0 
z
" id="DejaVuSans-76"/>
    </defs>
    <g transform="translate(661.909013 331.421572)scale(0.1 -0.1)">
     <use xlink:href="#DejaVuSans-4d"/>
     <use x="86.279297" xlink:href="#DejaVuSans-75"/>
     <use x="149.658203" xlink:href="#DejaVuSans-73"/>
     <use x="201.757812" xlink:href="#DejaVuSans-67"/>
     <use x="265.234375" xlink:href="#DejaVuSans-72"/>
     <use x="306.347656" xlink:href="#DejaVuSans-61"/>
     <use x="367.626953" xlink:href="#DejaVuSans-76"/>
     <use x="426.806641" xlink:href="#DejaVuSans-65"/>
    </g>
   </g>
   <g id="text_21">
    <!-- $8k -->
    <g transform="translate(598.038493 379.267415)scale(0.078351 -0.078351)">
     <use xlink:href="#DejaVuSans-Bold-24"/>
     <use x="69.580078" xlink:href="#DejaVuSans-Bold-38"/>
     <use x="139.160156" xlink:href="#DejaVuSans-Bold-6b"/>
    </g>
   </g>
   <g id="patch_7">
    <path d="M 619.664722 359.947314 
Q 613.500289 367.741976 608.029385 374.659701 
" style="fill:none;stroke:#7fc97f;stroke-linecap:round;"/>
    <path d="M 612.07934 372.762897 
L 608.029385 374.659701 
L 608.941915 370.281655 
" style="fill:none;stroke:#7fc97f;stroke-linecap:round;"/>
   </g>
   <g id="text_22">
    <!-- Harding -->
    <defs>
     <path d="M 9.8125 72.90625 
L 19.671875 72.90625 
L 19.671875 43.015625 
L 55.515625 43.015625 
L 55.515625 72.90625 
L 65.375 72.90625 
L 65.375 0 
L 55.515625 0 
L 55.515625 34.71875 
L 19.671875 34.71875 
L 19.671875 0 
L 9.8125 0 
z
" id="DejaVuSans-48"/>
    </defs>
    <g transform="translate(606.529537 354.298084)scale(0.1 -0.1)">
     <use xlink:href="#DejaVuSans-48"/>
     <use x="75.195312" xlink:href="#DejaVuSans-61"/>
     <use x="136.474609" xlink:href="#DejaVuSans-72"/>
     <use x="177.572266" xlink:href="#DejaVuSans-64"/>
     <use x="241.048828" xlink:href="#DejaVuSans-69"/>
     <use x="268.832031" xlink:href="#DejaVuSans-6e"/>
     <use x="332.210938" xlink:href="#DejaVuSans-67"/>
    </g>
   </g>
   <g id="text_23">
    <!-- Lenke($210) -->
    <defs>
     <path d="M 9.8125 72.90625 
L 19.671875 72.90625 
L 19.671875 8.296875 
L 55.171875 8.296875 
L 55.171875 0 
L 9.8125 0 
z
" id="DejaVuSans-4c"/>
     <path d="M 9.078125 75.984375 
L 18.109375 75.984375 
L 18.109375 31.109375 
L 44.921875 54.6875 
L 56.390625 54.6875 
L 27.390625 29.109375 
L 57.625 0 
L 45.90625 0 
L 18.109375 26.703125 
L 18.109375 0 
L 9.078125 0 
z
" id="DejaVuSans-6b"/>
    </defs>
    <g transform="translate(108.108556 611.847358)scale(0.1 -0.1)">
     <use xlink:href="#DejaVuSans-4c"/>
     <use x="55.697266" xlink:href="#DejaVuSans-65"/>
     <use x="117.220703" xlink:href="#DejaVuSans-6e"/>
     <use x="180.599609" xlink:href="#DejaVuSans-6b"/>
     <use x="238.462891" xlink:href="#DejaVuSans-65"/>
     <use x="299.986328" xlink:href="#DejaVuSans-28"/>
     <use x="339" xlink:href="#DejaVuSans-24"/>
     <use x="402.623047" xlink:href="#DejaVuSans-32"/>
     <use x="466.246094" xlink:href="#DejaVuSans-31"/>
     <use x="529.869141" xlink:href="#DejaVuSans-30"/>
     <use x="593.492188" xlink:href="#DejaVuSans-29"/>
    </g>
   </g>
   <g id="text_24">
    <!-- $26k -->
    <defs>
     <path d="M 28.8125 13.8125 
L 60.890625 13.8125 
L 60.890625 0 
L 7.90625 0 
L 7.90625 13.8125 
L 34.515625 37.3125 
Q 38.09375 40.53125 39.796875 43.609375 
Q 41.5 46.6875 41.5 50 
Q 41.5 55.125 38.0625 58.25 
Q 34.625 61.375 28.90625 61.375 
Q 24.515625 61.375 19.28125 59.5 
Q 14.0625 57.625 8.109375 53.90625 
L 8.109375 69.921875 
Q 14.453125 72.015625 20.65625 73.109375 
Q 26.859375 74.21875 32.8125 74.21875 
Q 45.90625 74.21875 53.15625 68.453125 
Q 60.40625 62.703125 60.40625 52.390625 
Q 60.40625 46.4375 57.328125 41.28125 
Q 54.25 36.140625 44.390625 27.484375 
z
" id="DejaVuSans-Bold-32"/>
     <path d="M 36.1875 35.984375 
Q 31.25 35.984375 28.78125 32.78125 
Q 26.3125 29.59375 26.3125 23.1875 
Q 26.3125 16.796875 28.78125 13.59375 
Q 31.25 10.40625 36.1875 10.40625 
Q 41.15625 10.40625 43.625 13.59375 
Q 46.09375 16.796875 46.09375 23.1875 
Q 46.09375 29.59375 43.625 32.78125 
Q 41.15625 35.984375 36.1875 35.984375 
z
M 59.421875 71 
L 59.421875 57.515625 
Q 54.78125 59.71875 50.671875 60.765625 
Q 46.578125 61.8125 42.671875 61.8125 
Q 34.28125 61.8125 29.59375 57.140625 
Q 24.90625 52.484375 24.125 43.3125 
Q 27.34375 45.703125 31.09375 46.890625 
Q 34.859375 48.09375 39.3125 48.09375 
Q 50.484375 48.09375 57.34375 41.546875 
Q 64.203125 35.015625 64.203125 24.421875 
Q 64.203125 12.703125 56.53125 5.640625 
Q 48.875 -1.421875 35.984375 -1.421875 
Q 21.78125 -1.421875 13.984375 8.171875 
Q 6.203125 17.78125 6.203125 35.40625 
Q 6.203125 53.46875 15.3125 63.796875 
Q 24.421875 74.125 40.28125 74.125 
Q 45.3125 74.125 50.046875 73.34375 
Q 54.78125 72.5625 59.421875 71 
z
" id="DejaVuSans-Bold-36"/>
    </defs>
    <g transform="translate(594.331025 407.995451)scale(0.105717 -0.105717)">
     <use xlink:href="#DejaVuSans-Bold-24"/>
     <use x="69.580078" xlink:href="#DejaVuSans-Bold-32"/>
     <use x="139.160156" xlink:href="#DejaVuSans-Bold-36"/>
     <use x="208.740234" xlink:href="#DejaVuSans-Bold-6b"/>
    </g>
   </g>
   <g id="patch_8">
    <path d="M 608.875022 403.646166 
Q 608.877254 404.362246 608.876001 403.960297 
" style="fill:none;stroke:#beaed4;stroke-linecap:round;"/>
    <path d="M 610.863527 399.954084 
L 608.876001 403.960297 
L 606.863547 399.966548 
" style="fill:none;stroke:#beaed4;stroke-linecap:round;"/>
   </g>
   <g id="text_25">
    <!-- Carlone -->
    <g transform="translate(589.542777 397.561796)scale(0.1 -0.1)">
     <use xlink:href="#DejaVuSans-43"/>
     <use x="69.824219" xlink:href="#DejaVuSans-61"/>
     <use x="131.103516" xlink:href="#DejaVuSans-72"/>
     <use x="172.216797" xlink:href="#DejaVuSans-6c"/>
     <use x="200" xlink:href="#DejaVuSans-6f"/>
     <use x="261.181641" xlink:href="#DejaVuSans-6e"/>
     <use x="324.560547" xlink:href="#DejaVuSans-65"/>
    </g>
   </g>
   <g id="patch_9">
    <path d="M 273.621279 554.905602 
Q 272.110213 558.454337 271.037157 560.974409 
" style="fill:none;stroke:#beaed4;stroke-linecap:round;"/>
    <path d="M 274.444354 558.077685 
L 271.037157 560.974409 
L 270.764096 556.510617 
" style="fill:none;stroke:#beaed4;stroke-linecap:round;"/>
   </g>
   <g id="text_26">
    <!-- Okamoto($3k) -->
    <g transform="translate(241.314213 548.98479)scale(0.1 -0.1)">
     <use xlink:href="#DejaVuSans-4f"/>
     <use x="78.710938" xlink:href="#DejaVuSans-6b"/>
     <use x="136.605469" xlink:href="#DejaVuSans-61"/>
     <use x="197.884766" xlink:href="#DejaVuSans-6d"/>
     <use x="295.296875" xlink:href="#DejaVuSans-6f"/>
     <use x="356.478516" xlink:href="#DejaVuSans-74"/>
     <use x="395.6875" xlink:href="#DejaVuSans-6f"/>
     <use x="456.869141" xlink:href="#DejaVuSans-28"/>
     <use x="495.882812" xlink:href="#DejaVuSans-24"/>
     <use x="559.505859" xlink:href="#DejaVuSans-33"/>
     <use x="623.128906" xlink:href="#DejaVuSans-6b"/>
     <use x="681.039062" xlink:href="#DejaVuSans-29"/>
    </g>
   </g>
   <g id="patch_10">
    <path d="M 342.218757 500.561545 
Q 337.513194 506.608992 333.494219 511.774057 
" style="fill:none;stroke:#beaed4;stroke-linecap:round;"/>
    <path d="M 337.529082 509.845357 
L 333.494219 511.774057 
L 334.372177 507.388947 
" style="fill:none;stroke:#beaed4;stroke-linecap:round;"/>
   </g>
   <g id="text_27">
    <!-- Volmar($2k) -->
    <defs>
     <path d="M 28.609375 0 
L 0.78125 72.90625 
L 11.078125 72.90625 
L 34.1875 11.53125 
L 57.328125 72.90625 
L 67.578125 72.90625 
L 39.796875 0 
z
" id="DejaVuSans-56"/>
    </defs>
    <g transform="translate(317.754629 494.90515)scale(0.1 -0.1)">
     <use xlink:href="#DejaVuSans-56"/>
     <use x="68.298828" xlink:href="#DejaVuSans-6f"/>
     <use x="129.480469" xlink:href="#DejaVuSans-6c"/>
     <use x="157.263672" xlink:href="#DejaVuSans-6d"/>
     <use x="254.675781" xlink:href="#DejaVuSans-61"/>
     <use x="315.955078" xlink:href="#DejaVuSans-72"/>
     <use x="357.068359" xlink:href="#DejaVuSans-28"/>
     <use x="396.082031" xlink:href="#DejaVuSans-24"/>
     <use x="459.705078" xlink:href="#DejaVuSans-32"/>
     <use x="523.328125" xlink:href="#DejaVuSans-6b"/>
     <use x="581.238281" xlink:href="#DejaVuSans-29"/>
    </g>
   </g>
   <g id="text_28">
    <!-- Santos($1k) -->
    <g transform="translate(272.580305 518.620448)scale(0.1 -0.1)">
     <use xlink:href="#DejaVuSans-53"/>
     <use x="63.476562" xlink:href="#DejaVuSans-61"/>
     <use x="124.755859" xlink:href="#DejaVuSans-6e"/>
     <use x="188.134766" xlink:href="#DejaVuSans-74"/>
     <use x="227.34375" xlink:href="#DejaVuSans-6f"/>
     <use x="288.525391" xlink:href="#DejaVuSans-73"/>
     <use x="340.625" xlink:href="#DejaVuSans-28"/>
     <use x="379.638672" xlink:href="#DejaVuSans-24"/>
     <use x="443.261719" xlink:href="#DejaVuSans-31"/>
     <use x="506.884766" xlink:href="#DejaVuSans-6b"/>
     <use x="564.794922" xlink:href="#DejaVuSans-29"/>
    </g>
   </g>
   <g id="text_29">
    <!-- $38k -->
    <defs>
     <path d="M 46.578125 39.3125 
Q 53.953125 37.40625 57.78125 32.6875 
Q 61.625 27.984375 61.625 20.703125 
Q 61.625 9.859375 53.3125 4.21875 
Q 45.015625 -1.421875 29.109375 -1.421875 
Q 23.484375 -1.421875 17.84375 -0.515625 
Q 12.203125 0.390625 6.6875 2.203125 
L 6.6875 16.703125 
Q 11.96875 14.0625 17.15625 12.71875 
Q 22.359375 11.375 27.390625 11.375 
Q 34.859375 11.375 38.84375 13.953125 
Q 42.828125 16.546875 42.828125 21.390625 
Q 42.828125 26.375 38.75 28.9375 
Q 34.671875 31.5 26.703125 31.5 
L 19.1875 31.5 
L 19.1875 43.609375 
L 27.09375 43.609375 
Q 34.1875 43.609375 37.640625 45.828125 
Q 41.109375 48.046875 41.109375 52.59375 
Q 41.109375 56.78125 37.734375 59.078125 
Q 34.375 61.375 28.21875 61.375 
Q 23.6875 61.375 19.046875 60.34375 
Q 14.40625 59.328125 9.8125 57.328125 
L 9.8125 71.09375 
Q 15.375 72.65625 20.84375 73.4375 
Q 26.3125 74.21875 31.59375 74.21875 
Q 45.796875 74.21875 52.84375 69.546875 
Q 59.90625 64.890625 59.90625 55.515625 
Q 59.90625 49.125 56.53125 45.046875 
Q 53.171875 40.96875 46.578125 39.3125 
z
" id="DejaVuSans-Bold-33"/>
    </defs>
    <g transform="translate(1080.807757 379.782197)scale(0.116256 -0.116256)">
     <use xlink:href="#DejaVuSans-Bold-24"/>
     <use x="69.580078" xlink:href="#DejaVuSans-Bold-33"/>
     <use x="139.160156" xlink:href="#DejaVuSans-Bold-38"/>
     <use x="208.740234" xlink:href="#DejaVuSans-Bold-6b"/>
    </g>
   </g>
   <g id="text_30">
    <!-- Toomey -->
    <defs>
     <path d="M -0.296875 72.90625 
L 61.375 72.90625 
L 61.375 64.59375 
L 35.5 64.59375 
L 35.5 0 
L 25.59375 0 
L 25.59375 64.59375 
L -0.296875 64.59375 
z
" id="DejaVuSans-54"/>
    </defs>
    <g transform="translate(1071.806648 337.081689)scale(0.1 -0.1)">
     <use xlink:href="#DejaVuSans-54"/>
     <use x="60.818359" xlink:href="#DejaVuSans-6f"/>
     <use x="122" xlink:href="#DejaVuSans-6f"/>
     <use x="183.181641" xlink:href="#DejaVuSans-6d"/>
     <use x="280.59375" xlink:href="#DejaVuSans-65"/>
     <use x="342.117188" xlink:href="#DejaVuSans-79"/>
    </g>
   </g>
   <g id="text_31">
    <!-- Sivongxay($3k) -->
    <defs>
     <path d="M 54.890625 54.6875 
L 35.109375 28.078125 
L 55.90625 0 
L 45.3125 0 
L 29.390625 21.484375 
L 13.484375 0 
L 2.875 0 
L 24.125 28.609375 
L 4.6875 54.6875 
L 15.28125 54.6875 
L 29.78125 35.203125 
L 44.28125 54.6875 
z
" id="DejaVuSans-78"/>
    </defs>
    <g transform="translate(674.657236 275.493354)scale(0.1 -0.1)">
     <use xlink:href="#DejaVuSans-53"/>
     <use x="63.476562" xlink:href="#DejaVuSans-69"/>
     <use x="91.259766" xlink:href="#DejaVuSans-76"/>
     <use x="150.439453" xlink:href="#DejaVuSans-6f"/>
     <use x="211.621094" xlink:href="#DejaVuSans-6e"/>
     <use x="275" xlink:href="#DejaVuSans-67"/>
     <use x="338.476562" xlink:href="#DejaVuSans-78"/>
     <use x="397.65625" xlink:href="#DejaVuSans-61"/>
     <use x="458.935547" xlink:href="#DejaVuSans-79"/>
     <use x="518.115234" xlink:href="#DejaVuSans-28"/>
     <use x="557.128906" xlink:href="#DejaVuSans-24"/>
     <use x="620.751953" xlink:href="#DejaVuSans-33"/>
     <use x="684.375" xlink:href="#DejaVuSans-6b"/>
     <use x="742.285156" xlink:href="#DejaVuSans-29"/>
    </g>
   </g>
   <g id="text_32">
    <!-- $11k -->
    <defs>
     <path d="M 11.71875 12.984375 
L 28.328125 12.984375 
L 28.328125 60.109375 
L 11.28125 56.59375 
L 11.28125 69.390625 
L 28.21875 72.90625 
L 46.09375 72.90625 
L 46.09375 12.984375 
L 62.703125 12.984375 
L 62.703125 0 
L 11.71875 0 
z
" id="DejaVuSans-Bold-31"/>
    </defs>
    <g transform="translate(1015.470406 163.919781)scale(0.08481 -0.08481)">
     <use xlink:href="#DejaVuSans-Bold-24"/>
     <use x="69.580078" xlink:href="#DejaVuSans-Bold-31"/>
     <use x="139.160156" xlink:href="#DejaVuSans-Bold-31"/>
     <use x="208.740234" xlink:href="#DejaVuSans-Bold-6b"/>
    </g>
   </g>
   <g id="text_33">
    <!-- Mallon -->
    <g transform="translate(1002.14174 140.562273)scale(0.1 -0.1)">
     <use xlink:href="#DejaVuSans-4d"/>
     <use x="86.279297" xlink:href="#DejaVuSans-61"/>
     <use x="147.558594" xlink:href="#DejaVuSans-6c"/>
     <use x="175.341797" xlink:href="#DejaVuSans-6c"/>
     <use x="203.125" xlink:href="#DejaVuSans-6f"/>
     <use x="264.306641" xlink:href="#DejaVuSans-6e"/>
    </g>
   </g>
   <g id="text_34">
    <!-- $18k -->
    <g transform="translate(839.155408 360.67377)scale(0.096904 -0.096904)">
     <use xlink:href="#DejaVuSans-Bold-24"/>
     <use x="69.580078" xlink:href="#DejaVuSans-Bold-31"/>
     <use x="139.160156" xlink:href="#DejaVuSans-Bold-38"/>
     <use x="208.740234" xlink:href="#DejaVuSans-Bold-6b"/>
    </g>
   </g>
   <g id="text_35">
    <!-- Siddiqui -->
    <defs>
     <path d="M 14.796875 27.296875 
Q 14.796875 17.390625 18.875 11.75 
Q 22.953125 6.109375 30.078125 6.109375 
Q 37.203125 6.109375 41.296875 11.75 
Q 45.40625 17.390625 45.40625 27.296875 
Q 45.40625 37.203125 41.296875 42.84375 
Q 37.203125 48.484375 30.078125 48.484375 
Q 22.953125 48.484375 18.875 42.84375 
Q 14.796875 37.203125 14.796875 27.296875 
z
M 45.40625 8.203125 
Q 42.578125 3.328125 38.25 0.953125 
Q 33.9375 -1.421875 27.875 -1.421875 
Q 17.96875 -1.421875 11.734375 6.484375 
Q 5.515625 14.40625 5.515625 27.296875 
Q 5.515625 40.1875 11.734375 48.09375 
Q 17.96875 56 27.875 56 
Q 33.9375 56 38.25 53.625 
Q 42.578125 51.265625 45.40625 46.390625 
L 45.40625 54.6875 
L 54.390625 54.6875 
L 54.390625 -20.796875 
L 45.40625 -20.796875 
z
" id="DejaVuSans-71"/>
    </defs>
    <g transform="translate(827.491016 330.561286)scale(0.1 -0.1)">
     <use xlink:href="#DejaVuSans-53"/>
     <use x="63.476562" xlink:href="#DejaVuSans-69"/>
     <use x="91.259766" xlink:href="#DejaVuSans-64"/>
     <use x="154.736328" xlink:href="#DejaVuSans-64"/>
     <use x="218.212891" xlink:href="#DejaVuSans-69"/>
     <use x="245.996094" xlink:href="#DejaVuSans-71"/>
     <use x="309.472656" xlink:href="#DejaVuSans-75"/>
     <use x="372.851562" xlink:href="#DejaVuSans-69"/>
    </g>
   </g>
   <g id="text_36">
    <!-- $6k -->
    <g transform="translate(311.47999 561.612138)scale(0.072976 -0.072976)">
     <use xlink:href="#DejaVuSans-Bold-24"/>
     <use x="69.580078" xlink:href="#DejaVuSans-Bold-36"/>
     <use x="139.160156" xlink:href="#DejaVuSans-Bold-6b"/>
    </g>
   </g>
   <g id="patch_11">
    <path d="M 315.496316 569.9356 
Q 316.920409 565.714686 317.987084 562.553135 
" style="fill:none;stroke:#ffff99;stroke-linecap:round;"/>
    <path d="M 314.813297 565.703861 
L 317.987084 562.553135 
L 318.603392 566.982601 
" style="fill:none;stroke:#ffff99;stroke-linecap:round;"/>
   </g>
   <g id="text_37">
    <!-- Levy -->
    <g transform="translate(300.76787 581.432575)scale(0.1 -0.1)">
     <use xlink:href="#DejaVuSans-4c"/>
     <use x="55.697266" xlink:href="#DejaVuSans-65"/>
     <use x="117.220703" xlink:href="#DejaVuSans-76"/>
     <use x="176.400391" xlink:href="#DejaVuSans-79"/>
    </g>
   </g>
   <g id="text_38">
    <!-- Burgin($148) -->
    <defs>
     <path d="M 31.78125 34.625 
Q 24.75 34.625 20.71875 30.859375 
Q 16.703125 27.09375 16.703125 20.515625 
Q 16.703125 13.921875 20.71875 10.15625 
Q 24.75 6.390625 31.78125 6.390625 
Q 38.8125 6.390625 42.859375 10.171875 
Q 46.921875 13.96875 46.921875 20.515625 
Q 46.921875 27.09375 42.890625 30.859375 
Q 38.875 34.625 31.78125 34.625 
z
M 21.921875 38.8125 
Q 15.578125 40.375 12.03125 44.71875 
Q 8.5 49.078125 8.5 55.328125 
Q 8.5 64.0625 14.71875 69.140625 
Q 20.953125 74.21875 31.78125 74.21875 
Q 42.671875 74.21875 48.875 69.140625 
Q 55.078125 64.0625 55.078125 55.328125 
Q 55.078125 49.078125 51.53125 44.71875 
Q 48 40.375 41.703125 38.8125 
Q 48.828125 37.15625 52.796875 32.3125 
Q 56.78125 27.484375 56.78125 20.515625 
Q 56.78125 9.90625 50.3125 4.234375 
Q 43.84375 -1.421875 31.78125 -1.421875 
Q 19.734375 -1.421875 13.25 4.234375 
Q 6.78125 9.90625 6.78125 20.515625 
Q 6.78125 27.484375 10.78125 32.3125 
Q 14.796875 37.15625 21.921875 38.8125 
z
M 18.3125 54.390625 
Q 18.3125 48.734375 21.84375 45.5625 
Q 25.390625 42.390625 31.78125 42.390625 
Q 38.140625 42.390625 41.71875 45.5625 
Q 45.3125 48.734375 45.3125 54.390625 
Q 45.3125 60.0625 41.71875 63.234375 
Q 38.140625 66.40625 31.78125 66.40625 
Q 25.390625 66.40625 21.84375 63.234375 
Q 18.3125 60.0625 18.3125 54.390625 
z
" id="DejaVuSans-38"/>
    </defs>
    <g transform="translate(481.77904 373.715935)scale(0.1 -0.1)">
     <use xlink:href="#DejaVuSans-42"/>
     <use x="68.603516" xlink:href="#DejaVuSans-75"/>
     <use x="131.982422" xlink:href="#DejaVuSans-72"/>
     <use x="173.080078" xlink:href="#DejaVuSans-67"/>
     <use x="236.556641" xlink:href="#DejaVuSans-69"/>
     <use x="264.339844" xlink:href="#DejaVuSans-6e"/>
     <use x="327.71875" xlink:href="#DejaVuSans-28"/>
     <use x="366.732422" xlink:href="#DejaVuSans-24"/>
     <use x="430.355469" xlink:href="#DejaVuSans-31"/>
     <use x="493.978516" xlink:href="#DejaVuSans-34"/>
     <use x="557.601562" xlink:href="#DejaVuSans-38"/>
     <use x="621.224609" xlink:href="#DejaVuSans-29"/>
    </g>
   </g>
   <g id="text_39">
    <!-- $23k -->
    <g transform="translate(1179.422398 30.697268)scale(0.10226 -0.10226)">
     <use xlink:href="#DejaVuSans-Bold-24"/>
     <use x="69.580078" xlink:href="#DejaVuSans-Bold-32"/>
     <use x="139.160156" xlink:href="#DejaVuSans-Bold-33"/>
     <use x="208.740234" xlink:href="#DejaVuSans-Bold-6b"/>
    </g>
   </g>
   <g id="text_40">
    <!-- McGovern -->
    <defs>
     <path d="M 59.515625 10.40625 
L 59.515625 29.984375 
L 43.40625 29.984375 
L 43.40625 38.09375 
L 69.28125 38.09375 
L 69.28125 6.78125 
Q 63.578125 2.734375 56.6875 0.65625 
Q 49.8125 -1.421875 42 -1.421875 
Q 24.90625 -1.421875 15.25 8.5625 
Q 5.609375 18.5625 5.609375 36.375 
Q 5.609375 54.25 15.25 64.234375 
Q 24.90625 74.21875 42 74.21875 
Q 49.125 74.21875 55.546875 72.453125 
Q 61.96875 70.703125 67.390625 67.28125 
L 67.390625 56.78125 
Q 61.921875 61.421875 55.765625 63.765625 
Q 49.609375 66.109375 42.828125 66.109375 
Q 29.4375 66.109375 22.71875 58.640625 
Q 16.015625 51.171875 16.015625 36.375 
Q 16.015625 21.625 22.71875 14.15625 
Q 29.4375 6.6875 42.828125 6.6875 
Q 48.046875 6.6875 52.140625 7.59375 
Q 56.25 8.5 59.515625 10.40625 
z
" id="DejaVuSans-47"/>
    </defs>
    <g transform="translate(1183.495112 57.875535)scale(0.1 -0.1)">
     <use xlink:href="#DejaVuSans-4d"/>
     <use x="86.279297" xlink:href="#DejaVuSans-63"/>
     <use x="141.259766" xlink:href="#DejaVuSans-47"/>
     <use x="218.75" xlink:href="#DejaVuSans-6f"/>
     <use x="279.931641" xlink:href="#DejaVuSans-76"/>
     <use x="339.111328" xlink:href="#DejaVuSans-65"/>
     <use x="400.634766" xlink:href="#DejaVuSans-72"/>
     <use x="441.732422" xlink:href="#DejaVuSans-6e"/>
    </g>
   </g>
   <g id="patch_12">
    <path d="M 238.90545 575.285003 
Q 238.418359 573.095341 238.174041 571.997037 
" style="fill:none;stroke:#386cb0;stroke-linecap:round;"/>
    <path d="M 237.090331 576.335882 
L 238.174041 571.997037 
L 240.994891 575.467312 
" style="fill:none;stroke:#386cb0;stroke-linecap:round;"/>
   </g>
   <g id="text_41">
    <!-- D'Ambrosio($2k) -->
    <defs>
     <path d="M 19.671875 64.796875 
L 19.671875 8.109375 
L 31.59375 8.109375 
Q 46.6875 8.109375 53.6875 14.9375 
Q 60.6875 21.78125 60.6875 36.53125 
Q 60.6875 51.171875 53.6875 57.984375 
Q 46.6875 64.796875 31.59375 64.796875 
z
M 9.8125 72.90625 
L 30.078125 72.90625 
Q 51.265625 72.90625 61.171875 64.09375 
Q 71.09375 55.28125 71.09375 36.53125 
Q 71.09375 17.671875 61.125 8.828125 
Q 51.171875 0 30.078125 0 
L 9.8125 0 
z
" id="DejaVuSans-44"/>
     <path d="M 17.921875 72.90625 
L 17.921875 45.796875 
L 9.625 45.796875 
L 9.625 72.90625 
z
" id="DejaVuSans-27"/>
    </defs>
    <g transform="translate(198.847315 586.840539)scale(0.1 -0.1)">
     <use xlink:href="#DejaVuSans-44"/>
     <use x="77.001953" xlink:href="#DejaVuSans-27"/>
     <use x="104.492188" xlink:href="#DejaVuSans-41"/>
     <use x="172.900391" xlink:href="#DejaVuSans-6d"/>
     <use x="270.3125" xlink:href="#DejaVuSans-62"/>
     <use x="333.789062" xlink:href="#DejaVuSans-72"/>
     <use x="374.871094" xlink:href="#DejaVuSans-6f"/>
     <use x="436.052734" xlink:href="#DejaVuSans-73"/>
     <use x="488.152344" xlink:href="#DejaVuSans-69"/>
     <use x="515.935547" xlink:href="#DejaVuSans-6f"/>
     <use x="577.117188" xlink:href="#DejaVuSans-28"/>
     <use x="616.130859" xlink:href="#DejaVuSans-24"/>
     <use x="679.753906" xlink:href="#DejaVuSans-32"/>
     <use x="743.376953" xlink:href="#DejaVuSans-6b"/>
     <use x="801.287109" xlink:href="#DejaVuSans-29"/>
    </g>
   </g>
   <g id="text_42">
    <!-- $11k -->
    <g transform="translate(615.581431 419.846195)scale(0.08485 -0.08485)">
     <use xlink:href="#DejaVuSans-Bold-24"/>
     <use x="69.580078" xlink:href="#DejaVuSans-Bold-31"/>
     <use x="139.160156" xlink:href="#DejaVuSans-Bold-31"/>
     <use x="208.740234" xlink:href="#DejaVuSans-Bold-6b"/>
    </g>
   </g>
   <g id="patch_13">
    <path d="M 636.590427 420.344987 
Q 632.878996 419.215451 630.237162 418.411436 
" style="fill:none;stroke:#f0027f;stroke-linecap:round;"/>
    <path d="M 633.481557 421.489406 
L 630.237162 418.411436 
L 634.646175 417.662702 
" style="fill:none;stroke:#f0027f;stroke-linecap:round;"/>
   </g>
   <g id="text_43">
    <!-- Tierney -->
    <g transform="translate(640.503055 430.009581)scale(0.1 -0.1)">
     <use xlink:href="#DejaVuSans-54"/>
     <use x="61.037109" xlink:href="#DejaVuSans-69"/>
     <use x="88.820312" xlink:href="#DejaVuSans-65"/>
     <use x="150.34375" xlink:href="#DejaVuSans-72"/>
     <use x="191.441406" xlink:href="#DejaVuSans-6e"/>
     <use x="254.820312" xlink:href="#DejaVuSans-65"/>
     <use x="316.34375" xlink:href="#DejaVuSans-79"/>
    </g>
   </g>
   <g id="text_44">
    <!-- $35k -->
    <defs>
     <path d="M 10.59375 72.90625 
L 57.328125 72.90625 
L 57.328125 59.078125 
L 25.59375 59.078125 
L 25.59375 47.796875 
Q 27.734375 48.390625 29.90625 48.703125 
Q 32.078125 49.03125 34.421875 49.03125 
Q 47.75 49.03125 55.171875 42.359375 
Q 62.59375 35.6875 62.59375 23.78125 
Q 62.59375 11.96875 54.515625 5.265625 
Q 46.4375 -1.421875 32.078125 -1.421875 
Q 25.875 -1.421875 19.796875 -0.21875 
Q 13.71875 0.984375 7.71875 3.421875 
L 7.71875 18.21875 
Q 13.671875 14.796875 19.015625 13.078125 
Q 24.359375 11.375 29.109375 11.375 
Q 35.9375 11.375 39.859375 14.71875 
Q 43.796875 18.0625 43.796875 23.78125 
Q 43.796875 29.546875 39.859375 32.859375 
Q 35.9375 36.1875 29.109375 36.1875 
Q 25.046875 36.1875 20.453125 35.125 
Q 15.875 34.078125 10.59375 31.890625 
z
" id="DejaVuSans-Bold-35"/>
    </defs>
    <g transform="translate(1394.074667 185.806632)scale(0.113493 -0.113493)">
     <use xlink:href="#DejaVuSans-Bold-24"/>
     <use x="69.580078" xlink:href="#DejaVuSans-Bold-33"/>
     <use x="139.160156" xlink:href="#DejaVuSans-Bold-35"/>
     <use x="208.740234" xlink:href="#DejaVuSans-Bold-6b"/>
    </g>
   </g>
   <g id="text_45">
    <!-- Toner -->
    <g transform="translate(1384.693241 145.037658)scale(0.1 -0.1)">
     <use xlink:href="#DejaVuSans-54"/>
     <use x="60.818359" xlink:href="#DejaVuSans-6f"/>
     <use x="122" xlink:href="#DejaVuSans-6e"/>
     <use x="185.378906" xlink:href="#DejaVuSans-65"/>
     <use x="246.902344" xlink:href="#DejaVuSans-72"/>
    </g>
   </g>
   <g id="text_46">
    <!-- Gebru($3k) -->
    <g transform="translate(1105.364618 36.828581)scale(0.1 -0.1)">
     <use xlink:href="#DejaVuSans-47"/>
     <use x="77.490234" xlink:href="#DejaVuSans-65"/>
     <use x="139.013672" xlink:href="#DejaVuSans-62"/>
     <use x="202.490234" xlink:href="#DejaVuSans-72"/>
     <use x="243.603516" xlink:href="#DejaVuSans-75"/>
     <use x="306.982422" xlink:href="#DejaVuSans-28"/>
     <use x="345.996094" xlink:href="#DejaVuSans-24"/>
     <use x="409.619141" xlink:href="#DejaVuSans-33"/>
     <use x="473.242188" xlink:href="#DejaVuSans-6b"/>
     <use x="531.152344" xlink:href="#DejaVuSans-29"/>
    </g>
   </g>
   <g id="patch_14">
    <path d="M 134.122446 571.287532 
Q 134.541133 590.4269 134.935369 608.448501 
" style="fill:none;stroke:#bf5b17;stroke-linecap:round;"/>
    <path d="M 136.847409 604.405717 
L 134.935369 608.448501 
L 132.848366 604.493199 
" style="fill:none;stroke:#bf5b17;stroke-linecap:round;"/>
   </g>
   <g id="text_47">
    <!-- Benjamin($36) -->
    <defs>
     <path d="M 9.421875 54.6875 
L 18.40625 54.6875 
L 18.40625 -0.984375 
Q 18.40625 -11.421875 14.421875 -16.109375 
Q 10.453125 -20.796875 1.609375 -20.796875 
L -1.8125 -20.796875 
L -1.8125 -13.1875 
L 0.59375 -13.1875 
Q 5.71875 -13.1875 7.5625 -10.8125 
Q 9.421875 -8.453125 9.421875 -0.984375 
z
M 9.421875 75.984375 
L 18.40625 75.984375 
L 18.40625 64.59375 
L 9.421875 64.59375 
z
" id="DejaVuSans-6a"/>
    </defs>
    <g transform="translate(96.926759 565.208683)scale(0.1 -0.1)">
     <use xlink:href="#DejaVuSans-42"/>
     <use x="68.603516" xlink:href="#DejaVuSans-65"/>
     <use x="130.126953" xlink:href="#DejaVuSans-6e"/>
     <use x="193.505859" xlink:href="#DejaVuSans-6a"/>
     <use x="221.289062" xlink:href="#DejaVuSans-61"/>
     <use x="282.568359" xlink:href="#DejaVuSans-6d"/>
     <use x="379.980469" xlink:href="#DejaVuSans-69"/>
     <use x="407.763672" xlink:href="#DejaVuSans-6e"/>
     <use x="471.142578" xlink:href="#DejaVuSans-28"/>
     <use x="510.15625" xlink:href="#DejaVuSans-24"/>
     <use x="573.779297" xlink:href="#DejaVuSans-33"/>
     <use x="637.402344" xlink:href="#DejaVuSans-36"/>
     <use x="701.025391" xlink:href="#DejaVuSans-29"/>
    </g>
   </g>
   <g id="text_48">
    <!-- $26k -->
    <g transform="translate(1024.975581 234.022122)scale(0.10587 -0.10587)">
     <use xlink:href="#DejaVuSans-Bold-24"/>
     <use x="69.580078" xlink:href="#DejaVuSans-Bold-32"/>
     <use x="139.160156" xlink:href="#DejaVuSans-Bold-36"/>
     <use x="208.740234" xlink:href="#DejaVuSans-Bold-6b"/>
    </g>
   </g>
   <g id="text_49">
    <!-- Devereux -->
    <g transform="translate(1014.545132 198.349524)scale(0.1 -0.1)">
     <use xlink:href="#DejaVuSans-44"/>
     <use x="77.001953" xlink:href="#DejaVuSans-65"/>
     <use x="138.525391" xlink:href="#DejaVuSans-76"/>
     <use x="197.705078" xlink:href="#DejaVuSans-65"/>
     <use x="259.228516" xlink:href="#DejaVuSans-72"/>
     <use x="300.310547" xlink:href="#DejaVuSans-65"/>
     <use x="361.833984" xlink:href="#DejaVuSans-75"/>
     <use x="425.212891" xlink:href="#DejaVuSans-78"/>
    </g>
   </g>
   <g id="text_50">
    <!-- Zondervan($1k) -->
    <defs>
     <path d="M 5.609375 72.90625 
L 62.890625 72.90625 
L 62.890625 65.375 
L 16.796875 8.296875 
L 64.015625 8.296875 
L 64.015625 0 
L 4.5 0 
L 4.5 7.515625 
L 50.59375 64.59375 
L 5.609375 64.59375 
z
" id="DejaVuSans-5a"/>
    </defs>
    <g transform="translate(830.212295 122.569561)scale(0.1 -0.1)">
     <use xlink:href="#DejaVuSans-5a"/>
     <use x="68.505859" xlink:href="#DejaVuSans-6f"/>
     <use x="129.6875" xlink:href="#DejaVuSans-6e"/>
     <use x="193.066406" xlink:href="#DejaVuSans-64"/>
     <use x="256.542969" xlink:href="#DejaVuSans-65"/>
     <use x="318.066406" xlink:href="#DejaVuSans-72"/>
     <use x="359.179688" xlink:href="#DejaVuSans-76"/>
     <use x="418.359375" xlink:href="#DejaVuSans-61"/>
     <use x="479.638672" xlink:href="#DejaVuSans-6e"/>
     <use x="543.017578" xlink:href="#DejaVuSans-28"/>
     <use x="582.03125" xlink:href="#DejaVuSans-24"/>
     <use x="645.654297" xlink:href="#DejaVuSans-31"/>
     <use x="709.277344" xlink:href="#DejaVuSans-6b"/>
     <use x="767.1875" xlink:href="#DejaVuSans-29"/>
    </g>
   </g>
   <g id="text_51">
    <!-- $10k -->
    <defs>
     <path d="M 46 36.53125 
Q 46 50.203125 43.4375 55.78125 
Q 40.875 61.375 34.8125 61.375 
Q 28.765625 61.375 26.171875 55.78125 
Q 23.578125 50.203125 23.578125 36.53125 
Q 23.578125 22.703125 26.171875 17.03125 
Q 28.765625 11.375 34.8125 11.375 
Q 40.828125 11.375 43.40625 17.03125 
Q 46 22.703125 46 36.53125 
z
M 64.796875 36.375 
Q 64.796875 18.265625 56.984375 8.421875 
Q 49.171875 -1.421875 34.8125 -1.421875 
Q 20.40625 -1.421875 12.59375 8.421875 
Q 4.78125 18.265625 4.78125 36.375 
Q 4.78125 54.546875 12.59375 64.375 
Q 20.40625 74.21875 34.8125 74.21875 
Q 49.171875 74.21875 56.984375 64.375 
Q 64.796875 54.546875 64.796875 36.375 
z
" id="DejaVuSans-Bold-30"/>
    </defs>
    <g transform="translate(432.601777 503.570069)scale(0.083257 -0.083257)">
     <use xlink:href="#DejaVuSans-Bold-24"/>
     <use x="69.580078" xlink:href="#DejaVuSans-Bold-31"/>
     <use x="139.160156" xlink:href="#DejaVuSans-Bold-30"/>
     <use x="208.740234" xlink:href="#DejaVuSans-Bold-6b"/>
    </g>
   </g>
   <g id="text_52">
    <!-- Kelley -->
    <defs>
     <path d="M 9.8125 72.90625 
L 19.671875 72.90625 
L 19.671875 42.09375 
L 52.390625 72.90625 
L 65.09375 72.90625 
L 28.90625 38.921875 
L 67.671875 0 
L 54.6875 0 
L 19.671875 35.109375 
L 19.671875 0 
L 9.8125 0 
z
" id="DejaVuSans-4b"/>
    </defs>
    <g transform="translate(419.059338 481.018281)scale(0.1 -0.1)">
     <use xlink:href="#DejaVuSans-4b"/>
     <use x="65.498047" xlink:href="#DejaVuSans-65"/>
     <use x="127.021484" xlink:href="#DejaVuSans-6c"/>
     <use x="154.804688" xlink:href="#DejaVuSans-6c"/>
     <use x="182.587891" xlink:href="#DejaVuSans-65"/>
     <use x="244.111328" xlink:href="#DejaVuSans-79"/>
    </g>
   </g>
   <g id="patch_15">
    <path d="M 125.898493 645.602752 
Q 129.940992 629.584357 133.709914 614.650009 
" style="fill:none;stroke:#666666;stroke-linecap:round;"/>
    <path d="M 130.791937 618.039021 
L 133.709914 614.650009 
L 134.670338 619.017798 
" style="fill:none;stroke:#666666;stroke-linecap:round;"/>
   </g>
   <g id="text_53">
    <!-- Sutton($2) -->
    <g transform="translate(96.926759 657.144072)scale(0.1 -0.1)">
     <use xlink:href="#DejaVuSans-53"/>
     <use x="63.476562" xlink:href="#DejaVuSans-75"/>
     <use x="126.855469" xlink:href="#DejaVuSans-74"/>
     <use x="166.064453" xlink:href="#DejaVuSans-74"/>
     <use x="205.273438" xlink:href="#DejaVuSans-6f"/>
     <use x="266.455078" xlink:href="#DejaVuSans-6e"/>
     <use x="329.833984" xlink:href="#DejaVuSans-28"/>
     <use x="368.847656" xlink:href="#DejaVuSans-24"/>
     <use x="432.470703" xlink:href="#DejaVuSans-32"/>
     <use x="496.09375" xlink:href="#DejaVuSans-29"/>
    </g>
   </g>
   <g id="text_54">
    <!-- $17k -->
    <defs>
     <path d="M 6.6875 72.90625 
L 61.625 72.90625 
L 61.625 62.3125 
L 33.203125 0 
L 14.890625 0 
L 41.796875 59.078125 
L 6.6875 59.078125 
z
" id="DejaVuSans-Bold-37"/>
    </defs>
    <g transform="translate(1039.292985 108.377175)scale(0.095084 -0.095084)">
     <use xlink:href="#DejaVuSans-Bold-24"/>
     <use x="69.580078" xlink:href="#DejaVuSans-Bold-31"/>
     <use x="139.160156" xlink:href="#DejaVuSans-Bold-37"/>
     <use x="208.740234" xlink:href="#DejaVuSans-Bold-6b"/>
    </g>
   </g>
   <g id="text_55">
    <!-- Simmons -->
    <g transform="translate(1027.378119 79.335953)scale(0.1 -0.1)">
     <use xlink:href="#DejaVuSans-53"/>
     <use x="63.476562" xlink:href="#DejaVuSans-69"/>
     <use x="91.259766" xlink:href="#DejaVuSans-6d"/>
     <use x="188.671875" xlink:href="#DejaVuSans-6d"/>
     <use x="286.083984" xlink:href="#DejaVuSans-6f"/>
     <use x="347.265625" xlink:href="#DejaVuSans-6e"/>
     <use x="410.644531" xlink:href="#DejaVuSans-73"/>
    </g>
   </g>
  </g>
 </g>
 <defs>
  <clipPath id="p7dc35ed9e0">
   <rect height="654.64" width="1346.74" x="79.94" y="13.32"/>
  </clipPath>
 </defs>
</svg>
