<?xml version="1.0" encoding="utf-8" standalone="no"?>
<!DOCTYPE svg PUBLIC "-//W3C//DTD SVG 1.1//EN"
  "http://www.w3.org/Graphics/SVG/1.1/DTD/svg11.dtd">
<!-- Created with matplotlib (http://matplotlib.org/) -->
<svg height="720pt" version="1.1" viewBox="0 0 1440 720" width="1440pt" xmlns="http://www.w3.org/2000/svg" xmlns:xlink="http://www.w3.org/1999/xlink">
 <defs>
  <style type="text/css">
*{stroke-linecap:butt;stroke-linejoin:round;}
  </style>
 </defs>
 <g id="figure_1">
  <g id="patch_1">
   <path d="M 0 720 
L 1440 720 
L 1440 0 
L 0 0 
z
" style="fill:#ffffff;"/>
  </g>
  <g id="axes_1">
   <g id="patch_2">
    <path d="M 79.94 667.96 
L 1426.68 667.96 
L 1426.68 13.32 
L 79.94 13.32 
z
" style="fill:#ffffff;"/>
   </g>
   <g id="PathCollection_1">
    <path clip-path="url(#p441f0bb882)" d="M 174.74248 569.699268 
C 176.130429 569.699268 177.461717 569.14783 178.443145 568.166402 
C 179.424573 567.184974 179.976011 565.853686 179.976011 564.465737 
C 179.976011 563.077788 179.424573 561.746499 178.443145 560.765071 
C 177.461717 559.783644 176.130429 559.232206 174.74248 559.232206 
C 173.354531 559.232206 172.023242 559.783644 171.041814 560.765071 
C 170.060386 561.746499 169.508949 563.077788 169.508949 564.465737 
C 169.508949 565.853686 170.060386 567.184974 171.041814 568.166402 
C 172.023242 569.14783 173.354531 569.699268 174.74248 569.699268 
z
" style="fill:#7fc97f;stroke:#7fc97f;"/>
    <path clip-path="url(#p441f0bb882)" d="M 1335.688697 252.335242 
C 1340.295607 252.335242 1344.71445 250.504898 1347.972027 247.24732 
C 1351.229604 243.989743 1353.059949 239.5709 1353.059949 234.96399 
C 1353.059949 230.35708 1351.229604 225.938237 1347.972027 222.68066 
C 1344.71445 219.423083 1340.295607 217.592738 1335.688697 217.592738 
C 1331.081787 217.592738 1326.662944 219.423083 1323.405366 222.68066 
C 1320.147789 225.938237 1318.317445 230.35708 1318.317445 234.96399 
C 1318.317445 239.5709 1320.147789 243.989743 1323.405366 247.24732 
C 1326.662944 250.504898 1331.081787 252.335242 1335.688697 252.335242 
z
" style="fill:#7fc97f;stroke:#7fc97f;"/>
    <path clip-path="url(#p441f0bb882)" d="M 150.302064 592.093329 
C 150.735227 592.093329 151.150707 591.921232 151.456999 591.614939 
C 151.763291 591.308647 151.935389 590.893167 151.935389 590.460004 
C 151.935389 590.026841 151.763291 589.611362 151.456999 589.305069 
C 151.150707 588.998777 150.735227 588.826679 150.302064 588.826679 
C 149.868901 588.826679 149.453421 588.998777 149.147129 589.305069 
C 148.840837 589.611362 148.668739 590.026841 148.668739 590.460004 
C 148.668739 590.893167 148.840837 591.308647 149.147129 591.614939 
C 149.453421 591.921232 149.868901 592.093329 150.302064 592.093329 
z
" style="fill:#7fc97f;stroke:#7fc97f;"/>
    <path clip-path="url(#p441f0bb882)" d="M 1131.806968 22.223854 
C 1133.171088 22.223854 1134.479521 21.681883 1135.4441 20.717305 
C 1136.408678 19.752726 1136.950649 18.444294 1136.950649 17.080173 
C 1136.950649 15.716053 1136.408678 14.407621 1135.4441 13.443042 
C 1134.479521 12.478464 1133.171088 11.936493 1131.806968 11.936493 
C 1130.442848 11.936493 1129.134415 12.478464 1128.169837 13.443042 
C 1127.205258 14.407621 1126.663288 15.716053 1126.663288 17.080173 
C 1126.663288 18.444294 1127.205258 19.752726 1128.169837 20.717305 
C 1129.134415 21.681883 1130.442848 22.223854 1131.806968 22.223854 
z
" style="fill:#beaed4;stroke:#beaed4;"/>
    <path clip-path="url(#p441f0bb882)" d="M 375.223579 541.24147 
C 377.396717 541.24147 379.481141 540.378073 381.017781 538.841433 
C 382.554421 537.304793 383.417818 535.220369 383.417818 533.047231 
C 383.417818 530.874094 382.554421 528.78967 381.017781 527.25303 
C 379.481141 525.716389 377.396717 524.852993 375.223579 524.852993 
C 373.050442 524.852993 370.966018 525.716389 369.429377 527.25303 
C 367.892737 528.78967 367.02934 530.874094 367.02934 533.047231 
C 367.02934 535.220369 367.892737 537.304793 369.429377 538.841433 
C 370.966018 540.378073 373.050442 541.24147 375.223579 541.24147 
z
" style="fill:#beaed4;stroke:#beaed4;"/>
    <path clip-path="url(#p441f0bb882)" d="M 461.673776 469.891743 
C 463.61031 469.891743 465.467789 469.12235 466.837125 467.753014 
C 468.206462 466.383678 468.975855 464.526198 468.975855 462.589665 
C 468.975855 460.653131 468.206462 458.795652 466.837125 457.426315 
C 465.467789 456.056979 463.61031 455.287586 461.673776 455.287586 
C 459.737242 455.287586 457.879763 456.056979 456.510427 457.426315 
C 455.141091 458.795652 454.371698 460.653131 454.371698 462.589665 
C 454.371698 464.526198 455.141091 466.383678 456.510427 467.753014 
C 457.879763 469.12235 459.737242 469.891743 461.673776 469.891743 
z
" style="fill:#beaed4;stroke:#beaed4;"/>
    <path clip-path="url(#p441f0bb882)" d="M 670.697136 457.568287 
C 676.022374 457.568287 681.130221 455.452547 684.895733 451.687035 
C 688.661245 447.921523 690.776984 442.813676 690.776984 437.488438 
C 690.776984 432.1632 688.661245 427.055354 684.895733 423.289842 
C 681.130221 419.52433 676.022374 417.40859 670.697136 417.40859 
C 665.371898 417.40859 660.264051 419.52433 656.498539 423.289842 
C 652.733027 427.055354 650.617288 432.1632 650.617288 437.488438 
C 650.617288 442.813676 652.733027 447.921523 656.498539 451.687035 
C 660.264051 455.452547 665.371898 457.568287 670.697136 457.568287 
z
" style="fill:#fdc086;stroke:#fdc086;"/>
    <path clip-path="url(#p441f0bb882)" d="M 244.984928 542.765016 
C 245.766639 542.765016 246.516438 542.454439 247.069191 541.901686 
C 247.621944 541.348933 247.932521 540.599134 247.932521 539.817424 
C 247.932521 539.035713 247.621944 538.285914 247.069191 537.733161 
C 246.516438 537.180408 245.766639 536.869831 244.984928 536.869831 
C 244.203218 536.869831 243.453419 537.180408 242.900666 537.733161 
C 242.347913 538.285914 242.037336 539.035713 242.037336 539.817424 
C 242.037336 540.599134 242.347913 541.348933 242.900666 541.901686 
C 243.453419 542.454439 244.203218 542.765016 244.984928 542.765016 
z
" style="fill:#fdc086;stroke:#fdc086;"/>
    <path clip-path="url(#p441f0bb882)" d="M 301.742946 533.748603 
C 303.176162 533.748603 304.55087 533.17918 305.564307 532.165743 
C 306.577744 531.152307 307.147167 529.777598 307.147167 528.344382 
C 307.147167 526.911166 306.577744 525.536458 305.564307 524.523021 
C 304.55087 523.509585 303.176162 522.940162 301.742946 522.940162 
C 300.30973 522.940162 298.935022 523.509585 297.921585 524.523021 
C 296.908148 525.536458 296.338726 526.911166 296.338726 528.344382 
C 296.338726 529.777598 296.908148 531.152307 297.921585 532.165743 
C 298.935022 533.17918 300.30973 533.748603 301.742946 533.748603 
z
" style="fill:#ffff99;stroke:#ffff99;"/>
    <path clip-path="url(#p441f0bb882)" d="M 161.955245 580.264319 
C 162.044552 580.264319 162.130214 580.228837 162.193363 580.165688 
C 162.256513 580.102538 162.291995 580.016877 162.291995 579.92757 
C 162.291995 579.838263 162.256513 579.752602 162.193363 579.689453 
C 162.130214 579.626303 162.044552 579.590821 161.955245 579.590821 
C 161.865939 579.590821 161.780277 579.626303 161.717128 579.689453 
C 161.653978 579.752602 161.618496 579.838263 161.618496 579.92757 
C 161.618496 580.016877 161.653978 580.102538 161.717128 580.165688 
C 161.780277 580.228837 161.865939 580.264319 161.955245 580.264319 
z
" style="fill:#ffff99;stroke:#ffff99;"/>
    <path clip-path="url(#p441f0bb882)" d="M 899.684967 86.983267 
C 900.800934 86.983267 901.871345 86.539888 902.660454 85.75078 
C 903.449562 84.961671 903.892941 83.89126 903.892941 82.775293 
C 903.892941 81.659325 903.449562 80.588914 902.660454 79.799805 
C 901.871345 79.010697 900.800934 78.567318 899.684967 78.567318 
C 898.568999 78.567318 897.498588 79.010697 896.709479 79.799805 
C 895.920371 80.588914 895.476992 81.659325 895.476992 82.775293 
C 895.476992 83.89126 895.920371 84.961671 896.709479 85.75078 
C 897.498588 86.539888 898.568999 86.983267 899.684967 86.983267 
z
" style="fill:#ffff99;stroke:#ffff99;"/>
    <path clip-path="url(#p441f0bb882)" d="M 723.149913 461.161393 
C 726.607596 461.161393 729.924127 459.787641 732.369078 457.34269 
C 734.814029 454.897739 736.187781 451.581208 736.187781 448.123525 
C 736.187781 444.665842 734.814029 441.349311 732.369078 438.90436 
C 729.924127 436.459409 726.607596 435.085657 723.149913 435.085657 
C 719.69223 435.085657 716.375699 436.459409 713.930748 438.90436 
C 711.485797 441.349311 710.112045 444.665842 710.112045 448.123525 
C 710.112045 451.581208 711.485797 454.897739 713.930748 457.34269 
C 716.375699 459.787641 719.69223 461.161393 723.149913 461.161393 
z
" style="fill:#386cb0;stroke:#386cb0;"/>
    <path clip-path="url(#p441f0bb882)" d="M 1252.057265 221.304857 
C 1256.132232 221.304857 1260.040848 219.685856 1262.922285 216.804419 
C 1265.803722 213.922982 1267.422723 210.014366 1267.422723 205.939399 
C 1267.422723 201.864432 1265.803722 197.955816 1262.922285 195.07438 
C 1260.040848 192.192943 1256.132232 190.573941 1252.057265 190.573941 
C 1247.982298 190.573941 1244.073682 192.192943 1241.192246 195.07438 
C 1238.310809 197.955816 1236.691807 201.864432 1236.691807 205.939399 
C 1236.691807 210.014366 1238.310809 213.922982 1241.192246 216.804419 
C 1244.073682 219.685856 1247.982298 221.304857 1252.057265 221.304857 
z
" style="fill:#386cb0;stroke:#386cb0;"/>
    <path clip-path="url(#p441f0bb882)" d="M 359.36244 559.85274 
C 361.642207 559.85274 363.828907 558.946979 365.440945 557.334941 
C 367.052984 555.722902 367.958745 553.536202 367.958745 551.256435 
C 367.958745 548.976669 367.052984 546.789969 365.440945 545.17793 
C 363.828907 543.565892 361.642207 542.660131 359.36244 542.660131 
C 357.082674 542.660131 354.895974 543.565892 353.283935 545.17793 
C 351.671897 546.789969 350.766136 548.976669 350.766136 551.256435 
C 350.766136 553.536202 351.671897 555.722902 353.283935 557.334941 
C 354.895974 558.946979 357.082674 559.85274 359.36244 559.85274 
z
" style="fill:#386cb0;stroke:#386cb0;"/>
    <path clip-path="url(#p441f0bb882)" d="M 1078.304267 377.060846 
C 1082.695901 377.060846 1086.908257 375.316031 1090.013612 372.210676 
C 1093.118967 369.105321 1094.863782 364.892965 1094.863782 360.50133 
C 1094.863782 356.109696 1093.118967 351.89734 1090.013612 348.791985 
C 1086.908257 345.68663 1082.695901 343.941815 1078.304267 343.941815 
C 1073.912632 343.941815 1069.700276 345.68663 1066.594921 348.791985 
C 1063.489566 351.89734 1061.744751 356.109696 1061.744751 360.50133 
C 1061.744751 364.892965 1063.489566 369.105321 1066.594921 372.210676 
C 1069.700276 375.316031 1073.912632 377.060846 1078.304267 377.060846 
z
" style="fill:#f0027f;stroke:#f0027f;"/>
    <path clip-path="url(#p441f0bb882)" d="M 917.85184 298.103741 
C 920.949634 298.103741 923.920967 296.872975 926.111439 294.682503 
C 928.30191 292.492032 929.532676 289.520699 929.532676 286.422905 
C 929.532676 283.32511 928.30191 280.353777 926.111439 278.163306 
C 923.920967 275.972834 920.949634 274.742068 917.85184 274.742068 
C 914.754045 274.742068 911.782712 275.972834 909.592241 278.163306 
C 907.401769 280.353777 906.171003 283.32511 906.171003 286.422905 
C 906.171003 289.520699 907.401769 292.492032 909.592241 294.682503 
C 911.782712 296.872975 914.754045 298.103741 917.85184 298.103741 
z
" style="fill:#f0027f;stroke:#f0027f;"/>
    <path clip-path="url(#p441f0bb882)" d="M 1122.126066 130.439827 
C 1126.887396 130.439827 1131.454355 128.54813 1134.821124 125.181361 
C 1138.187893 121.814593 1140.079589 117.247633 1140.079589 112.486303 
C 1140.079589 107.724973 1138.187893 103.158014 1134.821124 99.791245 
C 1131.454355 96.424477 1126.887396 94.53278 1122.126066 94.53278 
C 1117.364736 94.53278 1112.797777 96.424477 1109.431008 99.791245 
C 1106.064239 103.158014 1104.172543 107.724973 1104.172543 112.486303 
C 1104.172543 117.247633 1106.064239 121.814593 1109.431008 125.181361 
C 1112.797777 128.54813 1117.364736 130.439827 1122.126066 130.439827 
z
" style="fill:#bf5b17;stroke:#bf5b17;"/>
    <path clip-path="url(#p441f0bb882)" d="M 141.124403 581.911936 
C 142.231688 581.911936 143.293769 581.472007 144.076737 580.689039 
C 144.859705 579.906071 145.299634 578.843989 145.299634 577.736705 
C 145.299634 576.629421 144.859705 575.56734 144.076737 574.784371 
C 143.293769 574.001403 142.231688 573.561475 141.124403 573.561475 
C 140.017119 573.561475 138.955038 574.001403 138.17207 574.784371 
C 137.389102 575.56734 136.949173 576.629421 136.949173 577.736705 
C 136.949173 578.843989 137.389102 579.906071 138.17207 580.689039 
C 138.955038 581.472007 140.017119 581.911936 141.124403 581.911936 
z
" style="fill:#bf5b17;stroke:#bf5b17;"/>
    <path clip-path="url(#p441f0bb882)" d="M 795.892356 371.359443 
C 800.359021 371.359443 804.643343 369.584818 807.801752 366.42641 
C 810.96016 363.268001 812.734785 358.983679 812.734785 354.517014 
C 812.734785 350.05035 810.96016 345.766027 807.801752 342.607619 
C 804.643343 339.44921 800.359021 337.674586 795.892356 337.674586 
C 791.425692 337.674586 787.141369 339.44921 783.982961 342.607619 
C 780.824552 345.766027 779.049928 350.05035 779.049928 354.517014 
C 779.049928 358.983679 780.824552 363.268001 783.982961 366.42641 
C 787.141369 369.584818 791.425692 371.359443 795.892356 371.359443 
z
" style="fill:#bf5b17;stroke:#bf5b17;"/>
    <path clip-path="url(#p441f0bb882)" d="M 156.420504 595.495143 
C 157.146793 595.495143 157.843432 595.206586 158.356996 594.693022 
C 158.87056 594.179458 159.159117 593.482819 159.159117 592.75653 
C 159.159117 592.030242 158.87056 591.333602 158.356996 590.820039 
C 157.843432 590.306475 157.146793 590.017917 156.420504 590.017917 
C 155.694216 590.017917 154.997576 590.306475 154.484013 590.820039 
C 153.970449 591.333602 153.681892 592.030242 153.681892 592.75653 
C 153.681892 593.482819 153.970449 594.179458 154.484013 594.693022 
C 154.997576 595.206586 155.694216 595.495143 156.420504 595.495143 
z
" style="fill:#666666;stroke:#666666;"/>
    <path clip-path="url(#p441f0bb882)" d="M 1396.087798 443.487836 
C 1402.243534 443.487836 1408.147976 441.042136 1412.500739 436.689373 
C 1416.853502 432.33661 1419.299202 426.432168 1419.299202 420.276432 
C 1419.299202 414.120696 1416.853502 408.216254 1412.500739 403.863492 
C 1408.147976 399.510729 1402.243534 397.065029 1396.087798 397.065029 
C 1389.932062 397.065029 1384.02762 399.510729 1379.674857 403.863492 
C 1375.322095 408.216254 1372.876395 414.120696 1372.876395 420.276432 
C 1372.876395 426.432168 1375.322095 432.33661 1379.674857 436.689373 
C 1384.02762 441.042136 1389.932062 443.487836 1396.087798 443.487836 
z
" style="fill:#666666;stroke:#666666;"/>
    <path clip-path="url(#p441f0bb882)" d="M 171.72823 596.622369 
C 172.755357 596.622369 173.740554 596.214287 174.466843 595.487999 
C 175.193132 594.76171 175.601214 593.776513 175.601214 592.749386 
C 175.601214 591.722259 175.193132 590.737062 174.466843 590.010773 
C 173.740554 589.284485 172.755357 588.876403 171.72823 588.876403 
C 170.701103 588.876403 169.715906 589.284485 168.989617 590.010773 
C 168.263329 590.737062 167.855247 591.722259 167.855247 592.749386 
C 167.855247 593.776513 168.263329 594.76171 168.989617 595.487999 
C 169.715906 596.214287 170.701103 596.622369 171.72823 596.622369 
z
" style="fill:#666666;stroke:#666666;"/>
   </g>
   <g id="matplotlib.axis_1">
    <g id="xtick_1">
     <g id="line2d_1">
      <path clip-path="url(#p441f0bb882)" d="M 141.124403 667.96 
L 141.124403 13.32 
" style="fill:none;stroke:#b0b0b0;stroke-linecap:square;stroke-width:0.8;"/>
     </g>
     <g id="line2d_2">
      <defs>
       <path d="M 0 0 
L 0 3.5 
" id="mf29acf8d4f" style="stroke:#000000;stroke-width:0.8;"/>
      </defs>
      <g>
       <use style="stroke:#000000;stroke-width:0.8;" x="141.124403" xlink:href="#mf29acf8d4f" y="667.96"/>
      </g>
     </g>
     <g id="text_1">
      <!-- $0 -->
      <defs>
       <path d="M 33.796875 -14.703125 
L 28.90625 -14.703125 
L 28.859375 0 
Q 23.734375 0.09375 18.609375 1.1875 
Q 13.484375 2.296875 8.296875 4.5 
L 8.296875 13.28125 
Q 13.28125 10.15625 18.375 8.5625 
Q 23.484375 6.984375 28.90625 6.9375 
L 28.90625 29.203125 
Q 18.109375 30.953125 13.203125 35.15625 
Q 8.296875 39.359375 8.296875 46.6875 
Q 8.296875 54.640625 13.625 59.21875 
Q 18.953125 63.8125 28.90625 64.5 
L 28.90625 75.984375 
L 33.796875 75.984375 
L 33.796875 64.65625 
Q 38.328125 64.453125 42.578125 63.6875 
Q 46.828125 62.9375 50.875 61.625 
L 50.875 53.078125 
Q 46.828125 55.125 42.546875 56.25 
Q 38.28125 57.375 33.796875 57.5625 
L 33.796875 36.71875 
Q 44.875 35.015625 50.09375 30.609375 
Q 55.328125 26.21875 55.328125 18.609375 
Q 55.328125 10.359375 49.78125 5.59375 
Q 44.234375 0.828125 33.796875 0.09375 
z
M 28.90625 37.59375 
L 28.90625 57.625 
Q 23.25 56.984375 20.265625 54.390625 
Q 17.28125 51.8125 17.28125 47.515625 
Q 17.28125 43.3125 20.03125 40.96875 
Q 22.796875 38.625 28.90625 37.59375 
z
M 33.796875 28.21875 
L 33.796875 7.078125 
Q 39.984375 7.90625 43.140625 10.59375 
Q 46.296875 13.28125 46.296875 17.671875 
Q 46.296875 21.96875 43.28125 24.5 
Q 40.28125 27.046875 33.796875 28.21875 
z
" id="DejaVuSans-24"/>
       <path d="M 31.78125 66.40625 
Q 24.171875 66.40625 20.328125 58.90625 
Q 16.5 51.421875 16.5 36.375 
Q 16.5 21.390625 20.328125 13.890625 
Q 24.171875 6.390625 31.78125 6.390625 
Q 39.453125 6.390625 43.28125 13.890625 
Q 47.125 21.390625 47.125 36.375 
Q 47.125 51.421875 43.28125 58.90625 
Q 39.453125 66.40625 31.78125 66.40625 
z
M 31.78125 74.21875 
Q 44.046875 74.21875 50.515625 64.515625 
Q 56.984375 54.828125 56.984375 36.375 
Q 56.984375 17.96875 50.515625 8.265625 
Q 44.046875 -1.421875 31.78125 -1.421875 
Q 19.53125 -1.421875 13.0625 8.265625 
Q 6.59375 17.96875 6.59375 36.375 
Q 6.59375 54.828125 13.0625 64.515625 
Q 19.53125 74.21875 31.78125 74.21875 
z
" id="DejaVuSans-30"/>
      </defs>
      <g transform="translate(134.761903 682.558437)scale(0.1 -0.1)">
       <use xlink:href="#DejaVuSans-24"/>
       <use x="63.623047" xlink:href="#DejaVuSans-30"/>
      </g>
     </g>
    </g>
    <g id="xtick_2">
     <g id="line2d_3">
      <path clip-path="url(#p441f0bb882)" d="M 294.085412 667.96 
L 294.085412 13.32 
" style="fill:none;stroke:#b0b0b0;stroke-linecap:square;stroke-width:0.8;"/>
     </g>
     <g id="line2d_4">
      <g>
       <use style="stroke:#000000;stroke-width:0.8;" x="294.085412" xlink:href="#mf29acf8d4f" y="667.96"/>
      </g>
     </g>
     <g id="text_2">
      <!-- $5000 -->
      <defs>
       <path d="M 10.796875 72.90625 
L 49.515625 72.90625 
L 49.515625 64.59375 
L 19.828125 64.59375 
L 19.828125 46.734375 
Q 21.96875 47.46875 24.109375 47.828125 
Q 26.265625 48.1875 28.421875 48.1875 
Q 40.625 48.1875 47.75 41.5 
Q 54.890625 34.8125 54.890625 23.390625 
Q 54.890625 11.625 47.5625 5.09375 
Q 40.234375 -1.421875 26.90625 -1.421875 
Q 22.3125 -1.421875 17.546875 -0.640625 
Q 12.796875 0.140625 7.71875 1.703125 
L 7.71875 11.625 
Q 12.109375 9.234375 16.796875 8.0625 
Q 21.484375 6.890625 26.703125 6.890625 
Q 35.15625 6.890625 40.078125 11.328125 
Q 45.015625 15.765625 45.015625 23.390625 
Q 45.015625 31 40.078125 35.4375 
Q 35.15625 39.890625 26.703125 39.890625 
Q 22.75 39.890625 18.8125 39.015625 
Q 14.890625 38.140625 10.796875 36.28125 
z
" id="DejaVuSans-35"/>
      </defs>
      <g transform="translate(278.179162 682.558437)scale(0.1 -0.1)">
       <use xlink:href="#DejaVuSans-24"/>
       <use x="63.623047" xlink:href="#DejaVuSans-35"/>
       <use x="127.246094" xlink:href="#DejaVuSans-30"/>
       <use x="190.869141" xlink:href="#DejaVuSans-30"/>
       <use x="254.492188" xlink:href="#DejaVuSans-30"/>
      </g>
     </g>
    </g>
    <g id="xtick_3">
     <g id="line2d_5">
      <path clip-path="url(#p441f0bb882)" d="M 447.046421 667.96 
L 447.046421 13.32 
" style="fill:none;stroke:#b0b0b0;stroke-linecap:square;stroke-width:0.8;"/>
     </g>
     <g id="line2d_6">
      <g>
       <use style="stroke:#000000;stroke-width:0.8;" x="447.046421" xlink:href="#mf29acf8d4f" y="667.96"/>
      </g>
     </g>
     <g id="text_3">
      <!-- $10000 -->
      <defs>
       <path d="M 12.40625 8.296875 
L 28.515625 8.296875 
L 28.515625 63.921875 
L 10.984375 60.40625 
L 10.984375 69.390625 
L 28.421875 72.90625 
L 38.28125 72.90625 
L 38.28125 8.296875 
L 54.390625 8.296875 
L 54.390625 0 
L 12.40625 0 
z
" id="DejaVuSans-31"/>
      </defs>
      <g transform="translate(427.958921 682.558437)scale(0.1 -0.1)">
       <use xlink:href="#DejaVuSans-24"/>
       <use x="63.623047" xlink:href="#DejaVuSans-31"/>
       <use x="127.246094" xlink:href="#DejaVuSans-30"/>
       <use x="190.869141" xlink:href="#DejaVuSans-30"/>
       <use x="254.492188" xlink:href="#DejaVuSans-30"/>
       <use x="318.115234" xlink:href="#DejaVuSans-30"/>
      </g>
     </g>
    </g>
    <g id="xtick_4">
     <g id="line2d_7">
      <path clip-path="url(#p441f0bb882)" d="M 600.007429 667.96 
L 600.007429 13.32 
" style="fill:none;stroke:#b0b0b0;stroke-linecap:square;stroke-width:0.8;"/>
     </g>
     <g id="line2d_8">
      <g>
       <use style="stroke:#000000;stroke-width:0.8;" x="600.007429" xlink:href="#mf29acf8d4f" y="667.96"/>
      </g>
     </g>
     <g id="text_4">
      <!-- $15000 -->
      <g transform="translate(580.919929 682.558437)scale(0.1 -0.1)">
       <use xlink:href="#DejaVuSans-24"/>
       <use x="63.623047" xlink:href="#DejaVuSans-31"/>
       <use x="127.246094" xlink:href="#DejaVuSans-35"/>
       <use x="190.869141" xlink:href="#DejaVuSans-30"/>
       <use x="254.492188" xlink:href="#DejaVuSans-30"/>
       <use x="318.115234" xlink:href="#DejaVuSans-30"/>
      </g>
     </g>
    </g>
    <g id="xtick_5">
     <g id="line2d_9">
      <path clip-path="url(#p441f0bb882)" d="M 752.968438 667.96 
L 752.968438 13.32 
" style="fill:none;stroke:#b0b0b0;stroke-linecap:square;stroke-width:0.8;"/>
     </g>
     <g id="line2d_10">
      <g>
       <use style="stroke:#000000;stroke-width:0.8;" x="752.968438" xlink:href="#mf29acf8d4f" y="667.96"/>
      </g>
     </g>
     <g id="text_5">
      <!-- $20000 -->
      <defs>
       <path d="M 19.1875 8.296875 
L 53.609375 8.296875 
L 53.609375 0 
L 7.328125 0 
L 7.328125 8.296875 
Q 12.9375 14.109375 22.625 23.890625 
Q 32.328125 33.6875 34.8125 36.53125 
Q 39.546875 41.84375 41.421875 45.53125 
Q 43.3125 49.21875 43.3125 52.78125 
Q 43.3125 58.59375 39.234375 62.25 
Q 35.15625 65.921875 28.609375 65.921875 
Q 23.96875 65.921875 18.8125 64.3125 
Q 13.671875 62.703125 7.8125 59.421875 
L 7.8125 69.390625 
Q 13.765625 71.78125 18.9375 73 
Q 24.125 74.21875 28.421875 74.21875 
Q 39.75 74.21875 46.484375 68.546875 
Q 53.21875 62.890625 53.21875 53.421875 
Q 53.21875 48.921875 51.53125 44.890625 
Q 49.859375 40.875 45.40625 35.40625 
Q 44.1875 33.984375 37.640625 27.21875 
Q 31.109375 20.453125 19.1875 8.296875 
z
" id="DejaVuSans-32"/>
      </defs>
      <g transform="translate(733.880938 682.558437)scale(0.1 -0.1)">
       <use xlink:href="#DejaVuSans-24"/>
       <use x="63.623047" xlink:href="#DejaVuSans-32"/>
       <use x="127.246094" xlink:href="#DejaVuSans-30"/>
       <use x="190.869141" xlink:href="#DejaVuSans-30"/>
       <use x="254.492188" xlink:href="#DejaVuSans-30"/>
       <use x="318.115234" xlink:href="#DejaVuSans-30"/>
      </g>
     </g>
    </g>
    <g id="xtick_6">
     <g id="line2d_11">
      <path clip-path="url(#p441f0bb882)" d="M 905.929447 667.96 
L 905.929447 13.32 
" style="fill:none;stroke:#b0b0b0;stroke-linecap:square;stroke-width:0.8;"/>
     </g>
     <g id="line2d_12">
      <g>
       <use style="stroke:#000000;stroke-width:0.8;" x="905.929447" xlink:href="#mf29acf8d4f" y="667.96"/>
      </g>
     </g>
     <g id="text_6">
      <!-- $25000 -->
      <g transform="translate(886.841947 682.558437)scale(0.1 -0.1)">
       <use xlink:href="#DejaVuSans-24"/>
       <use x="63.623047" xlink:href="#DejaVuSans-32"/>
       <use x="127.246094" xlink:href="#DejaVuSans-35"/>
       <use x="190.869141" xlink:href="#DejaVuSans-30"/>
       <use x="254.492188" xlink:href="#DejaVuSans-30"/>
       <use x="318.115234" xlink:href="#DejaVuSans-30"/>
      </g>
     </g>
    </g>
    <g id="xtick_7">
     <g id="line2d_13">
      <path clip-path="url(#p441f0bb882)" d="M 1058.890455 667.96 
L 1058.890455 13.32 
" style="fill:none;stroke:#b0b0b0;stroke-linecap:square;stroke-width:0.8;"/>
     </g>
     <g id="line2d_14">
      <g>
       <use style="stroke:#000000;stroke-width:0.8;" x="1058.890455" xlink:href="#mf29acf8d4f" y="667.96"/>
      </g>
     </g>
     <g id="text_7">
      <!-- $30000 -->
      <defs>
       <path d="M 40.578125 39.3125 
Q 47.65625 37.796875 51.625 33 
Q 55.609375 28.21875 55.609375 21.1875 
Q 55.609375 10.40625 48.1875 4.484375 
Q 40.765625 -1.421875 27.09375 -1.421875 
Q 22.515625 -1.421875 17.65625 -0.515625 
Q 12.796875 0.390625 7.625 2.203125 
L 7.625 11.71875 
Q 11.71875 9.328125 16.59375 8.109375 
Q 21.484375 6.890625 26.8125 6.890625 
Q 36.078125 6.890625 40.9375 10.546875 
Q 45.796875 14.203125 45.796875 21.1875 
Q 45.796875 27.640625 41.28125 31.265625 
Q 36.765625 34.90625 28.71875 34.90625 
L 20.21875 34.90625 
L 20.21875 43.015625 
L 29.109375 43.015625 
Q 36.375 43.015625 40.234375 45.921875 
Q 44.09375 48.828125 44.09375 54.296875 
Q 44.09375 59.90625 40.109375 62.90625 
Q 36.140625 65.921875 28.71875 65.921875 
Q 24.65625 65.921875 20.015625 65.03125 
Q 15.375 64.15625 9.8125 62.3125 
L 9.8125 71.09375 
Q 15.4375 72.65625 20.34375 73.4375 
Q 25.25 74.21875 29.59375 74.21875 
Q 40.828125 74.21875 47.359375 69.109375 
Q 53.90625 64.015625 53.90625 55.328125 
Q 53.90625 49.265625 50.4375 45.09375 
Q 46.96875 40.921875 40.578125 39.3125 
z
" id="DejaVuSans-33"/>
      </defs>
      <g transform="translate(1039.802955 682.558437)scale(0.1 -0.1)">
       <use xlink:href="#DejaVuSans-24"/>
       <use x="63.623047" xlink:href="#DejaVuSans-33"/>
       <use x="127.246094" xlink:href="#DejaVuSans-30"/>
       <use x="190.869141" xlink:href="#DejaVuSans-30"/>
       <use x="254.492188" xlink:href="#DejaVuSans-30"/>
       <use x="318.115234" xlink:href="#DejaVuSans-30"/>
      </g>
     </g>
    </g>
    <g id="xtick_8">
     <g id="line2d_15">
      <path clip-path="url(#p441f0bb882)" d="M 1211.851464 667.96 
L 1211.851464 13.32 
" style="fill:none;stroke:#b0b0b0;stroke-linecap:square;stroke-width:0.8;"/>
     </g>
     <g id="line2d_16">
      <g>
       <use style="stroke:#000000;stroke-width:0.8;" x="1211.851464" xlink:href="#mf29acf8d4f" y="667.96"/>
      </g>
     </g>
     <g id="text_8">
      <!-- $35000 -->
      <g transform="translate(1192.763964 682.558437)scale(0.1 -0.1)">
       <use xlink:href="#DejaVuSans-24"/>
       <use x="63.623047" xlink:href="#DejaVuSans-33"/>
       <use x="127.246094" xlink:href="#DejaVuSans-35"/>
       <use x="190.869141" xlink:href="#DejaVuSans-30"/>
       <use x="254.492188" xlink:href="#DejaVuSans-30"/>
       <use x="318.115234" xlink:href="#DejaVuSans-30"/>
      </g>
     </g>
    </g>
    <g id="xtick_9">
     <g id="line2d_17">
      <path clip-path="url(#p441f0bb882)" d="M 1364.812473 667.96 
L 1364.812473 13.32 
" style="fill:none;stroke:#b0b0b0;stroke-linecap:square;stroke-width:0.8;"/>
     </g>
     <g id="line2d_18">
      <g>
       <use style="stroke:#000000;stroke-width:0.8;" x="1364.812473" xlink:href="#mf29acf8d4f" y="667.96"/>
      </g>
     </g>
     <g id="text_9">
      <!-- $40000 -->
      <defs>
       <path d="M 37.796875 64.3125 
L 12.890625 25.390625 
L 37.796875 25.390625 
z
M 35.203125 72.90625 
L 47.609375 72.90625 
L 47.609375 25.390625 
L 58.015625 25.390625 
L 58.015625 17.1875 
L 47.609375 17.1875 
L 47.609375 0 
L 37.796875 0 
L 37.796875 17.1875 
L 4.890625 17.1875 
L 4.890625 26.703125 
z
" id="DejaVuSans-34"/>
      </defs>
      <g transform="translate(1345.724973 682.558437)scale(0.1 -0.1)">
       <use xlink:href="#DejaVuSans-24"/>
       <use x="63.623047" xlink:href="#DejaVuSans-34"/>
       <use x="127.246094" xlink:href="#DejaVuSans-30"/>
       <use x="190.869141" xlink:href="#DejaVuSans-30"/>
       <use x="254.492188" xlink:href="#DejaVuSans-30"/>
       <use x="318.115234" xlink:href="#DejaVuSans-30"/>
      </g>
     </g>
    </g>
    <g id="text_10">
     <!-- Raised in 2017 -->
     <defs>
      <path d="M 44.390625 34.1875 
Q 47.5625 33.109375 50.5625 29.59375 
Q 53.5625 26.078125 56.59375 19.921875 
L 66.609375 0 
L 56 0 
L 46.6875 18.703125 
Q 43.0625 26.03125 39.671875 28.421875 
Q 36.28125 30.8125 30.421875 30.8125 
L 19.671875 30.8125 
L 19.671875 0 
L 9.8125 0 
L 9.8125 72.90625 
L 32.078125 72.90625 
Q 44.578125 72.90625 50.734375 67.671875 
Q 56.890625 62.453125 56.890625 51.90625 
Q 56.890625 45.015625 53.6875 40.46875 
Q 50.484375 35.9375 44.390625 34.1875 
z
M 19.671875 64.796875 
L 19.671875 38.921875 
L 32.078125 38.921875 
Q 39.203125 38.921875 42.84375 42.21875 
Q 46.484375 45.515625 46.484375 51.90625 
Q 46.484375 58.296875 42.84375 61.546875 
Q 39.203125 64.796875 32.078125 64.796875 
z
" id="DejaVuSans-52"/>
      <path d="M 34.28125 27.484375 
Q 23.390625 27.484375 19.1875 25 
Q 14.984375 22.515625 14.984375 16.5 
Q 14.984375 11.71875 18.140625 8.90625 
Q 21.296875 6.109375 26.703125 6.109375 
Q 34.1875 6.109375 38.703125 11.40625 
Q 43.21875 16.703125 43.21875 25.484375 
L 43.21875 27.484375 
z
M 52.203125 31.203125 
L 52.203125 0 
L 43.21875 0 
L 43.21875 8.296875 
Q 40.140625 3.328125 35.546875 0.953125 
Q 30.953125 -1.421875 24.3125 -1.421875 
Q 15.921875 -1.421875 10.953125 3.296875 
Q 6 8.015625 6 15.921875 
Q 6 25.140625 12.171875 29.828125 
Q 18.359375 34.515625 30.609375 34.515625 
L 43.21875 34.515625 
L 43.21875 35.40625 
Q 43.21875 41.609375 39.140625 45 
Q 35.0625 48.390625 27.6875 48.390625 
Q 23 48.390625 18.546875 47.265625 
Q 14.109375 46.140625 10.015625 43.890625 
L 10.015625 52.203125 
Q 14.9375 54.109375 19.578125 55.046875 
Q 24.21875 56 28.609375 56 
Q 40.484375 56 46.34375 49.84375 
Q 52.203125 43.703125 52.203125 31.203125 
z
" id="DejaVuSans-61"/>
      <path d="M 9.421875 54.6875 
L 18.40625 54.6875 
L 18.40625 0 
L 9.421875 0 
z
M 9.421875 75.984375 
L 18.40625 75.984375 
L 18.40625 64.59375 
L 9.421875 64.59375 
z
" id="DejaVuSans-69"/>
      <path d="M 44.28125 53.078125 
L 44.28125 44.578125 
Q 40.484375 46.53125 36.375 47.5 
Q 32.28125 48.484375 27.875 48.484375 
Q 21.1875 48.484375 17.84375 46.4375 
Q 14.5 44.390625 14.5 40.28125 
Q 14.5 37.15625 16.890625 35.375 
Q 19.28125 33.59375 26.515625 31.984375 
L 29.59375 31.296875 
Q 39.15625 29.25 43.1875 25.515625 
Q 47.21875 21.78125 47.21875 15.09375 
Q 47.21875 7.46875 41.1875 3.015625 
Q 35.15625 -1.421875 24.609375 -1.421875 
Q 20.21875 -1.421875 15.453125 -0.5625 
Q 10.6875 0.296875 5.421875 2 
L 5.421875 11.28125 
Q 10.40625 8.6875 15.234375 7.390625 
Q 20.0625 6.109375 24.8125 6.109375 
Q 31.15625 6.109375 34.5625 8.28125 
Q 37.984375 10.453125 37.984375 14.40625 
Q 37.984375 18.0625 35.515625 20.015625 
Q 33.0625 21.96875 24.703125 23.78125 
L 21.578125 24.515625 
Q 13.234375 26.265625 9.515625 29.90625 
Q 5.8125 33.546875 5.8125 39.890625 
Q 5.8125 47.609375 11.28125 51.796875 
Q 16.75 56 26.8125 56 
Q 31.78125 56 36.171875 55.265625 
Q 40.578125 54.546875 44.28125 53.078125 
z
" id="DejaVuSans-73"/>
      <path d="M 56.203125 29.59375 
L 56.203125 25.203125 
L 14.890625 25.203125 
Q 15.484375 15.921875 20.484375 11.0625 
Q 25.484375 6.203125 34.421875 6.203125 
Q 39.59375 6.203125 44.453125 7.46875 
Q 49.3125 8.734375 54.109375 11.28125 
L 54.109375 2.78125 
Q 49.265625 0.734375 44.1875 -0.34375 
Q 39.109375 -1.421875 33.890625 -1.421875 
Q 20.796875 -1.421875 13.15625 6.1875 
Q 5.515625 13.8125 5.515625 26.8125 
Q 5.515625 40.234375 12.765625 48.109375 
Q 20.015625 56 32.328125 56 
Q 43.359375 56 49.78125 48.890625 
Q 56.203125 41.796875 56.203125 29.59375 
z
M 47.21875 32.234375 
Q 47.125 39.59375 43.09375 43.984375 
Q 39.0625 48.390625 32.421875 48.390625 
Q 24.90625 48.390625 20.390625 44.140625 
Q 15.875 39.890625 15.1875 32.171875 
z
" id="DejaVuSans-65"/>
      <path d="M 45.40625 46.390625 
L 45.40625 75.984375 
L 54.390625 75.984375 
L 54.390625 0 
L 45.40625 0 
L 45.40625 8.203125 
Q 42.578125 3.328125 38.25 0.953125 
Q 33.9375 -1.421875 27.875 -1.421875 
Q 17.96875 -1.421875 11.734375 6.484375 
Q 5.515625 14.40625 5.515625 27.296875 
Q 5.515625 40.1875 11.734375 48.09375 
Q 17.96875 56 27.875 56 
Q 33.9375 56 38.25 53.625 
Q 42.578125 51.265625 45.40625 46.390625 
z
M 14.796875 27.296875 
Q 14.796875 17.390625 18.875 11.75 
Q 22.953125 6.109375 30.078125 6.109375 
Q 37.203125 6.109375 41.296875 11.75 
Q 45.40625 17.390625 45.40625 27.296875 
Q 45.40625 37.203125 41.296875 42.84375 
Q 37.203125 48.484375 30.078125 48.484375 
Q 22.953125 48.484375 18.875 42.84375 
Q 14.796875 37.203125 14.796875 27.296875 
z
" id="DejaVuSans-64"/>
      <path id="DejaVuSans-20"/>
      <path d="M 54.890625 33.015625 
L 54.890625 0 
L 45.90625 0 
L 45.90625 32.71875 
Q 45.90625 40.484375 42.875 44.328125 
Q 39.84375 48.1875 33.796875 48.1875 
Q 26.515625 48.1875 22.3125 43.546875 
Q 18.109375 38.921875 18.109375 30.90625 
L 18.109375 0 
L 9.078125 0 
L 9.078125 54.6875 
L 18.109375 54.6875 
L 18.109375 46.1875 
Q 21.34375 51.125 25.703125 53.5625 
Q 30.078125 56 35.796875 56 
Q 45.21875 56 50.046875 50.171875 
Q 54.890625 44.34375 54.890625 33.015625 
z
" id="DejaVuSans-6e"/>
      <path d="M 8.203125 72.90625 
L 55.078125 72.90625 
L 55.078125 68.703125 
L 28.609375 0 
L 18.3125 0 
L 43.21875 64.59375 
L 8.203125 64.59375 
z
" id="DejaVuSans-37"/>
     </defs>
     <g transform="translate(678.825625 703.835)scale(0.2 -0.2)">
      <use xlink:href="#DejaVuSans-52"/>
      <use x="69.451172" xlink:href="#DejaVuSans-61"/>
      <use x="130.730469" xlink:href="#DejaVuSans-69"/>
      <use x="158.513672" xlink:href="#DejaVuSans-73"/>
      <use x="210.613281" xlink:href="#DejaVuSans-65"/>
      <use x="272.136719" xlink:href="#DejaVuSans-64"/>
      <use x="335.613281" xlink:href="#DejaVuSans-20"/>
      <use x="367.400391" xlink:href="#DejaVuSans-69"/>
      <use x="395.183594" xlink:href="#DejaVuSans-6e"/>
      <use x="458.5625" xlink:href="#DejaVuSans-20"/>
      <use x="490.349609" xlink:href="#DejaVuSans-32"/>
      <use x="553.972656" xlink:href="#DejaVuSans-30"/>
      <use x="617.595703" xlink:href="#DejaVuSans-31"/>
      <use x="681.21875" xlink:href="#DejaVuSans-37"/>
     </g>
    </g>
   </g>
   <g id="matplotlib.axis_2">
    <g id="ytick_1">
     <g id="line2d_19">
      <path clip-path="url(#p441f0bb882)" d="M 79.94 592.75653 
L 1426.68 592.75653 
" style="fill:none;stroke:#b0b0b0;stroke-linecap:square;stroke-width:0.8;"/>
     </g>
     <g id="line2d_20">
      <defs>
       <path d="M 0 0 
L -3.5 0 
" id="m25ee6a1117" style="stroke:#000000;stroke-width:0.8;"/>
      </defs>
      <g>
       <use style="stroke:#000000;stroke-width:0.8;" x="79.94" xlink:href="#m25ee6a1117" y="592.75653"/>
      </g>
     </g>
     <g id="text_11">
      <!-- $0 -->
      <g transform="translate(60.215 596.555749)scale(0.1 -0.1)">
       <use xlink:href="#DejaVuSans-24"/>
       <use x="63.623047" xlink:href="#DejaVuSans-30"/>
      </g>
     </g>
    </g>
    <g id="ytick_2">
     <g id="line2d_21">
      <path clip-path="url(#p441f0bb882)" d="M 79.94 498.752193 
L 1426.68 498.752193 
" style="fill:none;stroke:#b0b0b0;stroke-linecap:square;stroke-width:0.8;"/>
     </g>
     <g id="line2d_22">
      <g>
       <use style="stroke:#000000;stroke-width:0.8;" x="79.94" xlink:href="#m25ee6a1117" y="498.752193"/>
      </g>
     </g>
     <g id="text_12">
      <!-- $5000 -->
      <g transform="translate(41.1275 502.551412)scale(0.1 -0.1)">
       <use xlink:href="#DejaVuSans-24"/>
       <use x="63.623047" xlink:href="#DejaVuSans-35"/>
       <use x="127.246094" xlink:href="#DejaVuSans-30"/>
       <use x="190.869141" xlink:href="#DejaVuSans-30"/>
       <use x="254.492188" xlink:href="#DejaVuSans-30"/>
      </g>
     </g>
    </g>
    <g id="ytick_3">
     <g id="line2d_23">
      <path clip-path="url(#p441f0bb882)" d="M 79.94 404.747856 
L 1426.68 404.747856 
" style="fill:none;stroke:#b0b0b0;stroke-linecap:square;stroke-width:0.8;"/>
     </g>
     <g id="line2d_24">
      <g>
       <use style="stroke:#000000;stroke-width:0.8;" x="79.94" xlink:href="#m25ee6a1117" y="404.747856"/>
      </g>
     </g>
     <g id="text_13">
      <!-- $10000 -->
      <g transform="translate(34.765 408.547075)scale(0.1 -0.1)">
       <use xlink:href="#DejaVuSans-24"/>
       <use x="63.623047" xlink:href="#DejaVuSans-31"/>
       <use x="127.246094" xlink:href="#DejaVuSans-30"/>
       <use x="190.869141" xlink:href="#DejaVuSans-30"/>
       <use x="254.492188" xlink:href="#DejaVuSans-30"/>
       <use x="318.115234" xlink:href="#DejaVuSans-30"/>
      </g>
     </g>
    </g>
    <g id="ytick_4">
     <g id="line2d_25">
      <path clip-path="url(#p441f0bb882)" d="M 79.94 310.743519 
L 1426.68 310.743519 
" style="fill:none;stroke:#b0b0b0;stroke-linecap:square;stroke-width:0.8;"/>
     </g>
     <g id="line2d_26">
      <g>
       <use style="stroke:#000000;stroke-width:0.8;" x="79.94" xlink:href="#m25ee6a1117" y="310.743519"/>
      </g>
     </g>
     <g id="text_14">
      <!-- $15000 -->
      <g transform="translate(34.765 314.542737)scale(0.1 -0.1)">
       <use xlink:href="#DejaVuSans-24"/>
       <use x="63.623047" xlink:href="#DejaVuSans-31"/>
       <use x="127.246094" xlink:href="#DejaVuSans-35"/>
       <use x="190.869141" xlink:href="#DejaVuSans-30"/>
       <use x="254.492188" xlink:href="#DejaVuSans-30"/>
       <use x="318.115234" xlink:href="#DejaVuSans-30"/>
      </g>
     </g>
    </g>
    <g id="ytick_5">
     <g id="line2d_27">
      <path clip-path="url(#p441f0bb882)" d="M 79.94 216.739181 
L 1426.68 216.739181 
" style="fill:none;stroke:#b0b0b0;stroke-linecap:square;stroke-width:0.8;"/>
     </g>
     <g id="line2d_28">
      <g>
       <use style="stroke:#000000;stroke-width:0.8;" x="79.94" xlink:href="#m25ee6a1117" y="216.739181"/>
      </g>
     </g>
     <g id="text_15">
      <!-- $20000 -->
      <g transform="translate(34.765 220.5384)scale(0.1 -0.1)">
       <use xlink:href="#DejaVuSans-24"/>
       <use x="63.623047" xlink:href="#DejaVuSans-32"/>
       <use x="127.246094" xlink:href="#DejaVuSans-30"/>
       <use x="190.869141" xlink:href="#DejaVuSans-30"/>
       <use x="254.492188" xlink:href="#DejaVuSans-30"/>
       <use x="318.115234" xlink:href="#DejaVuSans-30"/>
      </g>
     </g>
    </g>
    <g id="ytick_6">
     <g id="line2d_29">
      <path clip-path="url(#p441f0bb882)" d="M 79.94 122.734844 
L 1426.68 122.734844 
" style="fill:none;stroke:#b0b0b0;stroke-linecap:square;stroke-width:0.8;"/>
     </g>
     <g id="line2d_30">
      <g>
       <use style="stroke:#000000;stroke-width:0.8;" x="79.94" xlink:href="#m25ee6a1117" y="122.734844"/>
      </g>
     </g>
     <g id="text_16">
      <!-- $25000 -->
      <g transform="translate(34.765 126.534063)scale(0.1 -0.1)">
       <use xlink:href="#DejaVuSans-24"/>
       <use x="63.623047" xlink:href="#DejaVuSans-32"/>
       <use x="127.246094" xlink:href="#DejaVuSans-35"/>
       <use x="190.869141" xlink:href="#DejaVuSans-30"/>
       <use x="254.492188" xlink:href="#DejaVuSans-30"/>
       <use x="318.115234" xlink:href="#DejaVuSans-30"/>
      </g>
     </g>
    </g>
    <g id="ytick_7">
     <g id="line2d_31">
      <path clip-path="url(#p441f0bb882)" d="M 79.94 28.730507 
L 1426.68 28.730507 
" style="fill:none;stroke:#b0b0b0;stroke-linecap:square;stroke-width:0.8;"/>
     </g>
     <g id="line2d_32">
      <g>
       <use style="stroke:#000000;stroke-width:0.8;" x="79.94" xlink:href="#m25ee6a1117" y="28.730507"/>
      </g>
     </g>
     <g id="text_17">
      <!-- $30000 -->
      <g transform="translate(34.765 32.529726)scale(0.1 -0.1)">
       <use xlink:href="#DejaVuSans-24"/>
       <use x="63.623047" xlink:href="#DejaVuSans-33"/>
       <use x="127.246094" xlink:href="#DejaVuSans-30"/>
       <use x="190.869141" xlink:href="#DejaVuSans-30"/>
       <use x="254.492188" xlink:href="#DejaVuSans-30"/>
       <use x="318.115234" xlink:href="#DejaVuSans-30"/>
      </g>
     </g>
    </g>
    <g id="text_18">
     <!-- Spent in 2017 -->
     <defs>
      <path d="M 53.515625 70.515625 
L 53.515625 60.890625 
Q 47.90625 63.578125 42.921875 64.890625 
Q 37.9375 66.21875 33.296875 66.21875 
Q 25.25 66.21875 20.875 63.09375 
Q 16.5 59.96875 16.5 54.203125 
Q 16.5 49.359375 19.40625 46.890625 
Q 22.3125 44.4375 30.421875 42.921875 
L 36.375 41.703125 
Q 47.40625 39.59375 52.65625 34.296875 
Q 57.90625 29 57.90625 20.125 
Q 57.90625 9.515625 50.796875 4.046875 
Q 43.703125 -1.421875 29.984375 -1.421875 
Q 24.8125 -1.421875 18.96875 -0.25 
Q 13.140625 0.921875 6.890625 3.21875 
L 6.890625 13.375 
Q 12.890625 10.015625 18.65625 8.296875 
Q 24.421875 6.59375 29.984375 6.59375 
Q 38.421875 6.59375 43.015625 9.90625 
Q 47.609375 13.234375 47.609375 19.390625 
Q 47.609375 24.75 44.3125 27.78125 
Q 41.015625 30.8125 33.5 32.328125 
L 27.484375 33.5 
Q 16.453125 35.6875 11.515625 40.375 
Q 6.59375 45.0625 6.59375 53.421875 
Q 6.59375 63.09375 13.40625 68.65625 
Q 20.21875 74.21875 32.171875 74.21875 
Q 37.3125 74.21875 42.625 73.28125 
Q 47.953125 72.359375 53.515625 70.515625 
z
" id="DejaVuSans-53"/>
      <path d="M 18.109375 8.203125 
L 18.109375 -20.796875 
L 9.078125 -20.796875 
L 9.078125 54.6875 
L 18.109375 54.6875 
L 18.109375 46.390625 
Q 20.953125 51.265625 25.265625 53.625 
Q 29.59375 56 35.59375 56 
Q 45.5625 56 51.78125 48.09375 
Q 58.015625 40.1875 58.015625 27.296875 
Q 58.015625 14.40625 51.78125 6.484375 
Q 45.5625 -1.421875 35.59375 -1.421875 
Q 29.59375 -1.421875 25.265625 0.953125 
Q 20.953125 3.328125 18.109375 8.203125 
z
M 48.6875 27.296875 
Q 48.6875 37.203125 44.609375 42.84375 
Q 40.53125 48.484375 33.40625 48.484375 
Q 26.265625 48.484375 22.1875 42.84375 
Q 18.109375 37.203125 18.109375 27.296875 
Q 18.109375 17.390625 22.1875 11.75 
Q 26.265625 6.109375 33.40625 6.109375 
Q 40.53125 6.109375 44.609375 11.75 
Q 48.6875 17.390625 48.6875 27.296875 
z
" id="DejaVuSans-70"/>
      <path d="M 18.3125 70.21875 
L 18.3125 54.6875 
L 36.8125 54.6875 
L 36.8125 47.703125 
L 18.3125 47.703125 
L 18.3125 18.015625 
Q 18.3125 11.328125 20.140625 9.421875 
Q 21.96875 7.515625 27.59375 7.515625 
L 36.8125 7.515625 
L 36.8125 0 
L 27.59375 0 
Q 17.1875 0 13.234375 3.875 
Q 9.28125 7.765625 9.28125 18.015625 
L 9.28125 47.703125 
L 2.6875 47.703125 
L 2.6875 54.6875 
L 9.28125 54.6875 
L 9.28125 70.21875 
z
" id="DejaVuSans-74"/>
     </defs>
     <g transform="translate(26.605625 410.669688)rotate(-90)scale(0.2 -0.2)">
      <use xlink:href="#DejaVuSans-53"/>
      <use x="63.476562" xlink:href="#DejaVuSans-70"/>
      <use x="126.953125" xlink:href="#DejaVuSans-65"/>
      <use x="188.476562" xlink:href="#DejaVuSans-6e"/>
      <use x="251.855469" xlink:href="#DejaVuSans-74"/>
      <use x="291.064453" xlink:href="#DejaVuSans-20"/>
      <use x="322.851562" xlink:href="#DejaVuSans-69"/>
      <use x="350.634766" xlink:href="#DejaVuSans-6e"/>
      <use x="414.013672" xlink:href="#DejaVuSans-20"/>
      <use x="445.800781" xlink:href="#DejaVuSans-32"/>
      <use x="509.423828" xlink:href="#DejaVuSans-30"/>
      <use x="573.046875" xlink:href="#DejaVuSans-31"/>
      <use x="636.669922" xlink:href="#DejaVuSans-37"/>
     </g>
    </g>
   </g>
   <g id="patch_3">
    <path d="M 79.94 667.96 
L 79.94 13.32 
" style="fill:none;stroke:#000000;stroke-linecap:square;stroke-linejoin:miter;stroke-width:0.8;"/>
   </g>
   <g id="patch_4">
    <path d="M 1426.68 667.96 
L 1426.68 13.32 
" style="fill:none;stroke:#000000;stroke-linecap:square;stroke-linejoin:miter;stroke-width:0.8;"/>
   </g>
   <g id="patch_5">
    <path d="M 79.94 667.96 
L 1426.68 667.96 
" style="fill:none;stroke:#000000;stroke-linecap:square;stroke-linejoin:miter;stroke-width:0.8;"/>
   </g>
   <g id="patch_6">
    <path d="M 79.94 13.32 
L 1426.68 13.32 
" style="fill:none;stroke:#000000;stroke-linecap:square;stroke-linejoin:miter;stroke-width:0.8;"/>
   </g>
   <g id="text_19">
    <!-- Operating Balance -->
    <defs>
     <path d="M 39.40625 66.21875 
Q 28.65625 66.21875 22.328125 58.203125 
Q 16.015625 50.203125 16.015625 36.375 
Q 16.015625 22.609375 22.328125 14.59375 
Q 28.65625 6.59375 39.40625 6.59375 
Q 50.140625 6.59375 56.421875 14.59375 
Q 62.703125 22.609375 62.703125 36.375 
Q 62.703125 50.203125 56.421875 58.203125 
Q 50.140625 66.21875 39.40625 66.21875 
z
M 39.40625 74.21875 
Q 54.734375 74.21875 63.90625 63.9375 
Q 73.09375 53.65625 73.09375 36.375 
Q 73.09375 19.140625 63.90625 8.859375 
Q 54.734375 -1.421875 39.40625 -1.421875 
Q 24.03125 -1.421875 14.8125 8.828125 
Q 5.609375 19.09375 5.609375 36.375 
Q 5.609375 53.65625 14.8125 63.9375 
Q 24.03125 74.21875 39.40625 74.21875 
z
" id="DejaVuSans-4f"/>
     <path d="M 41.109375 46.296875 
Q 39.59375 47.171875 37.8125 47.578125 
Q 36.03125 48 33.890625 48 
Q 26.265625 48 22.1875 43.046875 
Q 18.109375 38.09375 18.109375 28.8125 
L 18.109375 0 
L 9.078125 0 
L 9.078125 54.6875 
L 18.109375 54.6875 
L 18.109375 46.1875 
Q 20.953125 51.171875 25.484375 53.578125 
Q 30.03125 56 36.53125 56 
Q 37.453125 56 38.578125 55.875 
Q 39.703125 55.765625 41.0625 55.515625 
z
" id="DejaVuSans-72"/>
     <path d="M 45.40625 27.984375 
Q 45.40625 37.75 41.375 43.109375 
Q 37.359375 48.484375 30.078125 48.484375 
Q 22.859375 48.484375 18.828125 43.109375 
Q 14.796875 37.75 14.796875 27.984375 
Q 14.796875 18.265625 18.828125 12.890625 
Q 22.859375 7.515625 30.078125 7.515625 
Q 37.359375 7.515625 41.375 12.890625 
Q 45.40625 18.265625 45.40625 27.984375 
z
M 54.390625 6.78125 
Q 54.390625 -7.171875 48.1875 -13.984375 
Q 42 -20.796875 29.203125 -20.796875 
Q 24.46875 -20.796875 20.265625 -20.09375 
Q 16.0625 -19.390625 12.109375 -17.921875 
L 12.109375 -9.1875 
Q 16.0625 -11.328125 19.921875 -12.34375 
Q 23.78125 -13.375 27.78125 -13.375 
Q 36.625 -13.375 41.015625 -8.765625 
Q 45.40625 -4.15625 45.40625 5.171875 
L 45.40625 9.625 
Q 42.625 4.78125 38.28125 2.390625 
Q 33.9375 0 27.875 0 
Q 17.828125 0 11.671875 7.65625 
Q 5.515625 15.328125 5.515625 27.984375 
Q 5.515625 40.671875 11.671875 48.328125 
Q 17.828125 56 27.875 56 
Q 33.9375 56 38.28125 53.609375 
Q 42.625 51.21875 45.40625 46.390625 
L 45.40625 54.6875 
L 54.390625 54.6875 
z
" id="DejaVuSans-67"/>
     <path d="M 19.671875 34.8125 
L 19.671875 8.109375 
L 35.5 8.109375 
Q 43.453125 8.109375 47.28125 11.40625 
Q 51.125 14.703125 51.125 21.484375 
Q 51.125 28.328125 47.28125 31.5625 
Q 43.453125 34.8125 35.5 34.8125 
z
M 19.671875 64.796875 
L 19.671875 42.828125 
L 34.28125 42.828125 
Q 41.5 42.828125 45.03125 45.53125 
Q 48.578125 48.25 48.578125 53.8125 
Q 48.578125 59.328125 45.03125 62.0625 
Q 41.5 64.796875 34.28125 64.796875 
z
M 9.8125 72.90625 
L 35.015625 72.90625 
Q 46.296875 72.90625 52.390625 68.21875 
Q 58.5 63.53125 58.5 54.890625 
Q 58.5 48.1875 55.375 44.234375 
Q 52.25 40.28125 46.1875 39.3125 
Q 53.46875 37.75 57.5 32.78125 
Q 61.53125 27.828125 61.53125 20.40625 
Q 61.53125 10.640625 54.890625 5.3125 
Q 48.25 0 35.984375 0 
L 9.8125 0 
z
" id="DejaVuSans-42"/>
     <path d="M 9.421875 75.984375 
L 18.40625 75.984375 
L 18.40625 0 
L 9.421875 0 
z
" id="DejaVuSans-6c"/>
     <path d="M 48.78125 52.59375 
L 48.78125 44.1875 
Q 44.96875 46.296875 41.140625 47.34375 
Q 37.3125 48.390625 33.40625 48.390625 
Q 24.65625 48.390625 19.8125 42.84375 
Q 14.984375 37.3125 14.984375 27.296875 
Q 14.984375 17.28125 19.8125 11.734375 
Q 24.65625 6.203125 33.40625 6.203125 
Q 37.3125 6.203125 41.140625 7.25 
Q 44.96875 8.296875 48.78125 10.40625 
L 48.78125 2.09375 
Q 45.015625 0.34375 40.984375 -0.53125 
Q 36.96875 -1.421875 32.421875 -1.421875 
Q 20.0625 -1.421875 12.78125 6.34375 
Q 5.515625 14.109375 5.515625 27.296875 
Q 5.515625 40.671875 12.859375 48.328125 
Q 20.21875 56 33.015625 56 
Q 37.15625 56 41.109375 55.140625 
Q 45.0625 54.296875 48.78125 52.59375 
z
" id="DejaVuSans-63"/>
    </defs>
    <g transform="translate(660.250625 33.99275)scale(0.2 -0.2)">
     <use xlink:href="#DejaVuSans-4f"/>
     <use x="78.710938" xlink:href="#DejaVuSans-70"/>
     <use x="142.1875" xlink:href="#DejaVuSans-65"/>
     <use x="203.710938" xlink:href="#DejaVuSans-72"/>
     <use x="244.824219" xlink:href="#DejaVuSans-61"/>
     <use x="306.103516" xlink:href="#DejaVuSans-74"/>
     <use x="345.3125" xlink:href="#DejaVuSans-69"/>
     <use x="373.095703" xlink:href="#DejaVuSans-6e"/>
     <use x="436.474609" xlink:href="#DejaVuSans-67"/>
     <use x="499.951172" xlink:href="#DejaVuSans-20"/>
     <use x="531.738281" xlink:href="#DejaVuSans-42"/>
     <use x="600.341797" xlink:href="#DejaVuSans-61"/>
     <use x="661.621094" xlink:href="#DejaVuSans-6c"/>
     <use x="689.404297" xlink:href="#DejaVuSans-61"/>
     <use x="750.683594" xlink:href="#DejaVuSans-6e"/>
     <use x="814.0625" xlink:href="#DejaVuSans-63"/>
     <use x="869.042969" xlink:href="#DejaVuSans-65"/>
    </g>
    <!-- for City Council Candidates -->
    <defs>
     <path d="M 37.109375 75.984375 
L 37.109375 68.5 
L 28.515625 68.5 
Q 23.6875 68.5 21.796875 66.546875 
Q 19.921875 64.59375 19.921875 59.515625 
L 19.921875 54.6875 
L 34.71875 54.6875 
L 34.71875 47.703125 
L 19.921875 47.703125 
L 19.921875 0 
L 10.890625 0 
L 10.890625 47.703125 
L 2.296875 47.703125 
L 2.296875 54.6875 
L 10.890625 54.6875 
L 10.890625 58.5 
Q 10.890625 67.625 15.140625 71.796875 
Q 19.390625 75.984375 28.609375 75.984375 
z
" id="DejaVuSans-66"/>
     <path d="M 30.609375 48.390625 
Q 23.390625 48.390625 19.1875 42.75 
Q 14.984375 37.109375 14.984375 27.296875 
Q 14.984375 17.484375 19.15625 11.84375 
Q 23.34375 6.203125 30.609375 6.203125 
Q 37.796875 6.203125 41.984375 11.859375 
Q 46.1875 17.53125 46.1875 27.296875 
Q 46.1875 37.015625 41.984375 42.703125 
Q 37.796875 48.390625 30.609375 48.390625 
z
M 30.609375 56 
Q 42.328125 56 49.015625 48.375 
Q 55.71875 40.765625 55.71875 27.296875 
Q 55.71875 13.875 49.015625 6.21875 
Q 42.328125 -1.421875 30.609375 -1.421875 
Q 18.84375 -1.421875 12.171875 6.21875 
Q 5.515625 13.875 5.515625 27.296875 
Q 5.515625 40.765625 12.171875 48.375 
Q 18.84375 56 30.609375 56 
z
" id="DejaVuSans-6f"/>
     <path d="M 64.40625 67.28125 
L 64.40625 56.890625 
Q 59.421875 61.53125 53.78125 63.8125 
Q 48.140625 66.109375 41.796875 66.109375 
Q 29.296875 66.109375 22.65625 58.46875 
Q 16.015625 50.828125 16.015625 36.375 
Q 16.015625 21.96875 22.65625 14.328125 
Q 29.296875 6.6875 41.796875 6.6875 
Q 48.140625 6.6875 53.78125 8.984375 
Q 59.421875 11.28125 64.40625 15.921875 
L 64.40625 5.609375 
Q 59.234375 2.09375 53.4375 0.328125 
Q 47.65625 -1.421875 41.21875 -1.421875 
Q 24.65625 -1.421875 15.125 8.703125 
Q 5.609375 18.84375 5.609375 36.375 
Q 5.609375 53.953125 15.125 64.078125 
Q 24.65625 74.21875 41.21875 74.21875 
Q 47.75 74.21875 53.53125 72.484375 
Q 59.328125 70.75 64.40625 67.28125 
z
" id="DejaVuSans-43"/>
     <path d="M 32.171875 -5.078125 
Q 28.375 -14.84375 24.75 -17.8125 
Q 21.140625 -20.796875 15.09375 -20.796875 
L 7.90625 -20.796875 
L 7.90625 -13.28125 
L 13.1875 -13.28125 
Q 16.890625 -13.28125 18.9375 -11.515625 
Q 21 -9.765625 23.484375 -3.21875 
L 25.09375 0.875 
L 2.984375 54.6875 
L 12.5 54.6875 
L 29.59375 11.921875 
L 46.6875 54.6875 
L 56.203125 54.6875 
z
" id="DejaVuSans-79"/>
     <path d="M 8.5 21.578125 
L 8.5 54.6875 
L 17.484375 54.6875 
L 17.484375 21.921875 
Q 17.484375 14.15625 20.5 10.265625 
Q 23.53125 6.390625 29.59375 6.390625 
Q 36.859375 6.390625 41.078125 11.03125 
Q 45.3125 15.671875 45.3125 23.6875 
L 45.3125 54.6875 
L 54.296875 54.6875 
L 54.296875 0 
L 45.3125 0 
L 45.3125 8.40625 
Q 42.046875 3.421875 37.71875 1 
Q 33.40625 -1.421875 27.6875 -1.421875 
Q 18.265625 -1.421875 13.375 4.4375 
Q 8.5 10.296875 8.5 21.578125 
z
M 31.109375 56 
z
" id="DejaVuSans-75"/>
    </defs>
    <g transform="translate(617.26 56.388375)scale(0.2 -0.2)">
     <use xlink:href="#DejaVuSans-66"/>
     <use x="35.205078" xlink:href="#DejaVuSans-6f"/>
     <use x="96.386719" xlink:href="#DejaVuSans-72"/>
     <use x="137.5" xlink:href="#DejaVuSans-20"/>
     <use x="169.287109" xlink:href="#DejaVuSans-43"/>
     <use x="239.111328" xlink:href="#DejaVuSans-69"/>
     <use x="266.894531" xlink:href="#DejaVuSans-74"/>
     <use x="306.103516" xlink:href="#DejaVuSans-79"/>
     <use x="365.283203" xlink:href="#DejaVuSans-20"/>
     <use x="397.070312" xlink:href="#DejaVuSans-43"/>
     <use x="466.894531" xlink:href="#DejaVuSans-6f"/>
     <use x="528.076172" xlink:href="#DejaVuSans-75"/>
     <use x="591.455078" xlink:href="#DejaVuSans-6e"/>
     <use x="654.833984" xlink:href="#DejaVuSans-63"/>
     <use x="709.814453" xlink:href="#DejaVuSans-69"/>
     <use x="737.597656" xlink:href="#DejaVuSans-6c"/>
     <use x="765.380859" xlink:href="#DejaVuSans-20"/>
     <use x="797.167969" xlink:href="#DejaVuSans-43"/>
     <use x="866.992188" xlink:href="#DejaVuSans-61"/>
     <use x="928.271484" xlink:href="#DejaVuSans-6e"/>
     <use x="991.650391" xlink:href="#DejaVuSans-64"/>
     <use x="1055.126953" xlink:href="#DejaVuSans-69"/>
     <use x="1082.910156" xlink:href="#DejaVuSans-64"/>
     <use x="1146.386719" xlink:href="#DejaVuSans-61"/>
     <use x="1207.666016" xlink:href="#DejaVuSans-74"/>
     <use x="1246.875" xlink:href="#DejaVuSans-65"/>
     <use x="1308.398438" xlink:href="#DejaVuSans-73"/>
    </g>
    <!-- Cambridge, MA (8/2017) -->
    <defs>
     <path d="M 52 44.1875 
Q 55.375 50.25 60.0625 53.125 
Q 64.75 56 71.09375 56 
Q 79.640625 56 84.28125 50.015625 
Q 88.921875 44.046875 88.921875 33.015625 
L 88.921875 0 
L 79.890625 0 
L 79.890625 32.71875 
Q 79.890625 40.578125 77.09375 44.375 
Q 74.3125 48.1875 68.609375 48.1875 
Q 61.625 48.1875 57.5625 43.546875 
Q 53.515625 38.921875 53.515625 30.90625 
L 53.515625 0 
L 44.484375 0 
L 44.484375 32.71875 
Q 44.484375 40.625 41.703125 44.40625 
Q 38.921875 48.1875 33.109375 48.1875 
Q 26.21875 48.1875 22.15625 43.53125 
Q 18.109375 38.875 18.109375 30.90625 
L 18.109375 0 
L 9.078125 0 
L 9.078125 54.6875 
L 18.109375 54.6875 
L 18.109375 46.1875 
Q 21.1875 51.21875 25.484375 53.609375 
Q 29.78125 56 35.6875 56 
Q 41.65625 56 45.828125 52.96875 
Q 50 49.953125 52 44.1875 
z
" id="DejaVuSans-6d"/>
     <path d="M 48.6875 27.296875 
Q 48.6875 37.203125 44.609375 42.84375 
Q 40.53125 48.484375 33.40625 48.484375 
Q 26.265625 48.484375 22.1875 42.84375 
Q 18.109375 37.203125 18.109375 27.296875 
Q 18.109375 17.390625 22.1875 11.75 
Q 26.265625 6.109375 33.40625 6.109375 
Q 40.53125 6.109375 44.609375 11.75 
Q 48.6875 17.390625 48.6875 27.296875 
z
M 18.109375 46.390625 
Q 20.953125 51.265625 25.265625 53.625 
Q 29.59375 56 35.59375 56 
Q 45.5625 56 51.78125 48.09375 
Q 58.015625 40.1875 58.015625 27.296875 
Q 58.015625 14.40625 51.78125 6.484375 
Q 45.5625 -1.421875 35.59375 -1.421875 
Q 29.59375 -1.421875 25.265625 0.953125 
Q 20.953125 3.328125 18.109375 8.203125 
L 18.109375 0 
L 9.078125 0 
L 9.078125 75.984375 
L 18.109375 75.984375 
z
" id="DejaVuSans-62"/>
     <path d="M 11.71875 12.40625 
L 22.015625 12.40625 
L 22.015625 4 
L 14.015625 -11.625 
L 7.71875 -11.625 
L 11.71875 4 
z
" id="DejaVuSans-2c"/>
     <path d="M 9.8125 72.90625 
L 24.515625 72.90625 
L 43.109375 23.296875 
L 61.8125 72.90625 
L 76.515625 72.90625 
L 76.515625 0 
L 66.890625 0 
L 66.890625 64.015625 
L 48.09375 14.015625 
L 38.1875 14.015625 
L 19.390625 64.015625 
L 19.390625 0 
L 9.8125 0 
z
" id="DejaVuSans-4d"/>
     <path d="M 34.1875 63.1875 
L 20.796875 26.90625 
L 47.609375 26.90625 
z
M 28.609375 72.90625 
L 39.796875 72.90625 
L 67.578125 0 
L 57.328125 0 
L 50.6875 18.703125 
L 17.828125 18.703125 
L 11.1875 0 
L 0.78125 0 
z
" id="DejaVuSans-41"/>
     <path d="M 31 75.875 
Q 24.46875 64.65625 21.28125 53.65625 
Q 18.109375 42.671875 18.109375 31.390625 
Q 18.109375 20.125 21.3125 9.0625 
Q 24.515625 -2 31 -13.1875 
L 23.1875 -13.1875 
Q 15.875 -1.703125 12.234375 9.375 
Q 8.59375 20.453125 8.59375 31.390625 
Q 8.59375 42.28125 12.203125 53.3125 
Q 15.828125 64.359375 23.1875 75.875 
z
" id="DejaVuSans-28"/>
     <path d="M 31.78125 34.625 
Q 24.75 34.625 20.71875 30.859375 
Q 16.703125 27.09375 16.703125 20.515625 
Q 16.703125 13.921875 20.71875 10.15625 
Q 24.75 6.390625 31.78125 6.390625 
Q 38.8125 6.390625 42.859375 10.171875 
Q 46.921875 13.96875 46.921875 20.515625 
Q 46.921875 27.09375 42.890625 30.859375 
Q 38.875 34.625 31.78125 34.625 
z
M 21.921875 38.8125 
Q 15.578125 40.375 12.03125 44.71875 
Q 8.5 49.078125 8.5 55.328125 
Q 8.5 64.0625 14.71875 69.140625 
Q 20.953125 74.21875 31.78125 74.21875 
Q 42.671875 74.21875 48.875 69.140625 
Q 55.078125 64.0625 55.078125 55.328125 
Q 55.078125 49.078125 51.53125 44.71875 
Q 48 40.375 41.703125 38.8125 
Q 48.828125 37.15625 52.796875 32.3125 
Q 56.78125 27.484375 56.78125 20.515625 
Q 56.78125 9.90625 50.3125 4.234375 
Q 43.84375 -1.421875 31.78125 -1.421875 
Q 19.734375 -1.421875 13.25 4.234375 
Q 6.78125 9.90625 6.78125 20.515625 
Q 6.78125 27.484375 10.78125 32.3125 
Q 14.796875 37.15625 21.921875 38.8125 
z
M 18.3125 54.390625 
Q 18.3125 48.734375 21.84375 45.5625 
Q 25.390625 42.390625 31.78125 42.390625 
Q 38.140625 42.390625 41.71875 45.5625 
Q 45.3125 48.734375 45.3125 54.390625 
Q 45.3125 60.0625 41.71875 63.234375 
Q 38.140625 66.40625 31.78125 66.40625 
Q 25.390625 66.40625 21.84375 63.234375 
Q 18.3125 60.0625 18.3125 54.390625 
z
" id="DejaVuSans-38"/>
     <path d="M 25.390625 72.90625 
L 33.6875 72.90625 
L 8.296875 -9.28125 
L 0 -9.28125 
z
" id="DejaVuSans-2f"/>
     <path d="M 8.015625 75.875 
L 15.828125 75.875 
Q 23.140625 64.359375 26.78125 53.3125 
Q 30.421875 42.28125 30.421875 31.390625 
Q 30.421875 20.453125 26.78125 9.375 
Q 23.140625 -1.703125 15.828125 -13.1875 
L 8.015625 -13.1875 
Q 14.5 -2 17.703125 9.0625 
Q 20.90625 20.125 20.90625 31.390625 
Q 20.90625 42.671875 17.703125 53.65625 
Q 14.5 64.65625 8.015625 75.875 
z
" id="DejaVuSans-29"/>
    </defs>
    <g transform="translate(630.383437 78.784)scale(0.2 -0.2)">
     <use xlink:href="#DejaVuSans-43"/>
     <use x="69.824219" xlink:href="#DejaVuSans-61"/>
     <use x="131.103516" xlink:href="#DejaVuSans-6d"/>
     <use x="228.515625" xlink:href="#DejaVuSans-62"/>
     <use x="291.992188" xlink:href="#DejaVuSans-72"/>
     <use x="333.105469" xlink:href="#DejaVuSans-69"/>
     <use x="360.888672" xlink:href="#DejaVuSans-64"/>
     <use x="424.365234" xlink:href="#DejaVuSans-67"/>
     <use x="487.841797" xlink:href="#DejaVuSans-65"/>
     <use x="549.365234" xlink:href="#DejaVuSans-2c"/>
     <use x="581.152344" xlink:href="#DejaVuSans-20"/>
     <use x="612.939453" xlink:href="#DejaVuSans-4d"/>
     <use x="699.21875" xlink:href="#DejaVuSans-41"/>
     <use x="767.626953" xlink:href="#DejaVuSans-20"/>
     <use x="799.414062" xlink:href="#DejaVuSans-28"/>
     <use x="838.427734" xlink:href="#DejaVuSans-38"/>
     <use x="902.050781" xlink:href="#DejaVuSans-2f"/>
     <use x="935.742188" xlink:href="#DejaVuSans-32"/>
     <use x="999.365234" xlink:href="#DejaVuSans-30"/>
     <use x="1062.988281" xlink:href="#DejaVuSans-31"/>
     <use x="1126.611328" xlink:href="#DejaVuSans-37"/>
     <use x="1190.234375" xlink:href="#DejaVuSans-29"/>
    </g>
   </g>
   <g id="text_20">
    <!-- cambridgecouncilcandidates.com -->
    <defs>
     <path d="M 10.6875 12.40625 
L 21 12.40625 
L 21 0 
L 10.6875 0 
z
" id="DejaVuSans-2e"/>
    </defs>
    <g transform="translate(1063.3702 648.3208)scale(0.2 -0.2)">
     <use xlink:href="#DejaVuSans-63"/>
     <use x="54.980469" xlink:href="#DejaVuSans-61"/>
     <use x="116.259766" xlink:href="#DejaVuSans-6d"/>
     <use x="213.671875" xlink:href="#DejaVuSans-62"/>
     <use x="277.148438" xlink:href="#DejaVuSans-72"/>
     <use x="318.261719" xlink:href="#DejaVuSans-69"/>
     <use x="346.044922" xlink:href="#DejaVuSans-64"/>
     <use x="409.521484" xlink:href="#DejaVuSans-67"/>
     <use x="472.998047" xlink:href="#DejaVuSans-65"/>
     <use x="534.521484" xlink:href="#DejaVuSans-63"/>
     <use x="589.501953" xlink:href="#DejaVuSans-6f"/>
     <use x="650.683594" xlink:href="#DejaVuSans-75"/>
     <use x="714.0625" xlink:href="#DejaVuSans-6e"/>
     <use x="777.441406" xlink:href="#DejaVuSans-63"/>
     <use x="832.421875" xlink:href="#DejaVuSans-69"/>
     <use x="860.205078" xlink:href="#DejaVuSans-6c"/>
     <use x="887.988281" xlink:href="#DejaVuSans-63"/>
     <use x="942.96875" xlink:href="#DejaVuSans-61"/>
     <use x="1004.248047" xlink:href="#DejaVuSans-6e"/>
     <use x="1067.626953" xlink:href="#DejaVuSans-64"/>
     <use x="1131.103516" xlink:href="#DejaVuSans-69"/>
     <use x="1158.886719" xlink:href="#DejaVuSans-64"/>
     <use x="1222.363281" xlink:href="#DejaVuSans-61"/>
     <use x="1283.642578" xlink:href="#DejaVuSans-74"/>
     <use x="1322.851562" xlink:href="#DejaVuSans-65"/>
     <use x="1384.375" xlink:href="#DejaVuSans-73"/>
     <use x="1436.474609" xlink:href="#DejaVuSans-2e"/>
     <use x="1468.261719" xlink:href="#DejaVuSans-63"/>
     <use x="1523.242188" xlink:href="#DejaVuSans-6f"/>
     <use x="1584.423828" xlink:href="#DejaVuSans-6d"/>
    </g>
   </g>
   <g id="patch_7">
    <path d="M 212.420658 568.028092 
L 213.425522 570.132018 
Q 196.660248 567.6429 179.857323 565.552005 
L 180.52696 567.021561 
Q 178.591153 566.235861 176.730648 564.653712 
Q 178.854709 563.448292 180.903469 563.03932 
L 179.970275 564.357333 
Q 196.867328 565.452667 213.802031 566.149777 
L 212.420658 568.028092 
z
" style="fill:#7fc97f;stroke:#7fc97f;stroke-linecap:round;"/>
   </g>
   <g id="text_21">
    <!-- Kelley($1k) -->
    <defs>
     <path d="M 9.8125 72.90625 
L 19.671875 72.90625 
L 19.671875 42.09375 
L 52.390625 72.90625 
L 65.09375 72.90625 
L 28.90625 38.921875 
L 67.671875 0 
L 54.6875 0 
L 19.671875 35.109375 
L 19.671875 0 
L 9.8125 0 
z
" id="DejaVuSans-4b"/>
     <path d="M 9.078125 75.984375 
L 18.109375 75.984375 
L 18.109375 31.109375 
L 44.921875 54.6875 
L 56.390625 54.6875 
L 27.390625 29.109375 
L 57.625 0 
L 45.90625 0 
L 18.109375 26.703125 
L 18.109375 0 
L 9.078125 0 
z
" id="DejaVuSans-6b"/>
    </defs>
    <g transform="translate(217.604908 573.955663)scale(0.1 -0.1)">
     <use xlink:href="#DejaVuSans-4b"/>
     <use x="65.498047" xlink:href="#DejaVuSans-65"/>
     <use x="127.021484" xlink:href="#DejaVuSans-6c"/>
     <use x="154.804688" xlink:href="#DejaVuSans-6c"/>
     <use x="182.587891" xlink:href="#DejaVuSans-65"/>
     <use x="244.111328" xlink:href="#DejaVuSans-79"/>
     <use x="303.291016" xlink:href="#DejaVuSans-28"/>
     <use x="342.304688" xlink:href="#DejaVuSans-24"/>
     <use x="405.927734" xlink:href="#DejaVuSans-31"/>
     <use x="469.550781" xlink:href="#DejaVuSans-6b"/>
     <use x="527.460938" xlink:href="#DejaVuSans-29"/>
    </g>
   </g>
   <g id="text_22">
    <!-- $20k -->
    <defs>
     <path d="M 38.8125 -14.703125 
L 30.90625 -14.703125 
L 30.859375 0 
Q 24.75 0.25 19.03125 1.359375 
Q 13.328125 2.484375 7.90625 4.5 
L 7.90625 17.28125 
Q 13.53125 14.40625 19.265625 12.859375 
Q 25 11.328125 30.90625 11.140625 
L 30.90625 26.3125 
L 29.296875 26.609375 
Q 17.625 28.65625 12.71875 33.046875 
Q 7.8125 37.453125 7.8125 45.703125 
Q 7.8125 54.4375 13.796875 59.34375 
Q 19.78125 64.265625 30.859375 64.703125 
L 30.90625 75.984375 
L 38.8125 75.984375 
L 38.8125 64.890625 
Q 43.703125 64.5 48.578125 63.671875 
Q 53.46875 62.84375 58.40625 61.53125 
L 58.40625 49.125 
Q 53.515625 51.171875 48.625 52.3125 
Q 43.75 53.46875 38.8125 53.71875 
L 38.8125 39.703125 
L 40.375 39.40625 
Q 52.78125 37.453125 57.78125 32.890625 
Q 62.796875 28.328125 62.796875 19.390625 
Q 62.796875 10.40625 56.828125 5.59375 
Q 50.875 0.78125 38.8125 0.09375 
z
M 30.90625 40.828125 
L 30.90625 53.5625 
Q 27.4375 53.375 25.359375 51.6875 
Q 23.296875 50 23.296875 47.40625 
Q 23.296875 44.53125 25.1875 42.890625 
Q 27.09375 41.265625 30.90625 40.828125 
z
M 38.8125 24.90625 
L 38.8125 11.328125 
Q 43.0625 11.375 45.1875 12.984375 
Q 47.3125 14.59375 47.3125 17.828125 
Q 47.3125 21.140625 45.359375 22.78125 
Q 43.40625 24.421875 38.8125 24.90625 
z
" id="DejaVuSans-Bold-24"/>
     <path d="M 28.8125 13.8125 
L 60.890625 13.8125 
L 60.890625 0 
L 7.90625 0 
L 7.90625 13.8125 
L 34.515625 37.3125 
Q 38.09375 40.53125 39.796875 43.609375 
Q 41.5 46.6875 41.5 50 
Q 41.5 55.125 38.0625 58.25 
Q 34.625 61.375 28.90625 61.375 
Q 24.515625 61.375 19.28125 59.5 
Q 14.0625 57.625 8.109375 53.90625 
L 8.109375 69.921875 
Q 14.453125 72.015625 20.65625 73.109375 
Q 26.859375 74.21875 32.8125 74.21875 
Q 45.90625 74.21875 53.15625 68.453125 
Q 60.40625 62.703125 60.40625 52.390625 
Q 60.40625 46.4375 57.328125 41.28125 
Q 54.25 36.140625 44.390625 27.484375 
z
" id="DejaVuSans-Bold-32"/>
     <path d="M 46 36.53125 
Q 46 50.203125 43.4375 55.78125 
Q 40.875 61.375 34.8125 61.375 
Q 28.765625 61.375 26.171875 55.78125 
Q 23.578125 50.203125 23.578125 36.53125 
Q 23.578125 22.703125 26.171875 17.03125 
Q 28.765625 11.375 34.8125 11.375 
Q 40.828125 11.375 43.40625 17.03125 
Q 46 22.703125 46 36.53125 
z
M 64.796875 36.375 
Q 64.796875 18.265625 56.984375 8.421875 
Q 49.171875 -1.421875 34.8125 -1.421875 
Q 20.40625 -1.421875 12.59375 8.421875 
Q 4.78125 18.265625 4.78125 36.375 
Q 4.78125 54.546875 12.59375 64.375 
Q 20.40625 74.21875 34.8125 74.21875 
Q 49.171875 74.21875 56.984375 64.375 
Q 64.796875 54.546875 64.796875 36.375 
z
" id="DejaVuSans-Bold-30"/>
     <path d="M 8.40625 75.984375 
L 25.875 75.984375 
L 25.875 34.625 
L 46 54.6875 
L 66.3125 54.6875 
L 39.59375 29.59375 
L 68.40625 0 
L 47.21875 0 
L 25.875 22.796875 
L 25.875 0 
L 8.40625 0 
z
" id="DejaVuSans-Bold-6b"/>
    </defs>
    <g transform="translate(1322.129311 237.682795)scale(0.09853 -0.09853)">
     <use xlink:href="#DejaVuSans-Bold-24"/>
     <use x="69.580078" xlink:href="#DejaVuSans-Bold-32"/>
     <use x="139.160156" xlink:href="#DejaVuSans-Bold-30"/>
     <use x="208.740234" xlink:href="#DejaVuSans-Bold-6b"/>
    </g>
   </g>
   <g id="text_23">
    <!-- Mallon -->
    <g transform="translate(1310.688697 206.596854)scale(0.1 -0.1)">
     <use xlink:href="#DejaVuSans-4d"/>
     <use x="86.279297" xlink:href="#DejaVuSans-61"/>
     <use x="147.558594" xlink:href="#DejaVuSans-6c"/>
     <use x="175.341797" xlink:href="#DejaVuSans-6c"/>
     <use x="203.125" xlink:href="#DejaVuSans-6f"/>
     <use x="264.306641" xlink:href="#DejaVuSans-6e"/>
    </g>
   </g>
   <g id="patch_8">
    <path d="M 144.841474 636.381373 
L 142.713649 637.337839 
Q 146.101598 616.468508 149.092345 595.551946 
L 147.607158 596.18539 
Q 148.439268 594.268988 150.065781 592.447051 
Q 151.219679 594.599612 151.579174 596.657709 
L 150.28395 595.693642 
Q 148.286207 616.728284 146.685665 637.810158 
L 144.841474 636.381373 
z
" style="fill:#7fc97f;stroke:#7fc97f;stroke-linecap:round;"/>
   </g>
   <g id="text_24">
    <!-- Sutton($177) -->
    <g transform="translate(110.532202 649.159133)scale(0.1 -0.1)">
     <use xlink:href="#DejaVuSans-53"/>
     <use x="63.476562" xlink:href="#DejaVuSans-75"/>
     <use x="126.855469" xlink:href="#DejaVuSans-74"/>
     <use x="166.064453" xlink:href="#DejaVuSans-74"/>
     <use x="205.273438" xlink:href="#DejaVuSans-6f"/>
     <use x="266.455078" xlink:href="#DejaVuSans-6e"/>
     <use x="329.833984" xlink:href="#DejaVuSans-28"/>
     <use x="368.847656" xlink:href="#DejaVuSans-24"/>
     <use x="432.470703" xlink:href="#DejaVuSans-31"/>
     <use x="496.09375" xlink:href="#DejaVuSans-37"/>
     <use x="559.716797" xlink:href="#DejaVuSans-37"/>
     <use x="623.339844" xlink:href="#DejaVuSans-29"/>
    </g>
   </g>
   <g id="text_25">
    <!-- Gebru($1k) -->
    <defs>
     <path d="M 59.515625 10.40625 
L 59.515625 29.984375 
L 43.40625 29.984375 
L 43.40625 38.09375 
L 69.28125 38.09375 
L 69.28125 6.78125 
Q 63.578125 2.734375 56.6875 0.65625 
Q 49.8125 -1.421875 42 -1.421875 
Q 24.90625 -1.421875 15.25 8.5625 
Q 5.609375 18.5625 5.609375 36.375 
Q 5.609375 54.25 15.25 64.234375 
Q 24.90625 74.21875 42 74.21875 
Q 49.125 74.21875 55.546875 72.453125 
Q 61.96875 70.703125 67.390625 67.28125 
L 67.390625 56.78125 
Q 61.921875 61.421875 55.765625 63.765625 
Q 49.609375 66.109375 42.828125 66.109375 
Q 29.4375 66.109375 22.71875 58.640625 
Q 16.015625 51.171875 16.015625 36.375 
Q 16.015625 21.625 22.71875 14.15625 
Q 29.4375 6.6875 42.828125 6.6875 
Q 48.046875 6.6875 52.140625 7.59375 
Q 56.25 8.5 59.515625 10.40625 
z
" id="DejaVuSans-47"/>
    </defs>
    <g transform="translate(1111.806968 35.479769)scale(0.1 -0.1)">
     <use xlink:href="#DejaVuSans-47"/>
     <use x="77.490234" xlink:href="#DejaVuSans-65"/>
     <use x="139.013672" xlink:href="#DejaVuSans-62"/>
     <use x="202.490234" xlink:href="#DejaVuSans-72"/>
     <use x="243.603516" xlink:href="#DejaVuSans-75"/>
     <use x="306.982422" xlink:href="#DejaVuSans-28"/>
     <use x="345.996094" xlink:href="#DejaVuSans-24"/>
     <use x="409.619141" xlink:href="#DejaVuSans-31"/>
     <use x="473.242188" xlink:href="#DejaVuSans-6b"/>
     <use x="531.152344" xlink:href="#DejaVuSans-29"/>
    </g>
   </g>
   <g id="patch_9">
    <path d="M 428.693439 544.865302 
L 429.435688 547.077625 
Q 404.845013 540.720799 380.168013 534.754546 
L 380.650602 536.294997 
Q 378.826308 535.277305 377.174665 533.478466 
Q 379.430588 532.543289 381.51386 532.38926 
L 380.426991 533.582825 
Q 405.319805 538.572643 430.298946 543.171887 
L 428.693439 544.865302 
z
" style="fill:#beaed4;stroke:#beaed4;stroke-linecap:round;"/>
   </g>
   <g id="text_26">
    <!-- Volmar($4k) -->
    <defs>
     <path d="M 28.609375 0 
L 0.78125 72.90625 
L 11.078125 72.90625 
L 34.1875 11.53125 
L 57.328125 72.90625 
L 67.578125 72.90625 
L 39.796875 0 
z
" id="DejaVuSans-56"/>
    </defs>
    <g transform="translate(431.75032 555.154795)scale(0.1 -0.1)">
     <use xlink:href="#DejaVuSans-56"/>
     <use x="68.298828" xlink:href="#DejaVuSans-6f"/>
     <use x="129.480469" xlink:href="#DejaVuSans-6c"/>
     <use x="157.263672" xlink:href="#DejaVuSans-6d"/>
     <use x="254.675781" xlink:href="#DejaVuSans-61"/>
     <use x="315.955078" xlink:href="#DejaVuSans-72"/>
     <use x="357.068359" xlink:href="#DejaVuSans-28"/>
     <use x="396.082031" xlink:href="#DejaVuSans-24"/>
     <use x="459.705078" xlink:href="#DejaVuSans-34"/>
     <use x="523.328125" xlink:href="#DejaVuSans-6b"/>
     <use x="581.238281" xlink:href="#DejaVuSans-29"/>
    </g>
   </g>
   <g id="text_27">
    <!-- Musgrave($3k) -->
    <defs>
     <path d="M 2.984375 54.6875 
L 12.5 54.6875 
L 29.59375 8.796875 
L 46.6875 54.6875 
L 56.203125 54.6875 
L 35.6875 0 
L 23.484375 0 
z
" id="DejaVuSans-76"/>
    </defs>
    <g transform="translate(436.673776 450.66542)scale(0.1 -0.1)">
     <use xlink:href="#DejaVuSans-4d"/>
     <use x="86.279297" xlink:href="#DejaVuSans-75"/>
     <use x="149.658203" xlink:href="#DejaVuSans-73"/>
     <use x="201.757812" xlink:href="#DejaVuSans-67"/>
     <use x="265.234375" xlink:href="#DejaVuSans-72"/>
     <use x="306.347656" xlink:href="#DejaVuSans-61"/>
     <use x="367.626953" xlink:href="#DejaVuSans-76"/>
     <use x="426.806641" xlink:href="#DejaVuSans-65"/>
     <use x="488.330078" xlink:href="#DejaVuSans-28"/>
     <use x="527.34375" xlink:href="#DejaVuSans-24"/>
     <use x="590.966797" xlink:href="#DejaVuSans-33"/>
     <use x="654.589844" xlink:href="#DejaVuSans-6b"/>
     <use x="712.5" xlink:href="#DejaVuSans-29"/>
    </g>
   </g>
   <g id="text_28">
    <!-- $26k -->
    <defs>
     <path d="M 36.1875 35.984375 
Q 31.25 35.984375 28.78125 32.78125 
Q 26.3125 29.59375 26.3125 23.1875 
Q 26.3125 16.796875 28.78125 13.59375 
Q 31.25 10.40625 36.1875 10.40625 
Q 41.15625 10.40625 43.625 13.59375 
Q 46.09375 16.796875 46.09375 23.1875 
Q 46.09375 29.59375 43.625 32.78125 
Q 41.15625 35.984375 36.1875 35.984375 
z
M 59.421875 71 
L 59.421875 57.515625 
Q 54.78125 59.71875 50.671875 60.765625 
Q 46.578125 61.8125 42.671875 61.8125 
Q 34.28125 61.8125 29.59375 57.140625 
Q 24.90625 52.484375 24.125 43.3125 
Q 27.34375 45.703125 31.09375 46.890625 
Q 34.859375 48.09375 39.3125 48.09375 
Q 50.484375 48.09375 57.34375 41.546875 
Q 64.203125 35.015625 64.203125 24.421875 
Q 64.203125 12.703125 56.53125 5.640625 
Q 48.875 -1.421875 35.984375 -1.421875 
Q 21.78125 -1.421875 13.984375 8.171875 
Q 6.203125 17.78125 6.203125 35.40625 
Q 6.203125 53.46875 15.3125 63.796875 
Q 24.421875 74.125 40.28125 74.125 
Q 45.3125 74.125 50.046875 73.34375 
Q 54.78125 72.5625 59.421875 71 
z
" id="DejaVuSans-Bold-36"/>
    </defs>
    <g transform="translate(656.118911 440.411532)scale(0.105933 -0.105933)">
     <use xlink:href="#DejaVuSans-Bold-24"/>
     <use x="69.580078" xlink:href="#DejaVuSans-Bold-32"/>
     <use x="139.160156" xlink:href="#DejaVuSans-Bold-36"/>
     <use x="208.740234" xlink:href="#DejaVuSans-Bold-6b"/>
    </g>
   </g>
   <g id="text_29">
    <!-- Carlone -->
    <g transform="translate(645.697136 404.698184)scale(0.1 -0.1)">
     <use xlink:href="#DejaVuSans-43"/>
     <use x="69.824219" xlink:href="#DejaVuSans-61"/>
     <use x="131.103516" xlink:href="#DejaVuSans-72"/>
     <use x="172.216797" xlink:href="#DejaVuSans-6c"/>
     <use x="200" xlink:href="#DejaVuSans-6f"/>
     <use x="261.181641" xlink:href="#DejaVuSans-6e"/>
     <use x="324.560547" xlink:href="#DejaVuSans-65"/>
    </g>
   </g>
   <g id="patch_10">
    <path d="M 238.569178 515.327588 
L 240.199722 513.659694 
Q 242.030569 524.199659 244.248358 534.638255 
L 245.399372 533.5075 
Q 245.326029 535.595114 244.478802 537.885466 
Q 242.617434 536.304701 241.529951 534.521196 
L 243.087531 534.942363 
Q 239.902387 524.757192 236.330301 514.67339 
L 238.569178 515.327588 
z
" style="fill:#fdc086;stroke:#fdc086;stroke-linecap:round;"/>
   </g>
   <g id="text_30">
    <!-- Santos($579) -->
    <defs>
     <path d="M 10.984375 1.515625 
L 10.984375 10.5 
Q 14.703125 8.734375 18.5 7.8125 
Q 22.3125 6.890625 25.984375 6.890625 
Q 35.75 6.890625 40.890625 13.453125 
Q 46.046875 20.015625 46.78125 33.40625 
Q 43.953125 29.203125 39.59375 26.953125 
Q 35.25 24.703125 29.984375 24.703125 
Q 19.046875 24.703125 12.671875 31.3125 
Q 6.296875 37.9375 6.296875 49.421875 
Q 6.296875 60.640625 12.9375 67.421875 
Q 19.578125 74.21875 30.609375 74.21875 
Q 43.265625 74.21875 49.921875 64.515625 
Q 56.59375 54.828125 56.59375 36.375 
Q 56.59375 19.140625 48.40625 8.859375 
Q 40.234375 -1.421875 26.421875 -1.421875 
Q 22.703125 -1.421875 18.890625 -0.6875 
Q 15.09375 0.046875 10.984375 1.515625 
z
M 30.609375 32.421875 
Q 37.25 32.421875 41.125 36.953125 
Q 45.015625 41.5 45.015625 49.421875 
Q 45.015625 57.28125 41.125 61.84375 
Q 37.25 66.40625 30.609375 66.40625 
Q 23.96875 66.40625 20.09375 61.84375 
Q 16.21875 57.28125 16.21875 49.421875 
Q 16.21875 41.5 20.09375 36.953125 
Q 23.96875 32.421875 30.609375 32.421875 
z
" id="DejaVuSans-39"/>
    </defs>
    <g transform="translate(202.308807 508.152627)scale(0.1 -0.1)">
     <use xlink:href="#DejaVuSans-53"/>
     <use x="63.476562" xlink:href="#DejaVuSans-61"/>
     <use x="124.755859" xlink:href="#DejaVuSans-6e"/>
     <use x="188.134766" xlink:href="#DejaVuSans-74"/>
     <use x="227.34375" xlink:href="#DejaVuSans-6f"/>
     <use x="288.525391" xlink:href="#DejaVuSans-73"/>
     <use x="340.625" xlink:href="#DejaVuSans-28"/>
     <use x="379.638672" xlink:href="#DejaVuSans-24"/>
     <use x="443.261719" xlink:href="#DejaVuSans-35"/>
     <use x="506.884766" xlink:href="#DejaVuSans-37"/>
     <use x="570.507812" xlink:href="#DejaVuSans-39"/>
     <use x="634.130859" xlink:href="#DejaVuSans-29"/>
    </g>
   </g>
   <g id="text_31">
    <!-- D'Ambrosio($1k) -->
    <defs>
     <path d="M 19.671875 64.796875 
L 19.671875 8.109375 
L 31.59375 8.109375 
Q 46.6875 8.109375 53.6875 14.9375 
Q 60.6875 21.78125 60.6875 36.53125 
Q 60.6875 51.171875 53.6875 57.984375 
Q 46.6875 64.796875 31.59375 64.796875 
z
M 9.8125 72.90625 
L 30.078125 72.90625 
Q 51.265625 72.90625 61.171875 64.09375 
Q 71.09375 55.28125 71.09375 36.53125 
Q 71.09375 17.671875 61.125 8.828125 
Q 51.171875 0 30.078125 0 
L 9.8125 0 
z
" id="DejaVuSans-44"/>
     <path d="M 17.921875 72.90625 
L 17.921875 45.796875 
L 9.625 45.796875 
L 9.625 72.90625 
z
" id="DejaVuSans-27"/>
    </defs>
    <g transform="translate(276.742946 519.519327)scale(0.1 -0.1)">
     <use xlink:href="#DejaVuSans-44"/>
     <use x="77.001953" xlink:href="#DejaVuSans-27"/>
     <use x="104.492188" xlink:href="#DejaVuSans-41"/>
     <use x="172.900391" xlink:href="#DejaVuSans-6d"/>
     <use x="270.3125" xlink:href="#DejaVuSans-62"/>
     <use x="333.789062" xlink:href="#DejaVuSans-72"/>
     <use x="374.871094" xlink:href="#DejaVuSans-6f"/>
     <use x="436.052734" xlink:href="#DejaVuSans-73"/>
     <use x="488.152344" xlink:href="#DejaVuSans-69"/>
     <use x="515.935547" xlink:href="#DejaVuSans-6f"/>
     <use x="577.117188" xlink:href="#DejaVuSans-28"/>
     <use x="616.130859" xlink:href="#DejaVuSans-24"/>
     <use x="679.753906" xlink:href="#DejaVuSans-31"/>
     <use x="743.376953" xlink:href="#DejaVuSans-6b"/>
     <use x="801.287109" xlink:href="#DejaVuSans-29"/>
    </g>
   </g>
   <g id="patch_11">
    <path d="M 146.235821 496.574565 
L 147.979261 495.027206 
Q 154.584129 534.906249 161.582067 574.711162 
L 162.809556 573.665555 
Q 162.590362 575.74088 161.585026 577.964463 
Q 159.838864 576.259781 158.878844 574.406842 
L 160.402854 574.933548 
Q 152.422237 535.313957 144.04855 495.768494 
L 146.235821 496.574565 
z
" style="fill:#ffff99;stroke:#ffff99;stroke-linecap:round;"/>
   </g>
   <g id="text_32">
    <!-- Benjamin($7) -->
    <defs>
     <path d="M 9.421875 54.6875 
L 18.40625 54.6875 
L 18.40625 -0.984375 
Q 18.40625 -11.421875 14.421875 -16.109375 
Q 10.453125 -20.796875 1.609375 -20.796875 
L -1.8125 -20.796875 
L -1.8125 -13.1875 
L 0.59375 -13.1875 
Q 5.71875 -13.1875 7.5625 -10.8125 
Q 9.421875 -8.453125 9.421875 -0.984375 
z
M 9.421875 75.984375 
L 18.40625 75.984375 
L 18.40625 64.59375 
L 9.421875 64.59375 
z
" id="DejaVuSans-6a"/>
    </defs>
    <g transform="translate(110.532202 489.351759)scale(0.1 -0.1)">
     <use xlink:href="#DejaVuSans-42"/>
     <use x="68.603516" xlink:href="#DejaVuSans-65"/>
     <use x="130.126953" xlink:href="#DejaVuSans-6e"/>
     <use x="193.505859" xlink:href="#DejaVuSans-6a"/>
     <use x="221.289062" xlink:href="#DejaVuSans-61"/>
     <use x="282.568359" xlink:href="#DejaVuSans-6d"/>
     <use x="379.980469" xlink:href="#DejaVuSans-69"/>
     <use x="407.763672" xlink:href="#DejaVuSans-6e"/>
     <use x="471.142578" xlink:href="#DejaVuSans-28"/>
     <use x="510.15625" xlink:href="#DejaVuSans-24"/>
     <use x="573.779297" xlink:href="#DejaVuSans-37"/>
     <use x="637.402344" xlink:href="#DejaVuSans-29"/>
    </g>
   </g>
   <g id="text_33">
    <!-- Zondervan($1k) -->
    <defs>
     <path d="M 5.609375 72.90625 
L 62.890625 72.90625 
L 62.890625 65.375 
L 16.796875 8.296875 
L 64.015625 8.296875 
L 64.015625 0 
L 4.5 0 
L 4.5 7.515625 
L 50.59375 64.59375 
L 5.609375 64.59375 
z
" id="DejaVuSans-5a"/>
    </defs>
    <g transform="translate(874.684967 75.903699)scale(0.1 -0.1)">
     <use xlink:href="#DejaVuSans-5a"/>
     <use x="68.505859" xlink:href="#DejaVuSans-6f"/>
     <use x="129.6875" xlink:href="#DejaVuSans-6e"/>
     <use x="193.066406" xlink:href="#DejaVuSans-64"/>
     <use x="256.542969" xlink:href="#DejaVuSans-65"/>
     <use x="318.066406" xlink:href="#DejaVuSans-72"/>
     <use x="359.179688" xlink:href="#DejaVuSans-76"/>
     <use x="418.359375" xlink:href="#DejaVuSans-61"/>
     <use x="479.638672" xlink:href="#DejaVuSans-6e"/>
     <use x="543.017578" xlink:href="#DejaVuSans-28"/>
     <use x="582.03125" xlink:href="#DejaVuSans-24"/>
     <use x="645.654297" xlink:href="#DejaVuSans-31"/>
     <use x="709.277344" xlink:href="#DejaVuSans-6b"/>
     <use x="767.1875" xlink:href="#DejaVuSans-29"/>
    </g>
   </g>
   <g id="text_34">
    <!-- $11k -->
    <defs>
     <path d="M 11.71875 12.984375 
L 28.328125 12.984375 
L 28.328125 60.109375 
L 11.28125 56.59375 
L 11.28125 69.390625 
L 28.21875 72.90625 
L 46.09375 72.90625 
L 46.09375 12.984375 
L 62.703125 12.984375 
L 62.703125 0 
L 11.71875 0 
z
" id="DejaVuSans-Bold-31"/>
    </defs>
    <g transform="translate(711.402893 450.478931)scale(0.08536 -0.08536)">
     <use xlink:href="#DejaVuSans-Bold-24"/>
     <use x="69.580078" xlink:href="#DejaVuSans-Bold-31"/>
     <use x="139.160156" xlink:href="#DejaVuSans-Bold-31"/>
     <use x="208.740234" xlink:href="#DejaVuSans-Bold-6b"/>
    </g>
   </g>
   <g id="text_35">
    <!-- Tierney -->
    <defs>
     <path d="M -0.296875 72.90625 
L 61.375 72.90625 
L 61.375 64.59375 
L 35.5 64.59375 
L 35.5 0 
L 25.59375 0 
L 25.59375 64.59375 
L -0.296875 64.59375 
z
" id="DejaVuSans-54"/>
    </defs>
    <g transform="translate(698.149913 426.832776)scale(0.1 -0.1)">
     <use xlink:href="#DejaVuSans-54"/>
     <use x="61.037109" xlink:href="#DejaVuSans-69"/>
     <use x="88.820312" xlink:href="#DejaVuSans-65"/>
     <use x="150.34375" xlink:href="#DejaVuSans-72"/>
     <use x="191.441406" xlink:href="#DejaVuSans-6e"/>
     <use x="254.820312" xlink:href="#DejaVuSans-65"/>
     <use x="316.34375" xlink:href="#DejaVuSans-79"/>
    </g>
   </g>
   <g id="text_36">
    <!-- $15k -->
    <defs>
     <path d="M 10.59375 72.90625 
L 57.328125 72.90625 
L 57.328125 59.078125 
L 25.59375 59.078125 
L 25.59375 47.796875 
Q 27.734375 48.390625 29.90625 48.703125 
Q 32.078125 49.03125 34.421875 49.03125 
Q 47.75 49.03125 55.171875 42.359375 
Q 62.59375 35.6875 62.59375 23.78125 
Q 62.59375 11.96875 54.515625 5.265625 
Q 46.4375 -1.421875 32.078125 -1.421875 
Q 25.875 -1.421875 19.796875 -0.21875 
Q 13.71875 0.984375 7.71875 3.421875 
L 7.71875 18.21875 
Q 13.671875 14.796875 19.015625 13.078125 
Q 24.359375 11.375 29.109375 11.375 
Q 35.9375 11.375 39.859375 14.71875 
Q 43.796875 18.0625 43.796875 23.78125 
Q 43.796875 29.546875 39.859375 32.859375 
Q 35.9375 36.1875 29.109375 36.1875 
Q 25.046875 36.1875 20.453125 35.125 
Q 15.875 34.078125 10.59375 31.890625 
z
" id="DejaVuSans-Bold-35"/>
    </defs>
    <g transform="translate(1239.304711 208.496426)scale(0.092667 -0.092667)">
     <use xlink:href="#DejaVuSans-Bold-24"/>
     <use x="69.580078" xlink:href="#DejaVuSans-Bold-31"/>
     <use x="139.160156" xlink:href="#DejaVuSans-Bold-35"/>
     <use x="208.740234" xlink:href="#DejaVuSans-Bold-6b"/>
    </g>
   </g>
   <g id="text_37">
    <!-- Toner -->
    <g transform="translate(1227.057265 180.847711)scale(0.1 -0.1)">
     <use xlink:href="#DejaVuSans-54"/>
     <use x="60.818359" xlink:href="#DejaVuSans-6f"/>
     <use x="122" xlink:href="#DejaVuSans-6e"/>
     <use x="185.378906" xlink:href="#DejaVuSans-65"/>
     <use x="246.902344" xlink:href="#DejaVuSans-72"/>
    </g>
   </g>
   <g id="patch_12">
    <path d="M 395.760926 581.127333 
L 395.420277 583.435042 
Q 379.338514 569.073061 363.002997 555.020287 
L 362.730694 556.607904 
Q 361.566273 554.876127 360.909362 552.525937 
Q 363.342554 552.711682 365.268238 553.515839 
L 363.764261 554.092667 
Q 380.734164 567.372425 397.957822 580.342977 
L 395.760926 581.127333 
z
" style="fill:#386cb0;stroke:#386cb0;stroke-linecap:round;"/>
   </g>
   <g id="text_38">
    <!-- Okamoto($4k) -->
    <g transform="translate(370.565916 592.75653)scale(0.1 -0.1)">
     <use xlink:href="#DejaVuSans-4f"/>
     <use x="78.710938" xlink:href="#DejaVuSans-6b"/>
     <use x="136.605469" xlink:href="#DejaVuSans-61"/>
     <use x="197.884766" xlink:href="#DejaVuSans-6d"/>
     <use x="295.296875" xlink:href="#DejaVuSans-6f"/>
     <use x="356.478516" xlink:href="#DejaVuSans-74"/>
     <use x="395.6875" xlink:href="#DejaVuSans-6f"/>
     <use x="456.869141" xlink:href="#DejaVuSans-28"/>
     <use x="495.882812" xlink:href="#DejaVuSans-24"/>
     <use x="559.505859" xlink:href="#DejaVuSans-34"/>
     <use x="623.128906" xlink:href="#DejaVuSans-6b"/>
     <use x="681.039062" xlink:href="#DejaVuSans-29"/>
    </g>
   </g>
   <g id="text_39">
    <!-- $18k -->
    <defs>
     <path d="M 34.8125 32.625 
Q 29.546875 32.625 26.703125 29.734375 
Q 23.875 26.859375 23.875 21.484375 
Q 23.875 16.109375 26.703125 13.25 
Q 29.546875 10.40625 34.8125 10.40625 
Q 40.046875 10.40625 42.828125 13.25 
Q 45.609375 16.109375 45.609375 21.484375 
Q 45.609375 26.90625 42.828125 29.765625 
Q 40.046875 32.625 34.8125 32.625 
z
M 21.09375 38.8125 
Q 14.453125 40.828125 11.078125 44.96875 
Q 7.71875 49.125 7.71875 55.328125 
Q 7.71875 64.546875 14.59375 69.375 
Q 21.484375 74.21875 34.8125 74.21875 
Q 48.046875 74.21875 54.921875 69.40625 
Q 61.8125 64.59375 61.8125 55.328125 
Q 61.8125 49.125 58.421875 44.96875 
Q 55.03125 40.828125 48.390625 38.8125 
Q 55.8125 36.765625 59.59375 32.15625 
Q 63.375 27.546875 63.375 20.515625 
Q 63.375 9.671875 56.171875 4.125 
Q 48.96875 -1.421875 34.8125 -1.421875 
Q 20.609375 -1.421875 13.359375 4.125 
Q 6.109375 9.671875 6.109375 20.515625 
Q 6.109375 27.546875 9.890625 32.15625 
Q 13.671875 36.765625 21.09375 38.8125 
z
M 25.484375 53.421875 
Q 25.484375 49.078125 27.90625 46.734375 
Q 30.328125 44.390625 34.8125 44.390625 
Q 39.203125 44.390625 41.59375 46.734375 
Q 44 49.078125 44 53.421875 
Q 44 57.765625 41.59375 60.078125 
Q 39.203125 62.40625 34.8125 62.40625 
Q 30.328125 62.40625 27.90625 60.0625 
Q 25.484375 57.71875 25.484375 53.421875 
z
" id="DejaVuSans-Bold-38"/>
    </defs>
    <g transform="translate(1065.065478 363.155852)scale(0.0962 -0.0962)">
     <use xlink:href="#DejaVuSans-Bold-24"/>
     <use x="69.580078" xlink:href="#DejaVuSans-Bold-31"/>
     <use x="139.160156" xlink:href="#DejaVuSans-Bold-38"/>
     <use x="208.740234" xlink:href="#DejaVuSans-Bold-6b"/>
    </g>
   </g>
   <g id="text_40">
    <!-- Siddiqui -->
    <defs>
     <path d="M 14.796875 27.296875 
Q 14.796875 17.390625 18.875 11.75 
Q 22.953125 6.109375 30.078125 6.109375 
Q 37.203125 6.109375 41.296875 11.75 
Q 45.40625 17.390625 45.40625 27.296875 
Q 45.40625 37.203125 41.296875 42.84375 
Q 37.203125 48.484375 30.078125 48.484375 
Q 22.953125 48.484375 18.875 42.84375 
Q 14.796875 37.203125 14.796875 27.296875 
z
M 45.40625 8.203125 
Q 42.578125 3.328125 38.25 0.953125 
Q 33.9375 -1.421875 27.875 -1.421875 
Q 17.96875 -1.421875 11.734375 6.484375 
Q 5.515625 14.40625 5.515625 27.296875 
Q 5.515625 40.1875 11.734375 48.09375 
Q 17.96875 56 27.875 56 
Q 33.9375 56 38.25 53.625 
Q 42.578125 51.265625 45.40625 46.390625 
L 45.40625 54.6875 
L 54.390625 54.6875 
L 54.390625 -20.796875 
L 45.40625 -20.796875 
z
" id="DejaVuSans-71"/>
    </defs>
    <g transform="translate(1053.304267 333.459755)scale(0.1 -0.1)">
     <use xlink:href="#DejaVuSans-53"/>
     <use x="63.476562" xlink:href="#DejaVuSans-69"/>
     <use x="91.259766" xlink:href="#DejaVuSans-64"/>
     <use x="154.736328" xlink:href="#DejaVuSans-64"/>
     <use x="218.212891" xlink:href="#DejaVuSans-69"/>
     <use x="245.996094" xlink:href="#DejaVuSans-71"/>
     <use x="309.472656" xlink:href="#DejaVuSans-75"/>
     <use x="372.851562" xlink:href="#DejaVuSans-69"/>
    </g>
   </g>
   <g id="text_41">
    <!-- $9k -->
    <defs>
     <path d="M 10.015625 1.609375 
L 10.015625 15.09375 
Q 14.5 12.984375 18.59375 11.9375 
Q 22.703125 10.890625 26.703125 10.890625 
Q 35.109375 10.890625 39.796875 15.546875 
Q 44.484375 20.21875 45.3125 29.390625 
Q 42 26.953125 38.234375 25.734375 
Q 34.46875 24.515625 30.078125 24.515625 
Q 18.890625 24.515625 12.03125 31.03125 
Q 5.171875 37.546875 5.171875 48.1875 
Q 5.171875 59.96875 12.8125 67.046875 
Q 20.453125 74.125 33.296875 74.125 
Q 47.5625 74.125 55.375 64.5 
Q 63.1875 54.890625 63.1875 37.3125 
Q 63.1875 19.234375 54.046875 8.90625 
Q 44.921875 -1.421875 29 -1.421875 
Q 23.875 -1.421875 19.1875 -0.65625 
Q 14.5 0.09375 10.015625 1.609375 
z
M 33.203125 36.71875 
Q 38.140625 36.71875 40.625 39.90625 
Q 43.109375 43.109375 43.109375 49.515625 
Q 43.109375 55.859375 40.625 59.078125 
Q 38.140625 62.3125 33.203125 62.3125 
Q 28.265625 62.3125 25.78125 59.078125 
Q 23.296875 55.859375 23.296875 49.515625 
Q 23.296875 43.109375 25.78125 39.90625 
Q 28.265625 36.71875 33.203125 36.71875 
z
" id="DejaVuSans-Bold-39"/>
    </defs>
    <g transform="translate(909.54376 288.652363)scale(0.080796 -0.080796)">
     <use xlink:href="#DejaVuSans-Bold-24"/>
     <use x="69.580078" xlink:href="#DejaVuSans-Bold-39"/>
     <use x="139.160156" xlink:href="#DejaVuSans-Bold-6b"/>
    </g>
   </g>
   <g id="text_42">
    <!-- Sivongxay -->
    <defs>
     <path d="M 54.890625 54.6875 
L 35.109375 28.078125 
L 55.90625 0 
L 45.3125 0 
L 29.390625 21.484375 
L 13.484375 0 
L 2.875 0 
L 24.125 28.609375 
L 4.6875 54.6875 
L 15.28125 54.6875 
L 29.78125 35.203125 
L 44.28125 54.6875 
z
" id="DejaVuSans-78"/>
    </defs>
    <g transform="translate(897.85184 315.497631)scale(0.1 -0.1)">
     <use xlink:href="#DejaVuSans-53"/>
     <use x="63.476562" xlink:href="#DejaVuSans-69"/>
     <use x="91.259766" xlink:href="#DejaVuSans-76"/>
     <use x="150.439453" xlink:href="#DejaVuSans-6f"/>
     <use x="211.621094" xlink:href="#DejaVuSans-6e"/>
     <use x="275" xlink:href="#DejaVuSans-67"/>
     <use x="338.476562" xlink:href="#DejaVuSans-78"/>
     <use x="397.65625" xlink:href="#DejaVuSans-61"/>
     <use x="458.935547" xlink:href="#DejaVuSans-79"/>
    </g>
   </g>
   <g id="text_43">
    <!-- $21k -->
    <g transform="translate(1108.341304 115.250299)scale(0.100167 -0.100167)">
     <use xlink:href="#DejaVuSans-Bold-24"/>
     <use x="69.580078" xlink:href="#DejaVuSans-Bold-32"/>
     <use x="139.160156" xlink:href="#DejaVuSans-Bold-31"/>
     <use x="208.740234" xlink:href="#DejaVuSans-Bold-6b"/>
    </g>
   </g>
   <g id="text_44">
    <!-- McGovern -->
    <g transform="translate(1097.126066 83.168323)scale(0.1 -0.1)">
     <use xlink:href="#DejaVuSans-4d"/>
     <use x="86.279297" xlink:href="#DejaVuSans-63"/>
     <use x="141.259766" xlink:href="#DejaVuSans-47"/>
     <use x="218.75" xlink:href="#DejaVuSans-6f"/>
     <use x="279.931641" xlink:href="#DejaVuSans-76"/>
     <use x="339.111328" xlink:href="#DejaVuSans-65"/>
     <use x="400.634766" xlink:href="#DejaVuSans-72"/>
     <use x="441.732422" xlink:href="#DejaVuSans-6e"/>
    </g>
   </g>
   <g id="patch_13">
    <path d="M 122.887636 561.37179 
L 123.329613 559.081208 
Q 130.360101 566.599313 137.657741 573.819709 
L 137.994046 572.24046 
Q 139.082592 574.023433 139.636835 576.401824 
Q 137.212534 576.107392 135.322535 575.217544 
L 136.856288 574.712834 
Q 128.89077 568.236709 120.658102 562.058292 
L 122.887636 561.37179 
z
" style="fill:#bf5b17;stroke:#bf5b17;stroke-linecap:round;"/>
   </g>
   <g id="text_45">
    <!-- Harding($1k) -->
    <defs>
     <path d="M 9.8125 72.90625 
L 19.671875 72.90625 
L 19.671875 43.015625 
L 55.515625 43.015625 
L 55.515625 72.90625 
L 65.375 72.90625 
L 65.375 0 
L 55.515625 0 
L 55.515625 34.71875 
L 19.671875 34.71875 
L 19.671875 0 
L 9.8125 0 
z
" id="DejaVuSans-48"/>
    </defs>
    <g transform="translate(79.94 555.154795)scale(0.1 -0.1)">
     <use xlink:href="#DejaVuSans-48"/>
     <use x="75.195312" xlink:href="#DejaVuSans-61"/>
     <use x="136.474609" xlink:href="#DejaVuSans-72"/>
     <use x="177.572266" xlink:href="#DejaVuSans-64"/>
     <use x="241.048828" xlink:href="#DejaVuSans-69"/>
     <use x="268.832031" xlink:href="#DejaVuSans-6e"/>
     <use x="332.210938" xlink:href="#DejaVuSans-67"/>
     <use x="395.6875" xlink:href="#DejaVuSans-28"/>
     <use x="434.701172" xlink:href="#DejaVuSans-24"/>
     <use x="498.324219" xlink:href="#DejaVuSans-31"/>
     <use x="561.947266" xlink:href="#DejaVuSans-6b"/>
     <use x="619.857422" xlink:href="#DejaVuSans-29"/>
    </g>
   </g>
   <g id="text_46">
    <!-- $18k -->
    <g transform="translate(782.540957 357.194116)scale(0.097018 -0.097018)">
     <use xlink:href="#DejaVuSans-Bold-24"/>
     <use x="69.580078" xlink:href="#DejaVuSans-Bold-31"/>
     <use x="139.160156" xlink:href="#DejaVuSans-Bold-38"/>
     <use x="208.740234" xlink:href="#DejaVuSans-Bold-6b"/>
    </g>
   </g>
   <g id="text_47">
    <!-- Simmons -->
    <g transform="translate(770.892356 327.013444)scale(0.1 -0.1)">
     <use xlink:href="#DejaVuSans-53"/>
     <use x="63.476562" xlink:href="#DejaVuSans-69"/>
     <use x="91.259766" xlink:href="#DejaVuSans-6d"/>
     <use x="188.671875" xlink:href="#DejaVuSans-6d"/>
     <use x="286.083984" xlink:href="#DejaVuSans-6f"/>
     <use x="347.265625" xlink:href="#DejaVuSans-6e"/>
     <use x="410.644531" xlink:href="#DejaVuSans-73"/>
    </g>
   </g>
   <g id="patch_14">
    <path d="M 216.907774 619.467529 
L 217.197634 621.781858 
Q 189.148274 608.411497 160.93733 595.407045 
L 161.101208 597.009843 
Q 159.514552 595.653282 158.251066 593.564901 
Q 160.645646 593.09191 162.717057 593.350741 
L 161.422084 594.309315 
Q 190.036991 606.39899 218.813483 618.122756 
L 216.907774 619.467529 
z
" style="fill:#666666;stroke:#666666;stroke-linecap:round;"/>
   </g>
   <g id="text_48">
    <!-- Burgin($500) -->
    <g transform="translate(202.308807 630.358265)scale(0.1 -0.1)">
     <use xlink:href="#DejaVuSans-42"/>
     <use x="68.603516" xlink:href="#DejaVuSans-75"/>
     <use x="131.982422" xlink:href="#DejaVuSans-72"/>
     <use x="173.080078" xlink:href="#DejaVuSans-67"/>
     <use x="236.556641" xlink:href="#DejaVuSans-69"/>
     <use x="264.339844" xlink:href="#DejaVuSans-6e"/>
     <use x="327.71875" xlink:href="#DejaVuSans-28"/>
     <use x="366.732422" xlink:href="#DejaVuSans-24"/>
     <use x="430.355469" xlink:href="#DejaVuSans-35"/>
     <use x="493.978516" xlink:href="#DejaVuSans-30"/>
     <use x="557.601562" xlink:href="#DejaVuSans-30"/>
     <use x="621.224609" xlink:href="#DejaVuSans-29"/>
    </g>
   </g>
   <g id="text_49">
    <!-- $35k -->
    <defs>
     <path d="M 46.578125 39.3125 
Q 53.953125 37.40625 57.78125 32.6875 
Q 61.625 27.984375 61.625 20.703125 
Q 61.625 9.859375 53.3125 4.21875 
Q 45.015625 -1.421875 29.109375 -1.421875 
Q 23.484375 -1.421875 17.84375 -0.515625 
Q 12.203125 0.390625 6.6875 2.203125 
L 6.6875 16.703125 
Q 11.96875 14.0625 17.15625 12.71875 
Q 22.359375 11.375 27.390625 11.375 
Q 34.859375 11.375 38.84375 13.953125 
Q 42.828125 16.546875 42.828125 21.390625 
Q 42.828125 26.375 38.75 28.9375 
Q 34.671875 31.5 26.703125 31.5 
L 19.1875 31.5 
L 19.1875 43.609375 
L 27.09375 43.609375 
Q 34.1875 43.609375 37.640625 45.828125 
Q 41.109375 48.046875 41.109375 52.59375 
Q 41.109375 56.78125 37.734375 59.078125 
Q 34.375 61.375 28.21875 61.375 
Q 23.6875 61.375 19.046875 60.34375 
Q 14.40625 59.328125 9.8125 57.328125 
L 9.8125 71.09375 
Q 15.375 72.65625 20.84375 73.4375 
Q 26.3125 74.21875 31.59375 74.21875 
Q 45.796875 74.21875 52.84375 69.546875 
Q 59.90625 64.890625 59.90625 55.515625 
Q 59.90625 49.125 56.53125 45.046875 
Q 53.171875 40.96875 46.578125 39.3125 
z
" id="DejaVuSans-Bold-33"/>
    </defs>
    <g transform="translate(1380.413968 423.419207)scale(0.113894 -0.113894)">
     <use xlink:href="#DejaVuSans-Bold-24"/>
     <use x="69.580078" xlink:href="#DejaVuSans-Bold-33"/>
     <use x="139.160156" xlink:href="#DejaVuSans-Bold-35"/>
     <use x="208.740234" xlink:href="#DejaVuSans-Bold-6b"/>
    </g>
   </g>
   <g id="text_50">
    <!-- Toomey -->
    <g transform="translate(1371.087798 382.372369)scale(0.1 -0.1)">
     <use xlink:href="#DejaVuSans-54"/>
     <use x="60.818359" xlink:href="#DejaVuSans-6f"/>
     <use x="122" xlink:href="#DejaVuSans-6f"/>
     <use x="183.181641" xlink:href="#DejaVuSans-6d"/>
     <use x="280.59375" xlink:href="#DejaVuSans-65"/>
     <use x="342.117188" xlink:href="#DejaVuSans-79"/>
    </g>
   </g>
   <g id="text_51">
    <!-- Levy($1k) -->
    <defs>
     <path d="M 9.8125 72.90625 
L 19.671875 72.90625 
L 19.671875 8.296875 
L 55.171875 8.296875 
L 55.171875 0 
L 9.8125 0 
z
" id="DejaVuSans-4c"/>
    </defs>
    <g transform="translate(146.72823 586.424831)scale(0.1 -0.1)">
     <use xlink:href="#DejaVuSans-4c"/>
     <use x="55.697266" xlink:href="#DejaVuSans-65"/>
     <use x="117.220703" xlink:href="#DejaVuSans-76"/>
     <use x="176.400391" xlink:href="#DejaVuSans-79"/>
     <use x="235.580078" xlink:href="#DejaVuSans-28"/>
     <use x="274.59375" xlink:href="#DejaVuSans-24"/>
     <use x="338.216797" xlink:href="#DejaVuSans-31"/>
     <use x="401.839844" xlink:href="#DejaVuSans-6b"/>
     <use x="459.75" xlink:href="#DejaVuSans-29"/>
    </g>
   </g>
  </g>
 </g>
 <defs>
  <clipPath id="p441f0bb882">
   <rect height="654.64" width="1346.74" x="79.94" y="13.32"/>
  </clipPath>
 </defs>
</svg>
