<?xml version="1.0" encoding="utf-8" standalone="no"?>
<!DOCTYPE svg PUBLIC "-//W3C//DTD SVG 1.1//EN"
  "http://www.w3.org/Graphics/SVG/1.1/DTD/svg11.dtd">
<svg xmlns:xlink="http://www.w3.org/1999/xlink" width="1440pt" height="720pt" viewBox="0 0 1440 720" xmlns="http://www.w3.org/2000/svg" version="1.1">
 <metadata>
  <rdf:RDF xmlns:dc="http://purl.org/dc/elements/1.1/" xmlns:cc="http://creativecommons.org/ns#" xmlns:rdf="http://www.w3.org/1999/02/22-rdf-syntax-ns#">
   <cc:Work>
    <dc:type rdf:resource="http://purl.org/dc/dcmitype/StillImage"/>
    <dc:date>2023-11-03T20:24:51.736357</dc:date>
    <dc:format>image/svg+xml</dc:format>
    <dc:creator>
     <cc:Agent>
      <dc:title>Matplotlib v3.8.1, https://matplotlib.org/</dc:title>
     </cc:Agent>
    </dc:creator>
   </cc:Work>
  </rdf:RDF>
 </metadata>
 <defs>
  <style type="text/css">*{stroke-linejoin: round; stroke-linecap: butt}</style>
 </defs>
 <g id="figure_1">
  <g id="patch_1">
   <path d="M 0 720 
L 1440 720 
L 1440 0 
L 0 0 
z
" style="fill: #ffffff"/>
  </g>
  <g id="axes_1">
   <g id="patch_2">
    <path d="M 79.445 668.68 
L 1429.2 668.68 
L 1429.2 28.025076 
L 79.445 28.025076 
z
" style="fill: #ffffff"/>
   </g>
   <g id="PathCollection_1">
    <path d="M 123.031631 640.577052 
C 123.642742 640.577052 124.228905 640.334255 124.661026 639.902135 
C 125.093146 639.470014 125.335943 638.883851 125.335943 638.272741 
C 125.335943 637.66163 125.093146 637.075467 124.661026 636.643347 
C 124.228905 636.211226 123.642742 635.96843 123.031631 635.96843 
C 122.420521 635.96843 121.834358 636.211226 121.402237 636.643347 
C 120.970117 637.075467 120.72732 637.66163 120.72732 638.272741 
C 120.72732 638.883851 120.970117 639.470014 121.402237 639.902135 
C 121.834358 640.334255 122.420521 640.577052 123.031631 640.577052 
z
" clip-path="url(#pd58369c3e8)" style="fill: #8000ff; stroke: #8000ff"/>
    <path d="M 133.724144 638.792034 
C 134.435492 638.792034 135.1178 638.509412 135.620799 638.006413 
C 136.123798 637.503415 136.406419 636.821106 136.406419 636.109758 
C 136.406419 635.398411 136.123798 634.716102 135.620799 634.213103 
C 135.1178 633.710105 134.435492 633.427483 133.724144 633.427483 
C 133.012796 633.427483 132.330488 633.710105 131.827489 634.213103 
C 131.32449 634.716102 131.041869 635.398411 131.041869 636.109758 
C 131.041869 636.821106 131.32449 637.503415 131.827489 638.006413 
C 132.330488 638.509412 133.012796 638.792034 133.724144 638.792034 
z
" clip-path="url(#pd58369c3e8)" style="fill: #6a22fe; stroke: #6a22fe"/>
    <path d="M 155.994557 631.850974 
C 156.872748 631.850974 157.715089 631.502065 158.336063 630.881091 
C 158.957038 630.260116 159.305947 629.417775 159.305947 628.539585 
C 159.305947 627.661394 158.957038 626.819053 158.336063 626.198079 
C 157.715089 625.577104 156.872748 625.228195 155.994557 625.228195 
C 155.116367 625.228195 154.274026 625.577104 153.653051 626.198079 
C 153.032077 626.819053 152.683168 627.661394 152.683168 628.539585 
C 152.683168 629.417775 153.032077 630.260116 153.653051 630.881091 
C 154.274026 631.502065 155.116367 631.850974 155.994557 631.850974 
z
" clip-path="url(#pd58369c3e8)" style="fill: #5444fd; stroke: #5444fd"/>
    <path d="M 198.220538 651.168287 
C 200.614207 651.168287 202.91016 650.217272 204.60274 648.524693 
C 206.29532 646.832113 207.246335 644.53616 207.246335 642.142491 
C 207.246335 639.748822 206.29532 637.452869 204.60274 635.760289 
C 202.91016 634.067709 200.614207 633.116694 198.220538 633.116694 
C 195.826869 633.116694 193.530916 634.067709 191.838336 635.760289 
C 190.145757 637.452869 189.194742 639.748822 189.194742 642.142491 
C 189.194742 644.53616 190.145757 646.832113 191.838336 648.524693 
C 193.530916 650.217272 195.826869 651.168287 198.220538 651.168287 
z
" clip-path="url(#pd58369c3e8)" style="fill: #3e65fa; stroke: #3e65fa"/>
    <path d="M 279.954392 583.052549 
C 280.996919 583.052549 281.996887 582.638349 282.734064 581.901172 
C 283.471242 581.163994 283.885442 580.164026 283.885442 579.1215 
C 283.885442 578.078973 283.471242 577.079006 282.734064 576.341828 
C 281.996887 575.604651 280.996919 575.19045 279.954392 575.19045 
C 278.911866 575.19045 277.911898 575.604651 277.174721 576.341828 
C 276.437543 577.079006 276.023343 578.078973 276.023343 579.1215 
C 276.023343 580.164026 276.437543 581.163994 277.174721 581.901172 
C 277.911898 582.638349 278.911866 583.052549 279.954392 583.052549 
z
" clip-path="url(#pd58369c3e8)" style="fill: #2884f6; stroke: #2884f6"/>
    <path d="M 288.002074 627.256234 
C 290.764357 627.256234 293.413875 626.158768 295.367104 624.205539 
C 297.320333 622.25231 298.4178 619.602791 298.4178 616.840508 
C 298.4178 614.078225 297.320333 611.428707 295.367104 609.475478 
C 293.413875 607.522249 290.764357 606.424782 288.002074 606.424782 
C 285.239791 606.424782 282.590272 607.522249 280.637043 609.475478 
C 278.683814 611.428707 277.586348 614.078225 277.586348 616.840508 
C 277.586348 619.602791 278.683814 622.25231 280.637043 624.205539 
C 282.590272 626.158768 285.239791 627.256234 288.002074 627.256234 
z
" clip-path="url(#pd58369c3e8)" style="fill: #11a0f1; stroke: #11a0f1"/>
    <path d="M 439.770711 571.560841 
C 443.260093 571.560841 446.607029 570.174494 449.074395 567.707128 
C 451.541761 565.239762 452.928108 561.892826 452.928108 558.403443 
C 452.928108 554.914061 451.541761 551.567125 449.074395 549.099759 
C 446.607029 546.632393 443.260093 545.246046 439.770711 545.246046 
C 436.281328 545.246046 432.934392 546.632393 430.467026 549.099759 
C 427.99966 551.567125 426.613313 554.914061 426.613313 558.403443 
C 426.613313 561.892826 427.99966 565.239762 430.467026 567.707128 
C 432.934392 570.174494 436.281328 571.560841 439.770711 571.560841 
z
" clip-path="url(#pd58369c3e8)" style="fill: #04b9ea; stroke: #04b9ea"/>
    <path d="M 711.401427 448.381492 
C 714.34052 448.381492 717.159632 447.213778 719.237885 445.135525 
C 721.316138 443.057272 722.483852 440.23816 722.483852 437.299067 
C 722.483852 434.359973 721.316138 431.540862 719.237885 429.462609 
C 717.159632 427.384356 714.34052 426.216641 711.401427 426.216641 
C 708.462333 426.216641 705.643222 427.384356 703.564969 429.462609 
C 701.486716 431.540862 700.319001 434.359973 700.319001 437.299067 
C 700.319001 440.23816 701.486716 443.057272 703.564969 445.135525 
C 705.643222 447.213778 708.462333 448.381492 711.401427 448.381492 
z
" clip-path="url(#pd58369c3e8)" style="fill: #1acfe3; stroke: #1acfe3"/>
    <path d="M 773.241815 427.384841 
C 776.038454 427.384841 778.720927 426.273724 780.69845 424.296202 
C 782.675972 422.318679 783.787089 419.636207 783.787089 416.839567 
C 783.787089 414.042928 782.675972 411.360455 780.69845 409.382933 
C 778.720927 407.40541 776.038454 406.294293 773.241815 406.294293 
C 770.445176 406.294293 767.762703 407.40541 765.78518 409.382933 
C 763.807658 411.360455 762.696541 414.042928 762.696541 416.839567 
C 762.696541 419.636207 763.807658 422.318679 765.78518 424.296202 
C 767.762703 426.273724 770.445176 427.384841 773.241815 427.384841 
z
" clip-path="url(#pd58369c3e8)" style="fill: #32e3da; stroke: #32e3da"/>
    <path d="M 558.687375 545.313999 
C 562.156342 545.313999 565.483697 543.935763 567.936627 541.482833 
C 570.389558 539.029903 571.767793 535.702548 571.767793 532.23358 
C 571.767793 528.764613 570.389558 525.437258 567.936627 522.984328 
C 565.483697 520.531397 562.156342 519.153162 558.687375 519.153162 
C 555.218407 519.153162 551.891053 520.531397 549.438122 522.984328 
C 546.985192 525.437258 545.606956 528.764613 545.606956 532.23358 
C 545.606956 535.702548 546.985192 539.029903 549.438122 541.482833 
C 551.891053 543.935763 555.218407 545.313999 558.687375 545.313999 
z
" clip-path="url(#pd58369c3e8)" style="fill: #48f1d0; stroke: #48f1d0"/>
    <path d="M 731.531007 532.069247 
C 737.268347 532.069247 742.771472 529.789778 746.828384 525.732866 
C 750.885296 521.675954 753.164765 516.172829 753.164765 510.435489 
C 753.164765 504.698149 750.885296 499.195024 746.828384 495.138112 
C 742.771472 491.0812 737.268347 488.801731 731.531007 488.801731 
C 725.793667 488.801731 720.290541 491.0812 716.23363 495.138112 
C 712.176718 499.195024 709.897248 504.698149 709.897248 510.435489 
C 709.897248 516.172829 712.176718 521.675954 716.23363 525.732866 
C 720.290541 529.789778 725.793667 532.069247 731.531007 532.069247 
z
" clip-path="url(#pd58369c3e8)" style="fill: #5efac6; stroke: #5efac6"/>
    <path d="M 197.683973 607.832671 
C 197.945901 607.832671 198.197135 607.728606 198.382346 607.543395 
C 198.567557 607.358184 198.671622 607.106949 198.671622 606.845022 
C 198.671622 606.583094 198.567557 606.33186 198.382346 606.146649 
C 198.197135 605.961438 197.945901 605.857373 197.683973 605.857373 
C 197.422045 605.857373 197.170811 605.961438 196.9856 606.146649 
C 196.800389 606.33186 196.696324 606.583094 196.696324 606.845022 
C 196.696324 607.106949 196.800389 607.358184 196.9856 607.543395 
C 197.170811 607.728606 197.422045 607.832671 197.683973 607.832671 
z
" clip-path="url(#pd58369c3e8)" style="fill: #74feba; stroke: #74feba"/>
    <path d="M 258.095702 605.221579 
C 259.768135 605.221579 261.372295 604.557114 262.554884 603.374526 
C 263.737473 602.191937 264.401937 600.587777 264.401937 598.915344 
C 264.401937 597.242911 263.737473 595.638751 262.554884 594.456163 
C 261.372295 593.273574 259.768135 592.609109 258.095702 592.609109 
C 256.423269 592.609109 254.819109 593.273574 253.636521 594.456163 
C 252.453932 595.638751 251.789467 597.242911 251.789467 598.915344 
C 251.789467 600.587777 252.453932 602.191937 253.636521 603.374526 
C 254.819109 604.557114 256.423269 605.221579 258.095702 605.221579 
z
" clip-path="url(#pd58369c3e8)" style="fill: #8bfeae; stroke: #8bfeae"/>
    <path d="M 453.258759 537.566874 
C 455.409179 537.566874 457.471813 536.712503 458.99239 535.191927 
C 460.512966 533.67135 461.367337 531.608716 461.367337 529.458296 
C 461.367337 527.307875 460.512966 525.245241 458.99239 523.724665 
C 457.471813 522.204088 455.409179 521.349717 453.258759 521.349717 
C 451.108338 521.349717 449.045704 522.204088 447.525128 523.724665 
C 446.004551 525.245241 445.15018 527.307875 445.15018 529.458296 
C 445.15018 531.608716 446.004551 533.67135 447.525128 535.191927 
C 449.045704 536.712503 451.108338 537.566874 453.258759 537.566874 
z
" clip-path="url(#pd58369c3e8)" style="fill: #a0faa1; stroke: #a0faa1"/>
    <path d="M 497.792721 515.7509 
C 499.997348 515.7509 502.111977 514.874992 503.670884 513.316085 
C 505.229791 511.757178 506.105699 509.642549 506.105699 507.437922 
C 506.105699 505.233295 505.229791 503.118666 503.670884 501.559759 
C 502.111977 500.000852 499.997348 499.124944 497.792721 499.124944 
C 495.588093 499.124944 493.473465 500.000852 491.914558 501.559759 
C 490.355651 503.118666 489.479743 505.233295 489.479743 507.437922 
C 489.479743 509.642549 490.355651 511.757178 491.914558 513.316085 
C 493.473465 514.874992 495.588093 515.7509 497.792721 515.7509 
z
" clip-path="url(#pd58369c3e8)" style="fill: #b6f193; stroke: #b6f193"/>
    <path d="M 514.119728 517.090206 
C 516.420272 517.090206 518.626903 516.17619 520.253633 514.549459 
C 521.880364 512.922728 522.79438 510.716098 522.79438 508.415554 
C 522.79438 506.115009 521.880364 503.908379 520.253633 502.281648 
C 518.626903 500.654917 516.420272 499.740901 514.119728 499.740901 
C 511.819183 499.740901 509.612553 500.654917 507.985822 502.281648 
C 506.359091 503.908379 505.445075 506.115009 505.445075 508.415554 
C 505.445075 510.716098 506.359091 512.922728 507.985822 514.549459 
C 509.612553 516.17619 511.819183 517.090206 514.119728 517.090206 
z
" clip-path="url(#pd58369c3e8)" style="fill: #cce385; stroke: #cce385"/>
    <path d="M 388.664981 539.797665 
C 390.252592 539.797665 391.775392 539.166901 392.898003 538.04429 
C 394.020614 536.921679 394.651378 535.398879 394.651378 533.811268 
C 394.651378 532.223657 394.020614 530.700857 392.898003 529.578246 
C 391.775392 528.455635 390.252592 527.824871 388.664981 527.824871 
C 387.07737 527.824871 385.55457 528.455635 384.431959 529.578246 
C 383.309348 530.700857 382.678584 532.223657 382.678584 533.811268 
C 382.678584 535.398879 383.309348 536.921679 384.431959 538.04429 
C 385.55457 539.166901 387.07737 539.797665 388.664981 539.797665 
z
" clip-path="url(#pd58369c3e8)" style="fill: #e4cf74; stroke: #e4cf74"/>
    <path d="M 332.844629 569.028759 
C 334.294516 569.028759 335.685215 568.452713 336.71044 567.427488 
C 337.735666 566.402262 338.311712 565.011563 338.311712 563.561676 
C 338.311712 562.111788 337.735666 560.721089 336.71044 559.695864 
C 335.685215 558.670639 334.294516 558.094593 332.844629 558.094593 
C 331.394741 558.094593 330.004042 558.670639 328.978817 559.695864 
C 327.953592 560.721089 327.377545 562.111788 327.377545 563.561676 
C 327.377545 565.011563 327.953592 566.402262 328.978817 567.427488 
C 330.004042 568.452713 331.394741 569.028759 332.844629 569.028759 
z
" clip-path="url(#pd58369c3e8)" style="fill: #fbb965; stroke: #fbb965"/>
    <path d="M 1018.409692 470.570435 
C 1024.791925 470.570435 1030.913618 468.034747 1035.426538 463.521827 
C 1039.939459 459.008907 1042.475147 452.887214 1042.475147 446.504981 
C 1042.475147 440.122748 1039.939459 434.001055 1035.426538 429.488135 
C 1030.913618 424.975215 1024.791925 422.439526 1018.409692 422.439526 
C 1012.027459 422.439526 1005.905766 424.975215 1001.392846 429.488135 
C 996.879926 434.001055 994.344238 440.122748 994.344238 446.504981 
C 994.344238 452.887214 996.879926 459.008907 1001.392846 463.521827 
C 1005.905766 468.034747 1012.027459 470.570435 1018.409692 470.570435 
z
" clip-path="url(#pd58369c3e8)" style="fill: #ffa055; stroke: #ffa055"/>
    <path d="M 538.550291 470.828494 
C 541.947555 470.828494 545.206134 469.478747 547.608362 467.076518 
C 550.010591 464.67429 551.360338 461.415711 551.360338 458.018447 
C 551.360338 454.621183 550.010591 451.362605 547.608362 448.960376 
C 545.206134 446.558148 541.947555 445.2084 538.550291 445.2084 
C 535.153027 445.2084 531.894449 446.558148 529.49222 448.960376 
C 527.089992 451.362605 525.740244 454.621183 525.740244 458.018447 
C 525.740244 461.415711 527.089992 464.67429 529.49222 467.076518 
C 531.894449 469.478747 535.153027 470.828494 538.550291 470.828494 
z
" clip-path="url(#pd58369c3e8)" style="fill: #ff8444; stroke: #ff8444"/>
    <path d="M 1349.37773 84.359825 
C 1355.540342 84.359825 1361.45138 81.911393 1365.809005 77.553768 
C 1370.16663 73.196143 1372.615062 67.285106 1372.615062 61.122493 
C 1372.615062 54.959881 1370.16663 49.048843 1365.809005 44.691218 
C 1361.45138 40.333593 1355.540342 37.885161 1349.37773 37.885161 
C 1343.215117 37.885161 1337.30408 40.333593 1332.946455 44.691218 
C 1328.588829 49.048843 1326.140398 54.959881 1326.140398 61.122493 
C 1326.140398 67.285106 1328.588829 73.196143 1332.946455 77.553768 
C 1337.30408 81.911393 1343.215117 84.359825 1349.37773 84.359825 
z
" clip-path="url(#pd58369c3e8)" style="fill: #ff6533; stroke: #ff6533"/>
    <path d="M 191.988175 610.559853 
C 192.299701 610.559853 192.59851 610.436082 192.818792 610.2158 
C 193.039075 609.995518 193.162845 609.696709 193.162845 609.385183 
C 193.162845 609.073656 193.039075 608.774848 192.818792 608.554565 
C 192.59851 608.334283 192.299701 608.210512 191.988175 608.210512 
C 191.676649 608.210512 191.37784 608.334283 191.157558 608.554565 
C 190.937276 608.774848 190.813505 609.073656 190.813505 609.385183 
C 190.813505 609.696709 190.937276 609.995518 191.157558 610.2158 
C 191.37784 610.436082 191.676649 610.559853 191.988175 610.559853 
z
" clip-path="url(#pd58369c3e8)" style="fill: #ff4422; stroke: #ff4422"/>
    <path d="M 634.072964 520.46905 
C 639.804611 520.46905 645.302277 518.191842 649.355164 514.138955 
C 653.408051 510.086068 655.685259 504.588402 655.685259 498.856755 
C 655.685259 493.125107 653.408051 487.627441 649.355164 483.574554 
C 645.302277 479.521667 639.804611 477.244459 634.072964 477.244459 
C 628.341316 477.244459 622.84365 479.521667 618.790763 483.574554 
C 614.737876 487.627441 612.460669 493.125107 612.460669 498.856755 
C 612.460669 504.588402 614.737876 510.086068 618.790763 514.138955 
C 622.84365 518.191842 628.341316 520.46905 634.072964 520.46905 
z
" clip-path="url(#pd58369c3e8)" style="fill: #ff2211; stroke: #ff2211"/>
    <path d="M 368.570363 558.361655 
C 370.199802 558.361655 371.762724 557.714272 372.914911 556.562084 
C 374.067099 555.409897 374.714482 553.846976 374.714482 552.217536 
C 374.714482 550.588097 374.067099 549.025175 372.914911 547.872988 
C 371.762724 546.7208 370.199802 546.073417 368.570363 546.073417 
C 366.940924 546.073417 365.378002 546.7208 364.225815 547.872988 
C 363.073627 549.025175 362.426244 550.588097 362.426244 552.217536 
C 362.426244 553.846976 363.073627 555.409897 364.225815 556.562084 
C 365.378002 557.714272 366.940924 558.361655 368.570363 558.361655 
z
" clip-path="url(#pd58369c3e8)" style="fill: #ff0000; stroke: #ff0000"/>
   </g>
   <g id="matplotlib.axis_1">
    <g id="xtick_1">
     <g id="line2d_1">
      <path d="M 111.373908 668.68 
L 111.373908 28.025076 
" clip-path="url(#pd58369c3e8)" style="fill: none; stroke: #b0b0b0; stroke-width: 0.8; stroke-linecap: square"/>
     </g>
     <g id="line2d_2">
      <defs>
       <path id="m951ed03cf5" d="M 0 0 
L 0 3.5 
" style="stroke: #000000; stroke-width: 0.8"/>
      </defs>
      <g>
       <use xlink:href="#m951ed03cf5" x="111.373908" y="668.68" style="stroke: #000000; stroke-width: 0.8"/>
      </g>
     </g>
     <g id="text_1">
      <!-- $0 -->
      <g transform="translate(105.011408 683.278437) scale(0.1 -0.1)">
       <defs>
        <path id="DejaVuSans-24" d="M 2163 -941 
L 1850 -941 
L 1847 0 
Q 1519 6 1191 76 
Q 863 147 531 288 
L 531 850 
Q 850 650 1176 548 
Q 1503 447 1850 444 
L 1850 1869 
Q 1159 1981 845 2250 
Q 531 2519 531 2988 
Q 531 3497 872 3790 
Q 1213 4084 1850 4128 
L 1850 4863 
L 2163 4863 
L 2163 4138 
Q 2453 4125 2725 4076 
Q 2997 4028 3256 3944 
L 3256 3397 
Q 2997 3528 2723 3600 
Q 2450 3672 2163 3684 
L 2163 2350 
Q 2872 2241 3206 1959 
Q 3541 1678 3541 1191 
Q 3541 663 3186 358 
Q 2831 53 2163 6 
L 2163 -941 
z
M 1850 2406 
L 1850 3688 
Q 1488 3647 1297 3481 
Q 1106 3316 1106 3041 
Q 1106 2772 1282 2622 
Q 1459 2472 1850 2406 
z
M 2163 1806 
L 2163 453 
Q 2559 506 2761 678 
Q 2963 850 2963 1131 
Q 2963 1406 2770 1568 
Q 2578 1731 2163 1806 
z
" transform="scale(0.015625)"/>
        <path id="DejaVuSans-30" d="M 2034 4250 
Q 1547 4250 1301 3770 
Q 1056 3291 1056 2328 
Q 1056 1369 1301 889 
Q 1547 409 2034 409 
Q 2525 409 2770 889 
Q 3016 1369 3016 2328 
Q 3016 3291 2770 3770 
Q 2525 4250 2034 4250 
z
M 2034 4750 
Q 2819 4750 3233 4129 
Q 3647 3509 3647 2328 
Q 3647 1150 3233 529 
Q 2819 -91 2034 -91 
Q 1250 -91 836 529 
Q 422 1150 422 2328 
Q 422 3509 836 4129 
Q 1250 4750 2034 4750 
z
" transform="scale(0.015625)"/>
       </defs>
       <use xlink:href="#DejaVuSans-24"/>
       <use xlink:href="#DejaVuSans-30" x="63.623047"/>
      </g>
     </g>
    </g>
    <g id="xtick_2">
     <g id="line2d_3">
      <path d="M 271.018449 668.68 
L 271.018449 28.025076 
" clip-path="url(#pd58369c3e8)" style="fill: none; stroke: #b0b0b0; stroke-width: 0.8; stroke-linecap: square"/>
     </g>
     <g id="line2d_4">
      <g>
       <use xlink:href="#m951ed03cf5" x="271.018449" y="668.68" style="stroke: #000000; stroke-width: 0.8"/>
      </g>
     </g>
     <g id="text_2">
      <!-- $10000 -->
      <g transform="translate(251.930949 683.278437) scale(0.1 -0.1)">
       <defs>
        <path id="DejaVuSans-31" d="M 794 531 
L 1825 531 
L 1825 4091 
L 703 3866 
L 703 4441 
L 1819 4666 
L 2450 4666 
L 2450 531 
L 3481 531 
L 3481 0 
L 794 0 
L 794 531 
z
" transform="scale(0.015625)"/>
       </defs>
       <use xlink:href="#DejaVuSans-24"/>
       <use xlink:href="#DejaVuSans-31" x="63.623047"/>
       <use xlink:href="#DejaVuSans-30" x="127.246094"/>
       <use xlink:href="#DejaVuSans-30" x="190.869141"/>
       <use xlink:href="#DejaVuSans-30" x="254.492188"/>
       <use xlink:href="#DejaVuSans-30" x="318.115234"/>
      </g>
     </g>
    </g>
    <g id="xtick_3">
     <g id="line2d_5">
      <path d="M 430.66299 668.68 
L 430.66299 28.025076 
" clip-path="url(#pd58369c3e8)" style="fill: none; stroke: #b0b0b0; stroke-width: 0.8; stroke-linecap: square"/>
     </g>
     <g id="line2d_6">
      <g>
       <use xlink:href="#m951ed03cf5" x="430.66299" y="668.68" style="stroke: #000000; stroke-width: 0.8"/>
      </g>
     </g>
     <g id="text_3">
      <!-- $20000 -->
      <g transform="translate(411.57549 683.278437) scale(0.1 -0.1)">
       <defs>
        <path id="DejaVuSans-32" d="M 1228 531 
L 3431 531 
L 3431 0 
L 469 0 
L 469 531 
Q 828 903 1448 1529 
Q 2069 2156 2228 2338 
Q 2531 2678 2651 2914 
Q 2772 3150 2772 3378 
Q 2772 3750 2511 3984 
Q 2250 4219 1831 4219 
Q 1534 4219 1204 4116 
Q 875 4013 500 3803 
L 500 4441 
Q 881 4594 1212 4672 
Q 1544 4750 1819 4750 
Q 2544 4750 2975 4387 
Q 3406 4025 3406 3419 
Q 3406 3131 3298 2873 
Q 3191 2616 2906 2266 
Q 2828 2175 2409 1742 
Q 1991 1309 1228 531 
z
" transform="scale(0.015625)"/>
       </defs>
       <use xlink:href="#DejaVuSans-24"/>
       <use xlink:href="#DejaVuSans-32" x="63.623047"/>
       <use xlink:href="#DejaVuSans-30" x="127.246094"/>
       <use xlink:href="#DejaVuSans-30" x="190.869141"/>
       <use xlink:href="#DejaVuSans-30" x="254.492188"/>
       <use xlink:href="#DejaVuSans-30" x="318.115234"/>
      </g>
     </g>
    </g>
    <g id="xtick_4">
     <g id="line2d_7">
      <path d="M 590.30753 668.68 
L 590.30753 28.025076 
" clip-path="url(#pd58369c3e8)" style="fill: none; stroke: #b0b0b0; stroke-width: 0.8; stroke-linecap: square"/>
     </g>
     <g id="line2d_8">
      <g>
       <use xlink:href="#m951ed03cf5" x="590.30753" y="668.68" style="stroke: #000000; stroke-width: 0.8"/>
      </g>
     </g>
     <g id="text_4">
      <!-- $30000 -->
      <g transform="translate(571.22003 683.278437) scale(0.1 -0.1)">
       <defs>
        <path id="DejaVuSans-33" d="M 2597 2516 
Q 3050 2419 3304 2112 
Q 3559 1806 3559 1356 
Q 3559 666 3084 287 
Q 2609 -91 1734 -91 
Q 1441 -91 1130 -33 
Q 819 25 488 141 
L 488 750 
Q 750 597 1062 519 
Q 1375 441 1716 441 
Q 2309 441 2620 675 
Q 2931 909 2931 1356 
Q 2931 1769 2642 2001 
Q 2353 2234 1838 2234 
L 1294 2234 
L 1294 2753 
L 1863 2753 
Q 2328 2753 2575 2939 
Q 2822 3125 2822 3475 
Q 2822 3834 2567 4026 
Q 2313 4219 1838 4219 
Q 1578 4219 1281 4162 
Q 984 4106 628 3988 
L 628 4550 
Q 988 4650 1302 4700 
Q 1616 4750 1894 4750 
Q 2613 4750 3031 4423 
Q 3450 4097 3450 3541 
Q 3450 3153 3228 2886 
Q 3006 2619 2597 2516 
z
" transform="scale(0.015625)"/>
       </defs>
       <use xlink:href="#DejaVuSans-24"/>
       <use xlink:href="#DejaVuSans-33" x="63.623047"/>
       <use xlink:href="#DejaVuSans-30" x="127.246094"/>
       <use xlink:href="#DejaVuSans-30" x="190.869141"/>
       <use xlink:href="#DejaVuSans-30" x="254.492188"/>
       <use xlink:href="#DejaVuSans-30" x="318.115234"/>
      </g>
     </g>
    </g>
    <g id="xtick_5">
     <g id="line2d_9">
      <path d="M 749.952071 668.68 
L 749.952071 28.025076 
" clip-path="url(#pd58369c3e8)" style="fill: none; stroke: #b0b0b0; stroke-width: 0.8; stroke-linecap: square"/>
     </g>
     <g id="line2d_10">
      <g>
       <use xlink:href="#m951ed03cf5" x="749.952071" y="668.68" style="stroke: #000000; stroke-width: 0.8"/>
      </g>
     </g>
     <g id="text_5">
      <!-- $40000 -->
      <g transform="translate(730.864571 683.278437) scale(0.1 -0.1)">
       <defs>
        <path id="DejaVuSans-34" d="M 2419 4116 
L 825 1625 
L 2419 1625 
L 2419 4116 
z
M 2253 4666 
L 3047 4666 
L 3047 1625 
L 3713 1625 
L 3713 1100 
L 3047 1100 
L 3047 0 
L 2419 0 
L 2419 1100 
L 313 1100 
L 313 1709 
L 2253 4666 
z
" transform="scale(0.015625)"/>
       </defs>
       <use xlink:href="#DejaVuSans-24"/>
       <use xlink:href="#DejaVuSans-34" x="63.623047"/>
       <use xlink:href="#DejaVuSans-30" x="127.246094"/>
       <use xlink:href="#DejaVuSans-30" x="190.869141"/>
       <use xlink:href="#DejaVuSans-30" x="254.492188"/>
       <use xlink:href="#DejaVuSans-30" x="318.115234"/>
      </g>
     </g>
    </g>
    <g id="xtick_6">
     <g id="line2d_11">
      <path d="M 909.596612 668.68 
L 909.596612 28.025076 
" clip-path="url(#pd58369c3e8)" style="fill: none; stroke: #b0b0b0; stroke-width: 0.8; stroke-linecap: square"/>
     </g>
     <g id="line2d_12">
      <g>
       <use xlink:href="#m951ed03cf5" x="909.596612" y="668.68" style="stroke: #000000; stroke-width: 0.8"/>
      </g>
     </g>
     <g id="text_6">
      <!-- $50000 -->
      <g transform="translate(890.509112 683.278437) scale(0.1 -0.1)">
       <defs>
        <path id="DejaVuSans-35" d="M 691 4666 
L 3169 4666 
L 3169 4134 
L 1269 4134 
L 1269 2991 
Q 1406 3038 1543 3061 
Q 1681 3084 1819 3084 
Q 2600 3084 3056 2656 
Q 3513 2228 3513 1497 
Q 3513 744 3044 326 
Q 2575 -91 1722 -91 
Q 1428 -91 1123 -41 
Q 819 9 494 109 
L 494 744 
Q 775 591 1075 516 
Q 1375 441 1709 441 
Q 2250 441 2565 725 
Q 2881 1009 2881 1497 
Q 2881 1984 2565 2268 
Q 2250 2553 1709 2553 
Q 1456 2553 1204 2497 
Q 953 2441 691 2322 
L 691 4666 
z
" transform="scale(0.015625)"/>
       </defs>
       <use xlink:href="#DejaVuSans-24"/>
       <use xlink:href="#DejaVuSans-35" x="63.623047"/>
       <use xlink:href="#DejaVuSans-30" x="127.246094"/>
       <use xlink:href="#DejaVuSans-30" x="190.869141"/>
       <use xlink:href="#DejaVuSans-30" x="254.492188"/>
       <use xlink:href="#DejaVuSans-30" x="318.115234"/>
      </g>
     </g>
    </g>
    <g id="xtick_7">
     <g id="line2d_13">
      <path d="M 1069.241153 668.68 
L 1069.241153 28.025076 
" clip-path="url(#pd58369c3e8)" style="fill: none; stroke: #b0b0b0; stroke-width: 0.8; stroke-linecap: square"/>
     </g>
     <g id="line2d_14">
      <g>
       <use xlink:href="#m951ed03cf5" x="1069.241153" y="668.68" style="stroke: #000000; stroke-width: 0.8"/>
      </g>
     </g>
     <g id="text_7">
      <!-- $60000 -->
      <g transform="translate(1050.153653 683.278437) scale(0.1 -0.1)">
       <defs>
        <path id="DejaVuSans-36" d="M 2113 2584 
Q 1688 2584 1439 2293 
Q 1191 2003 1191 1497 
Q 1191 994 1439 701 
Q 1688 409 2113 409 
Q 2538 409 2786 701 
Q 3034 994 3034 1497 
Q 3034 2003 2786 2293 
Q 2538 2584 2113 2584 
z
M 3366 4563 
L 3366 3988 
Q 3128 4100 2886 4159 
Q 2644 4219 2406 4219 
Q 1781 4219 1451 3797 
Q 1122 3375 1075 2522 
Q 1259 2794 1537 2939 
Q 1816 3084 2150 3084 
Q 2853 3084 3261 2657 
Q 3669 2231 3669 1497 
Q 3669 778 3244 343 
Q 2819 -91 2113 -91 
Q 1303 -91 875 529 
Q 447 1150 447 2328 
Q 447 3434 972 4092 
Q 1497 4750 2381 4750 
Q 2619 4750 2861 4703 
Q 3103 4656 3366 4563 
z
" transform="scale(0.015625)"/>
       </defs>
       <use xlink:href="#DejaVuSans-24"/>
       <use xlink:href="#DejaVuSans-36" x="63.623047"/>
       <use xlink:href="#DejaVuSans-30" x="127.246094"/>
       <use xlink:href="#DejaVuSans-30" x="190.869141"/>
       <use xlink:href="#DejaVuSans-30" x="254.492188"/>
       <use xlink:href="#DejaVuSans-30" x="318.115234"/>
      </g>
     </g>
    </g>
    <g id="xtick_8">
     <g id="line2d_15">
      <path d="M 1228.885693 668.68 
L 1228.885693 28.025076 
" clip-path="url(#pd58369c3e8)" style="fill: none; stroke: #b0b0b0; stroke-width: 0.8; stroke-linecap: square"/>
     </g>
     <g id="line2d_16">
      <g>
       <use xlink:href="#m951ed03cf5" x="1228.885693" y="668.68" style="stroke: #000000; stroke-width: 0.8"/>
      </g>
     </g>
     <g id="text_8">
      <!-- $70000 -->
      <g transform="translate(1209.798193 683.278437) scale(0.1 -0.1)">
       <defs>
        <path id="DejaVuSans-37" d="M 525 4666 
L 3525 4666 
L 3525 4397 
L 1831 0 
L 1172 0 
L 2766 4134 
L 525 4134 
L 525 4666 
z
" transform="scale(0.015625)"/>
       </defs>
       <use xlink:href="#DejaVuSans-24"/>
       <use xlink:href="#DejaVuSans-37" x="63.623047"/>
       <use xlink:href="#DejaVuSans-30" x="127.246094"/>
       <use xlink:href="#DejaVuSans-30" x="190.869141"/>
       <use xlink:href="#DejaVuSans-30" x="254.492188"/>
       <use xlink:href="#DejaVuSans-30" x="318.115234"/>
      </g>
     </g>
    </g>
    <g id="xtick_9">
     <g id="line2d_17">
      <path d="M 1388.530234 668.68 
L 1388.530234 28.025076 
" clip-path="url(#pd58369c3e8)" style="fill: none; stroke: #b0b0b0; stroke-width: 0.8; stroke-linecap: square"/>
     </g>
     <g id="line2d_18">
      <g>
       <use xlink:href="#m951ed03cf5" x="1388.530234" y="668.68" style="stroke: #000000; stroke-width: 0.8"/>
      </g>
     </g>
     <g id="text_9">
      <!-- $80000 -->
      <g transform="translate(1369.442734 683.278437) scale(0.1 -0.1)">
       <defs>
        <path id="DejaVuSans-38" d="M 2034 2216 
Q 1584 2216 1326 1975 
Q 1069 1734 1069 1313 
Q 1069 891 1326 650 
Q 1584 409 2034 409 
Q 2484 409 2743 651 
Q 3003 894 3003 1313 
Q 3003 1734 2745 1975 
Q 2488 2216 2034 2216 
z
M 1403 2484 
Q 997 2584 770 2862 
Q 544 3141 544 3541 
Q 544 4100 942 4425 
Q 1341 4750 2034 4750 
Q 2731 4750 3128 4425 
Q 3525 4100 3525 3541 
Q 3525 3141 3298 2862 
Q 3072 2584 2669 2484 
Q 3125 2378 3379 2068 
Q 3634 1759 3634 1313 
Q 3634 634 3220 271 
Q 2806 -91 2034 -91 
Q 1263 -91 848 271 
Q 434 634 434 1313 
Q 434 1759 690 2068 
Q 947 2378 1403 2484 
z
M 1172 3481 
Q 1172 3119 1398 2916 
Q 1625 2713 2034 2713 
Q 2441 2713 2670 2916 
Q 2900 3119 2900 3481 
Q 2900 3844 2670 4047 
Q 2441 4250 2034 4250 
Q 1625 4250 1398 4047 
Q 1172 3844 1172 3481 
z
" transform="scale(0.015625)"/>
       </defs>
       <use xlink:href="#DejaVuSans-24"/>
       <use xlink:href="#DejaVuSans-38" x="63.623047"/>
       <use xlink:href="#DejaVuSans-30" x="127.246094"/>
       <use xlink:href="#DejaVuSans-30" x="190.869141"/>
       <use xlink:href="#DejaVuSans-30" x="254.492188"/>
       <use xlink:href="#DejaVuSans-30" x="318.115234"/>
      </g>
     </g>
    </g>
    <g id="text_10">
     <!-- Raised in 2023 -->
     <g transform="translate(680.06 704.555) scale(0.2 -0.2)">
      <defs>
       <path id="DejaVuSans-52" d="M 2841 2188 
Q 3044 2119 3236 1894 
Q 3428 1669 3622 1275 
L 4263 0 
L 3584 0 
L 2988 1197 
Q 2756 1666 2539 1819 
Q 2322 1972 1947 1972 
L 1259 1972 
L 1259 0 
L 628 0 
L 628 4666 
L 2053 4666 
Q 2853 4666 3247 4331 
Q 3641 3997 3641 3322 
Q 3641 2881 3436 2590 
Q 3231 2300 2841 2188 
z
M 1259 4147 
L 1259 2491 
L 2053 2491 
Q 2509 2491 2742 2702 
Q 2975 2913 2975 3322 
Q 2975 3731 2742 3939 
Q 2509 4147 2053 4147 
L 1259 4147 
z
" transform="scale(0.015625)"/>
       <path id="DejaVuSans-61" d="M 2194 1759 
Q 1497 1759 1228 1600 
Q 959 1441 959 1056 
Q 959 750 1161 570 
Q 1363 391 1709 391 
Q 2188 391 2477 730 
Q 2766 1069 2766 1631 
L 2766 1759 
L 2194 1759 
z
M 3341 1997 
L 3341 0 
L 2766 0 
L 2766 531 
Q 2569 213 2275 61 
Q 1981 -91 1556 -91 
Q 1019 -91 701 211 
Q 384 513 384 1019 
Q 384 1609 779 1909 
Q 1175 2209 1959 2209 
L 2766 2209 
L 2766 2266 
Q 2766 2663 2505 2880 
Q 2244 3097 1772 3097 
Q 1472 3097 1187 3025 
Q 903 2953 641 2809 
L 641 3341 
Q 956 3463 1253 3523 
Q 1550 3584 1831 3584 
Q 2591 3584 2966 3190 
Q 3341 2797 3341 1997 
z
" transform="scale(0.015625)"/>
       <path id="DejaVuSans-69" d="M 603 3500 
L 1178 3500 
L 1178 0 
L 603 0 
L 603 3500 
z
M 603 4863 
L 1178 4863 
L 1178 4134 
L 603 4134 
L 603 4863 
z
" transform="scale(0.015625)"/>
       <path id="DejaVuSans-73" d="M 2834 3397 
L 2834 2853 
Q 2591 2978 2328 3040 
Q 2066 3103 1784 3103 
Q 1356 3103 1142 2972 
Q 928 2841 928 2578 
Q 928 2378 1081 2264 
Q 1234 2150 1697 2047 
L 1894 2003 
Q 2506 1872 2764 1633 
Q 3022 1394 3022 966 
Q 3022 478 2636 193 
Q 2250 -91 1575 -91 
Q 1294 -91 989 -36 
Q 684 19 347 128 
L 347 722 
Q 666 556 975 473 
Q 1284 391 1588 391 
Q 1994 391 2212 530 
Q 2431 669 2431 922 
Q 2431 1156 2273 1281 
Q 2116 1406 1581 1522 
L 1381 1569 
Q 847 1681 609 1914 
Q 372 2147 372 2553 
Q 372 3047 722 3315 
Q 1072 3584 1716 3584 
Q 2034 3584 2315 3537 
Q 2597 3491 2834 3397 
z
" transform="scale(0.015625)"/>
       <path id="DejaVuSans-65" d="M 3597 1894 
L 3597 1613 
L 953 1613 
Q 991 1019 1311 708 
Q 1631 397 2203 397 
Q 2534 397 2845 478 
Q 3156 559 3463 722 
L 3463 178 
Q 3153 47 2828 -22 
Q 2503 -91 2169 -91 
Q 1331 -91 842 396 
Q 353 884 353 1716 
Q 353 2575 817 3079 
Q 1281 3584 2069 3584 
Q 2775 3584 3186 3129 
Q 3597 2675 3597 1894 
z
M 3022 2063 
Q 3016 2534 2758 2815 
Q 2500 3097 2075 3097 
Q 1594 3097 1305 2825 
Q 1016 2553 972 2059 
L 3022 2063 
z
" transform="scale(0.015625)"/>
       <path id="DejaVuSans-64" d="M 2906 2969 
L 2906 4863 
L 3481 4863 
L 3481 0 
L 2906 0 
L 2906 525 
Q 2725 213 2448 61 
Q 2172 -91 1784 -91 
Q 1150 -91 751 415 
Q 353 922 353 1747 
Q 353 2572 751 3078 
Q 1150 3584 1784 3584 
Q 2172 3584 2448 3432 
Q 2725 3281 2906 2969 
z
M 947 1747 
Q 947 1113 1208 752 
Q 1469 391 1925 391 
Q 2381 391 2643 752 
Q 2906 1113 2906 1747 
Q 2906 2381 2643 2742 
Q 2381 3103 1925 3103 
Q 1469 3103 1208 2742 
Q 947 2381 947 1747 
z
" transform="scale(0.015625)"/>
       <path id="DejaVuSans-20" transform="scale(0.015625)"/>
       <path id="DejaVuSans-6e" d="M 3513 2113 
L 3513 0 
L 2938 0 
L 2938 2094 
Q 2938 2591 2744 2837 
Q 2550 3084 2163 3084 
Q 1697 3084 1428 2787 
Q 1159 2491 1159 1978 
L 1159 0 
L 581 0 
L 581 3500 
L 1159 3500 
L 1159 2956 
Q 1366 3272 1645 3428 
Q 1925 3584 2291 3584 
Q 2894 3584 3203 3211 
Q 3513 2838 3513 2113 
z
" transform="scale(0.015625)"/>
      </defs>
      <use xlink:href="#DejaVuSans-52"/>
      <use xlink:href="#DejaVuSans-61" x="67.232422"/>
      <use xlink:href="#DejaVuSans-69" x="128.511719"/>
      <use xlink:href="#DejaVuSans-73" x="156.294922"/>
      <use xlink:href="#DejaVuSans-65" x="208.394531"/>
      <use xlink:href="#DejaVuSans-64" x="269.917969"/>
      <use xlink:href="#DejaVuSans-20" x="333.394531"/>
      <use xlink:href="#DejaVuSans-69" x="365.181641"/>
      <use xlink:href="#DejaVuSans-6e" x="392.964844"/>
      <use xlink:href="#DejaVuSans-20" x="456.34375"/>
      <use xlink:href="#DejaVuSans-32" x="488.130859"/>
      <use xlink:href="#DejaVuSans-30" x="551.753906"/>
      <use xlink:href="#DejaVuSans-32" x="615.376953"/>
      <use xlink:href="#DejaVuSans-33" x="679"/>
     </g>
    </g>
   </g>
   <g id="matplotlib.axis_2">
    <g id="ytick_1">
     <g id="line2d_19">
      <path d="M 79.445 642.202066 
L 1429.2 642.202066 
" clip-path="url(#pd58369c3e8)" style="fill: none; stroke: #b0b0b0; stroke-width: 0.8; stroke-linecap: square"/>
     </g>
     <g id="line2d_20">
      <defs>
       <path id="mb5465762d5" d="M 0 0 
L -3.5 0 
" style="stroke: #000000; stroke-width: 0.8"/>
      </defs>
      <g>
       <use xlink:href="#mb5465762d5" x="79.445" y="642.202066" style="stroke: #000000; stroke-width: 0.8"/>
      </g>
     </g>
     <g id="text_11">
      <!-- $0 -->
      <g transform="translate(59.72 646.001285) scale(0.1 -0.1)">
       <use xlink:href="#DejaVuSans-24"/>
       <use xlink:href="#DejaVuSans-30" x="63.623047"/>
      </g>
     </g>
    </g>
    <g id="ytick_2">
     <g id="line2d_21">
      <path d="M 79.445 509.812397 
L 1429.2 509.812397 
" clip-path="url(#pd58369c3e8)" style="fill: none; stroke: #b0b0b0; stroke-width: 0.8; stroke-linecap: square"/>
     </g>
     <g id="line2d_22">
      <g>
       <use xlink:href="#mb5465762d5" x="79.445" y="509.812397" style="stroke: #000000; stroke-width: 0.8"/>
      </g>
     </g>
     <g id="text_12">
      <!-- $20000 -->
      <g transform="translate(34.27 513.611616) scale(0.1 -0.1)">
       <use xlink:href="#DejaVuSans-24"/>
       <use xlink:href="#DejaVuSans-32" x="63.623047"/>
       <use xlink:href="#DejaVuSans-30" x="127.246094"/>
       <use xlink:href="#DejaVuSans-30" x="190.869141"/>
       <use xlink:href="#DejaVuSans-30" x="254.492188"/>
       <use xlink:href="#DejaVuSans-30" x="318.115234"/>
      </g>
     </g>
    </g>
    <g id="ytick_3">
     <g id="line2d_23">
      <path d="M 79.445 377.422728 
L 1429.2 377.422728 
" clip-path="url(#pd58369c3e8)" style="fill: none; stroke: #b0b0b0; stroke-width: 0.8; stroke-linecap: square"/>
     </g>
     <g id="line2d_24">
      <g>
       <use xlink:href="#mb5465762d5" x="79.445" y="377.422728" style="stroke: #000000; stroke-width: 0.8"/>
      </g>
     </g>
     <g id="text_13">
      <!-- $40000 -->
      <g transform="translate(34.27 381.221946) scale(0.1 -0.1)">
       <use xlink:href="#DejaVuSans-24"/>
       <use xlink:href="#DejaVuSans-34" x="63.623047"/>
       <use xlink:href="#DejaVuSans-30" x="127.246094"/>
       <use xlink:href="#DejaVuSans-30" x="190.869141"/>
       <use xlink:href="#DejaVuSans-30" x="254.492188"/>
       <use xlink:href="#DejaVuSans-30" x="318.115234"/>
      </g>
     </g>
    </g>
    <g id="ytick_4">
     <g id="line2d_25">
      <path d="M 79.445 245.033058 
L 1429.2 245.033058 
" clip-path="url(#pd58369c3e8)" style="fill: none; stroke: #b0b0b0; stroke-width: 0.8; stroke-linecap: square"/>
     </g>
     <g id="line2d_26">
      <g>
       <use xlink:href="#mb5465762d5" x="79.445" y="245.033058" style="stroke: #000000; stroke-width: 0.8"/>
      </g>
     </g>
     <g id="text_14">
      <!-- $60000 -->
      <g transform="translate(34.27 248.832277) scale(0.1 -0.1)">
       <use xlink:href="#DejaVuSans-24"/>
       <use xlink:href="#DejaVuSans-36" x="63.623047"/>
       <use xlink:href="#DejaVuSans-30" x="127.246094"/>
       <use xlink:href="#DejaVuSans-30" x="190.869141"/>
       <use xlink:href="#DejaVuSans-30" x="254.492188"/>
       <use xlink:href="#DejaVuSans-30" x="318.115234"/>
      </g>
     </g>
    </g>
    <g id="ytick_5">
     <g id="line2d_27">
      <path d="M 79.445 112.643389 
L 1429.2 112.643389 
" clip-path="url(#pd58369c3e8)" style="fill: none; stroke: #b0b0b0; stroke-width: 0.8; stroke-linecap: square"/>
     </g>
     <g id="line2d_28">
      <g>
       <use xlink:href="#mb5465762d5" x="79.445" y="112.643389" style="stroke: #000000; stroke-width: 0.8"/>
      </g>
     </g>
     <g id="text_15">
      <!-- $80000 -->
      <g transform="translate(34.27 116.442608) scale(0.1 -0.1)">
       <use xlink:href="#DejaVuSans-24"/>
       <use xlink:href="#DejaVuSans-38" x="63.623047"/>
       <use xlink:href="#DejaVuSans-30" x="127.246094"/>
       <use xlink:href="#DejaVuSans-30" x="190.869141"/>
       <use xlink:href="#DejaVuSans-30" x="254.492188"/>
       <use xlink:href="#DejaVuSans-30" x="318.115234"/>
      </g>
     </g>
    </g>
    <g id="text_16">
     <!-- Spent in 2023 -->
     <g transform="translate(26.110625 418.382225) rotate(-90) scale(0.2 -0.2)">
      <defs>
       <path id="DejaVuSans-53" d="M 3425 4513 
L 3425 3897 
Q 3066 4069 2747 4153 
Q 2428 4238 2131 4238 
Q 1616 4238 1336 4038 
Q 1056 3838 1056 3469 
Q 1056 3159 1242 3001 
Q 1428 2844 1947 2747 
L 2328 2669 
Q 3034 2534 3370 2195 
Q 3706 1856 3706 1288 
Q 3706 609 3251 259 
Q 2797 -91 1919 -91 
Q 1588 -91 1214 -16 
Q 841 59 441 206 
L 441 856 
Q 825 641 1194 531 
Q 1563 422 1919 422 
Q 2459 422 2753 634 
Q 3047 847 3047 1241 
Q 3047 1584 2836 1778 
Q 2625 1972 2144 2069 
L 1759 2144 
Q 1053 2284 737 2584 
Q 422 2884 422 3419 
Q 422 4038 858 4394 
Q 1294 4750 2059 4750 
Q 2388 4750 2728 4690 
Q 3069 4631 3425 4513 
z
" transform="scale(0.015625)"/>
       <path id="DejaVuSans-70" d="M 1159 525 
L 1159 -1331 
L 581 -1331 
L 581 3500 
L 1159 3500 
L 1159 2969 
Q 1341 3281 1617 3432 
Q 1894 3584 2278 3584 
Q 2916 3584 3314 3078 
Q 3713 2572 3713 1747 
Q 3713 922 3314 415 
Q 2916 -91 2278 -91 
Q 1894 -91 1617 61 
Q 1341 213 1159 525 
z
M 3116 1747 
Q 3116 2381 2855 2742 
Q 2594 3103 2138 3103 
Q 1681 3103 1420 2742 
Q 1159 2381 1159 1747 
Q 1159 1113 1420 752 
Q 1681 391 2138 391 
Q 2594 391 2855 752 
Q 3116 1113 3116 1747 
z
" transform="scale(0.015625)"/>
       <path id="DejaVuSans-74" d="M 1172 4494 
L 1172 3500 
L 2356 3500 
L 2356 3053 
L 1172 3053 
L 1172 1153 
Q 1172 725 1289 603 
Q 1406 481 1766 481 
L 2356 481 
L 2356 0 
L 1766 0 
Q 1100 0 847 248 
Q 594 497 594 1153 
L 594 3053 
L 172 3053 
L 172 3500 
L 594 3500 
L 594 4494 
L 1172 4494 
z
" transform="scale(0.015625)"/>
      </defs>
      <use xlink:href="#DejaVuSans-53"/>
      <use xlink:href="#DejaVuSans-70" x="63.476562"/>
      <use xlink:href="#DejaVuSans-65" x="126.953125"/>
      <use xlink:href="#DejaVuSans-6e" x="188.476562"/>
      <use xlink:href="#DejaVuSans-74" x="251.855469"/>
      <use xlink:href="#DejaVuSans-20" x="291.064453"/>
      <use xlink:href="#DejaVuSans-69" x="322.851562"/>
      <use xlink:href="#DejaVuSans-6e" x="350.634766"/>
      <use xlink:href="#DejaVuSans-20" x="414.013672"/>
      <use xlink:href="#DejaVuSans-32" x="445.800781"/>
      <use xlink:href="#DejaVuSans-30" x="509.423828"/>
      <use xlink:href="#DejaVuSans-32" x="573.046875"/>
      <use xlink:href="#DejaVuSans-33" x="636.669922"/>
     </g>
    </g>
   </g>
   <g id="patch_3">
    <path d="M 79.445 668.68 
L 79.445 28.025076 
" style="fill: none; stroke: #000000; stroke-width: 0.8; stroke-linejoin: miter; stroke-linecap: square"/>
   </g>
   <g id="patch_4">
    <path d="M 1429.2 668.68 
L 1429.2 28.025076 
" style="fill: none; stroke: #000000; stroke-width: 0.8; stroke-linejoin: miter; stroke-linecap: square"/>
   </g>
   <g id="patch_5">
    <path d="M 79.445 668.68 
L 1429.2 668.68 
" style="fill: none; stroke: #000000; stroke-width: 0.8; stroke-linejoin: miter; stroke-linecap: square"/>
   </g>
   <g id="patch_6">
    <path d="M 79.445 28.025076 
L 1429.2 28.025076 
" style="fill: none; stroke: #000000; stroke-width: 0.8; stroke-linejoin: miter; stroke-linecap: square"/>
   </g>
   <g id="text_17">
    <!-- Operating Balance -->
    <g transform="translate(661.263125 47.299318) scale(0.2 -0.2)">
     <defs>
      <path id="DejaVuSans-4f" d="M 2522 4238 
Q 1834 4238 1429 3725 
Q 1025 3213 1025 2328 
Q 1025 1447 1429 934 
Q 1834 422 2522 422 
Q 3209 422 3611 934 
Q 4013 1447 4013 2328 
Q 4013 3213 3611 3725 
Q 3209 4238 2522 4238 
z
M 2522 4750 
Q 3503 4750 4090 4092 
Q 4678 3434 4678 2328 
Q 4678 1225 4090 567 
Q 3503 -91 2522 -91 
Q 1538 -91 948 565 
Q 359 1222 359 2328 
Q 359 3434 948 4092 
Q 1538 4750 2522 4750 
z
" transform="scale(0.015625)"/>
      <path id="DejaVuSans-72" d="M 2631 2963 
Q 2534 3019 2420 3045 
Q 2306 3072 2169 3072 
Q 1681 3072 1420 2755 
Q 1159 2438 1159 1844 
L 1159 0 
L 581 0 
L 581 3500 
L 1159 3500 
L 1159 2956 
Q 1341 3275 1631 3429 
Q 1922 3584 2338 3584 
Q 2397 3584 2469 3576 
Q 2541 3569 2628 3553 
L 2631 2963 
z
" transform="scale(0.015625)"/>
      <path id="DejaVuSans-67" d="M 2906 1791 
Q 2906 2416 2648 2759 
Q 2391 3103 1925 3103 
Q 1463 3103 1205 2759 
Q 947 2416 947 1791 
Q 947 1169 1205 825 
Q 1463 481 1925 481 
Q 2391 481 2648 825 
Q 2906 1169 2906 1791 
z
M 3481 434 
Q 3481 -459 3084 -895 
Q 2688 -1331 1869 -1331 
Q 1566 -1331 1297 -1286 
Q 1028 -1241 775 -1147 
L 775 -588 
Q 1028 -725 1275 -790 
Q 1522 -856 1778 -856 
Q 2344 -856 2625 -561 
Q 2906 -266 2906 331 
L 2906 616 
Q 2728 306 2450 153 
Q 2172 0 1784 0 
Q 1141 0 747 490 
Q 353 981 353 1791 
Q 353 2603 747 3093 
Q 1141 3584 1784 3584 
Q 2172 3584 2450 3431 
Q 2728 3278 2906 2969 
L 2906 3500 
L 3481 3500 
L 3481 434 
z
" transform="scale(0.015625)"/>
      <path id="DejaVuSans-42" d="M 1259 2228 
L 1259 519 
L 2272 519 
Q 2781 519 3026 730 
Q 3272 941 3272 1375 
Q 3272 1813 3026 2020 
Q 2781 2228 2272 2228 
L 1259 2228 
z
M 1259 4147 
L 1259 2741 
L 2194 2741 
Q 2656 2741 2882 2914 
Q 3109 3088 3109 3444 
Q 3109 3797 2882 3972 
Q 2656 4147 2194 4147 
L 1259 4147 
z
M 628 4666 
L 2241 4666 
Q 2963 4666 3353 4366 
Q 3744 4066 3744 3513 
Q 3744 3084 3544 2831 
Q 3344 2578 2956 2516 
Q 3422 2416 3680 2098 
Q 3938 1781 3938 1306 
Q 3938 681 3513 340 
Q 3088 0 2303 0 
L 628 0 
L 628 4666 
z
" transform="scale(0.015625)"/>
      <path id="DejaVuSans-6c" d="M 603 4863 
L 1178 4863 
L 1178 0 
L 603 0 
L 603 4863 
z
" transform="scale(0.015625)"/>
      <path id="DejaVuSans-63" d="M 3122 3366 
L 3122 2828 
Q 2878 2963 2633 3030 
Q 2388 3097 2138 3097 
Q 1578 3097 1268 2742 
Q 959 2388 959 1747 
Q 959 1106 1268 751 
Q 1578 397 2138 397 
Q 2388 397 2633 464 
Q 2878 531 3122 666 
L 3122 134 
Q 2881 22 2623 -34 
Q 2366 -91 2075 -91 
Q 1284 -91 818 406 
Q 353 903 353 1747 
Q 353 2603 823 3093 
Q 1294 3584 2113 3584 
Q 2378 3584 2631 3529 
Q 2884 3475 3122 3366 
z
" transform="scale(0.015625)"/>
     </defs>
     <use xlink:href="#DejaVuSans-4f"/>
     <use xlink:href="#DejaVuSans-70" x="78.710938"/>
     <use xlink:href="#DejaVuSans-65" x="142.1875"/>
     <use xlink:href="#DejaVuSans-72" x="203.710938"/>
     <use xlink:href="#DejaVuSans-61" x="244.824219"/>
     <use xlink:href="#DejaVuSans-74" x="306.103516"/>
     <use xlink:href="#DejaVuSans-69" x="345.3125"/>
     <use xlink:href="#DejaVuSans-6e" x="373.095703"/>
     <use xlink:href="#DejaVuSans-67" x="436.474609"/>
     <use xlink:href="#DejaVuSans-20" x="499.951172"/>
     <use xlink:href="#DejaVuSans-42" x="531.738281"/>
     <use xlink:href="#DejaVuSans-61" x="600.341797"/>
     <use xlink:href="#DejaVuSans-6c" x="661.621094"/>
     <use xlink:href="#DejaVuSans-61" x="689.404297"/>
     <use xlink:href="#DejaVuSans-6e" x="750.683594"/>
     <use xlink:href="#DejaVuSans-63" x="814.0625"/>
     <use xlink:href="#DejaVuSans-65" x="869.042969"/>
    </g>
    <!-- for City Council Candidates -->
    <g transform="translate(618.2725 69.694943) scale(0.2 -0.2)">
     <defs>
      <path id="DejaVuSans-66" d="M 2375 4863 
L 2375 4384 
L 1825 4384 
Q 1516 4384 1395 4259 
Q 1275 4134 1275 3809 
L 1275 3500 
L 2222 3500 
L 2222 3053 
L 1275 3053 
L 1275 0 
L 697 0 
L 697 3053 
L 147 3053 
L 147 3500 
L 697 3500 
L 697 3744 
Q 697 4328 969 4595 
Q 1241 4863 1831 4863 
L 2375 4863 
z
" transform="scale(0.015625)"/>
      <path id="DejaVuSans-6f" d="M 1959 3097 
Q 1497 3097 1228 2736 
Q 959 2375 959 1747 
Q 959 1119 1226 758 
Q 1494 397 1959 397 
Q 2419 397 2687 759 
Q 2956 1122 2956 1747 
Q 2956 2369 2687 2733 
Q 2419 3097 1959 3097 
z
M 1959 3584 
Q 2709 3584 3137 3096 
Q 3566 2609 3566 1747 
Q 3566 888 3137 398 
Q 2709 -91 1959 -91 
Q 1206 -91 779 398 
Q 353 888 353 1747 
Q 353 2609 779 3096 
Q 1206 3584 1959 3584 
z
" transform="scale(0.015625)"/>
      <path id="DejaVuSans-43" d="M 4122 4306 
L 4122 3641 
Q 3803 3938 3442 4084 
Q 3081 4231 2675 4231 
Q 1875 4231 1450 3742 
Q 1025 3253 1025 2328 
Q 1025 1406 1450 917 
Q 1875 428 2675 428 
Q 3081 428 3442 575 
Q 3803 722 4122 1019 
L 4122 359 
Q 3791 134 3420 21 
Q 3050 -91 2638 -91 
Q 1578 -91 968 557 
Q 359 1206 359 2328 
Q 359 3453 968 4101 
Q 1578 4750 2638 4750 
Q 3056 4750 3426 4639 
Q 3797 4528 4122 4306 
z
" transform="scale(0.015625)"/>
      <path id="DejaVuSans-79" d="M 2059 -325 
Q 1816 -950 1584 -1140 
Q 1353 -1331 966 -1331 
L 506 -1331 
L 506 -850 
L 844 -850 
Q 1081 -850 1212 -737 
Q 1344 -625 1503 -206 
L 1606 56 
L 191 3500 
L 800 3500 
L 1894 763 
L 2988 3500 
L 3597 3500 
L 2059 -325 
z
" transform="scale(0.015625)"/>
      <path id="DejaVuSans-75" d="M 544 1381 
L 544 3500 
L 1119 3500 
L 1119 1403 
Q 1119 906 1312 657 
Q 1506 409 1894 409 
Q 2359 409 2629 706 
Q 2900 1003 2900 1516 
L 2900 3500 
L 3475 3500 
L 3475 0 
L 2900 0 
L 2900 538 
Q 2691 219 2414 64 
Q 2138 -91 1772 -91 
Q 1169 -91 856 284 
Q 544 659 544 1381 
z
M 1991 3584 
L 1991 3584 
z
" transform="scale(0.015625)"/>
     </defs>
     <use xlink:href="#DejaVuSans-66"/>
     <use xlink:href="#DejaVuSans-6f" x="35.205078"/>
     <use xlink:href="#DejaVuSans-72" x="96.386719"/>
     <use xlink:href="#DejaVuSans-20" x="137.5"/>
     <use xlink:href="#DejaVuSans-43" x="169.287109"/>
     <use xlink:href="#DejaVuSans-69" x="239.111328"/>
     <use xlink:href="#DejaVuSans-74" x="266.894531"/>
     <use xlink:href="#DejaVuSans-79" x="306.103516"/>
     <use xlink:href="#DejaVuSans-20" x="365.283203"/>
     <use xlink:href="#DejaVuSans-43" x="397.070312"/>
     <use xlink:href="#DejaVuSans-6f" x="466.894531"/>
     <use xlink:href="#DejaVuSans-75" x="528.076172"/>
     <use xlink:href="#DejaVuSans-6e" x="591.455078"/>
     <use xlink:href="#DejaVuSans-63" x="654.833984"/>
     <use xlink:href="#DejaVuSans-69" x="709.814453"/>
     <use xlink:href="#DejaVuSans-6c" x="737.597656"/>
     <use xlink:href="#DejaVuSans-20" x="765.380859"/>
     <use xlink:href="#DejaVuSans-43" x="797.167969"/>
     <use xlink:href="#DejaVuSans-61" x="866.992188"/>
     <use xlink:href="#DejaVuSans-6e" x="928.271484"/>
     <use xlink:href="#DejaVuSans-64" x="991.650391"/>
     <use xlink:href="#DejaVuSans-69" x="1055.126953"/>
     <use xlink:href="#DejaVuSans-64" x="1082.910156"/>
     <use xlink:href="#DejaVuSans-61" x="1146.386719"/>
     <use xlink:href="#DejaVuSans-74" x="1207.666016"/>
     <use xlink:href="#DejaVuSans-65" x="1246.875"/>
     <use xlink:href="#DejaVuSans-73" x="1308.398438"/>
    </g>
    <!-- Cambridge, MA (11/2023) -->
    <g transform="translate(625.033437 92.090568) scale(0.2 -0.2)">
     <defs>
      <path id="DejaVuSans-6d" d="M 3328 2828 
Q 3544 3216 3844 3400 
Q 4144 3584 4550 3584 
Q 5097 3584 5394 3201 
Q 5691 2819 5691 2113 
L 5691 0 
L 5113 0 
L 5113 2094 
Q 5113 2597 4934 2840 
Q 4756 3084 4391 3084 
Q 3944 3084 3684 2787 
Q 3425 2491 3425 1978 
L 3425 0 
L 2847 0 
L 2847 2094 
Q 2847 2600 2669 2842 
Q 2491 3084 2119 3084 
Q 1678 3084 1418 2786 
Q 1159 2488 1159 1978 
L 1159 0 
L 581 0 
L 581 3500 
L 1159 3500 
L 1159 2956 
Q 1356 3278 1631 3431 
Q 1906 3584 2284 3584 
Q 2666 3584 2933 3390 
Q 3200 3197 3328 2828 
z
" transform="scale(0.015625)"/>
      <path id="DejaVuSans-62" d="M 3116 1747 
Q 3116 2381 2855 2742 
Q 2594 3103 2138 3103 
Q 1681 3103 1420 2742 
Q 1159 2381 1159 1747 
Q 1159 1113 1420 752 
Q 1681 391 2138 391 
Q 2594 391 2855 752 
Q 3116 1113 3116 1747 
z
M 1159 2969 
Q 1341 3281 1617 3432 
Q 1894 3584 2278 3584 
Q 2916 3584 3314 3078 
Q 3713 2572 3713 1747 
Q 3713 922 3314 415 
Q 2916 -91 2278 -91 
Q 1894 -91 1617 61 
Q 1341 213 1159 525 
L 1159 0 
L 581 0 
L 581 4863 
L 1159 4863 
L 1159 2969 
z
" transform="scale(0.015625)"/>
      <path id="DejaVuSans-2c" d="M 750 794 
L 1409 794 
L 1409 256 
L 897 -744 
L 494 -744 
L 750 256 
L 750 794 
z
" transform="scale(0.015625)"/>
      <path id="DejaVuSans-4d" d="M 628 4666 
L 1569 4666 
L 2759 1491 
L 3956 4666 
L 4897 4666 
L 4897 0 
L 4281 0 
L 4281 4097 
L 3078 897 
L 2444 897 
L 1241 4097 
L 1241 0 
L 628 0 
L 628 4666 
z
" transform="scale(0.015625)"/>
      <path id="DejaVuSans-41" d="M 2188 4044 
L 1331 1722 
L 3047 1722 
L 2188 4044 
z
M 1831 4666 
L 2547 4666 
L 4325 0 
L 3669 0 
L 3244 1197 
L 1141 1197 
L 716 0 
L 50 0 
L 1831 4666 
z
" transform="scale(0.015625)"/>
      <path id="DejaVuSans-28" d="M 1984 4856 
Q 1566 4138 1362 3434 
Q 1159 2731 1159 2009 
Q 1159 1288 1364 580 
Q 1569 -128 1984 -844 
L 1484 -844 
Q 1016 -109 783 600 
Q 550 1309 550 2009 
Q 550 2706 781 3412 
Q 1013 4119 1484 4856 
L 1984 4856 
z
" transform="scale(0.015625)"/>
      <path id="DejaVuSans-2f" d="M 1625 4666 
L 2156 4666 
L 531 -594 
L 0 -594 
L 1625 4666 
z
" transform="scale(0.015625)"/>
      <path id="DejaVuSans-29" d="M 513 4856 
L 1013 4856 
Q 1481 4119 1714 3412 
Q 1947 2706 1947 2009 
Q 1947 1309 1714 600 
Q 1481 -109 1013 -844 
L 513 -844 
Q 928 -128 1133 580 
Q 1338 1288 1338 2009 
Q 1338 2731 1133 3434 
Q 928 4138 513 4856 
z
" transform="scale(0.015625)"/>
     </defs>
     <use xlink:href="#DejaVuSans-43"/>
     <use xlink:href="#DejaVuSans-61" x="69.824219"/>
     <use xlink:href="#DejaVuSans-6d" x="131.103516"/>
     <use xlink:href="#DejaVuSans-62" x="228.515625"/>
     <use xlink:href="#DejaVuSans-72" x="291.992188"/>
     <use xlink:href="#DejaVuSans-69" x="333.105469"/>
     <use xlink:href="#DejaVuSans-64" x="360.888672"/>
     <use xlink:href="#DejaVuSans-67" x="424.365234"/>
     <use xlink:href="#DejaVuSans-65" x="487.841797"/>
     <use xlink:href="#DejaVuSans-2c" x="549.365234"/>
     <use xlink:href="#DejaVuSans-20" x="581.152344"/>
     <use xlink:href="#DejaVuSans-4d" x="612.939453"/>
     <use xlink:href="#DejaVuSans-41" x="699.21875"/>
     <use xlink:href="#DejaVuSans-20" x="767.626953"/>
     <use xlink:href="#DejaVuSans-28" x="799.414062"/>
     <use xlink:href="#DejaVuSans-31" x="838.427734"/>
     <use xlink:href="#DejaVuSans-31" x="902.050781"/>
     <use xlink:href="#DejaVuSans-2f" x="965.673828"/>
     <use xlink:href="#DejaVuSans-32" x="999.365234"/>
     <use xlink:href="#DejaVuSans-30" x="1062.988281"/>
     <use xlink:href="#DejaVuSans-32" x="1126.611328"/>
     <use xlink:href="#DejaVuSans-33" x="1190.234375"/>
     <use xlink:href="#DejaVuSans-29" x="1253.857422"/>
    </g>
   </g>
   <g id="text_18">
    <!-- cambridgecouncilcandidates.com -->
    <g transform="translate(1065.8299 649.460352) scale(0.2 -0.2)">
     <defs>
      <path id="DejaVuSans-2e" d="M 684 794 
L 1344 794 
L 1344 0 
L 684 0 
L 684 794 
z
" transform="scale(0.015625)"/>
     </defs>
     <use xlink:href="#DejaVuSans-63"/>
     <use xlink:href="#DejaVuSans-61" x="54.980469"/>
     <use xlink:href="#DejaVuSans-6d" x="116.259766"/>
     <use xlink:href="#DejaVuSans-62" x="213.671875"/>
     <use xlink:href="#DejaVuSans-72" x="277.148438"/>
     <use xlink:href="#DejaVuSans-69" x="318.261719"/>
     <use xlink:href="#DejaVuSans-64" x="346.044922"/>
     <use xlink:href="#DejaVuSans-67" x="409.521484"/>
     <use xlink:href="#DejaVuSans-65" x="472.998047"/>
     <use xlink:href="#DejaVuSans-63" x="534.521484"/>
     <use xlink:href="#DejaVuSans-6f" x="589.501953"/>
     <use xlink:href="#DejaVuSans-75" x="650.683594"/>
     <use xlink:href="#DejaVuSans-6e" x="714.0625"/>
     <use xlink:href="#DejaVuSans-63" x="777.441406"/>
     <use xlink:href="#DejaVuSans-69" x="832.421875"/>
     <use xlink:href="#DejaVuSans-6c" x="860.205078"/>
     <use xlink:href="#DejaVuSans-63" x="887.988281"/>
     <use xlink:href="#DejaVuSans-61" x="942.96875"/>
     <use xlink:href="#DejaVuSans-6e" x="1004.248047"/>
     <use xlink:href="#DejaVuSans-64" x="1067.626953"/>
     <use xlink:href="#DejaVuSans-69" x="1131.103516"/>
     <use xlink:href="#DejaVuSans-64" x="1158.886719"/>
     <use xlink:href="#DejaVuSans-61" x="1222.363281"/>
     <use xlink:href="#DejaVuSans-74" x="1283.642578"/>
     <use xlink:href="#DejaVuSans-65" x="1322.851562"/>
     <use xlink:href="#DejaVuSans-73" x="1384.375"/>
     <use xlink:href="#DejaVuSans-2e" x="1436.474609"/>
     <use xlink:href="#DejaVuSans-63" x="1468.261719"/>
     <use xlink:href="#DejaVuSans-6f" x="1523.242188"/>
     <use xlink:href="#DejaVuSans-6d" x="1584.423828"/>
    </g>
   </g>
   <g id="text_19">
    <!-- Pierre($353) -->
    <g transform="translate(114.566799 648.82155) scale(0.1 -0.1)">
     <defs>
      <path id="DejaVuSans-50" d="M 1259 4147 
L 1259 2394 
L 2053 2394 
Q 2494 2394 2734 2622 
Q 2975 2850 2975 3272 
Q 2975 3691 2734 3919 
Q 2494 4147 2053 4147 
L 1259 4147 
z
M 628 4666 
L 2053 4666 
Q 2838 4666 3239 4311 
Q 3641 3956 3641 3272 
Q 3641 2581 3239 2228 
Q 2838 1875 2053 1875 
L 1259 1875 
L 1259 0 
L 628 0 
L 628 4666 
z
" transform="scale(0.015625)"/>
     </defs>
     <use xlink:href="#DejaVuSans-50"/>
     <use xlink:href="#DejaVuSans-69" x="58.052734"/>
     <use xlink:href="#DejaVuSans-65" x="85.835938"/>
     <use xlink:href="#DejaVuSans-72" x="147.359375"/>
     <use xlink:href="#DejaVuSans-72" x="186.722656"/>
     <use xlink:href="#DejaVuSans-65" x="225.585938"/>
     <use xlink:href="#DejaVuSans-28" x="287.109375"/>
     <use xlink:href="#DejaVuSans-24" x="326.123047"/>
     <use xlink:href="#DejaVuSans-33" x="389.746094"/>
     <use xlink:href="#DejaVuSans-35" x="453.369141"/>
     <use xlink:href="#DejaVuSans-33" x="516.992188"/>
     <use xlink:href="#DejaVuSans-29" x="580.615234"/>
    </g>
   </g>
   <g id="text_20">
    <!-- Moree($479) -->
    <g transform="translate(108.724144 631.729621) scale(0.1 -0.1)">
     <defs>
      <path id="DejaVuSans-39" d="M 703 97 
L 703 672 
Q 941 559 1184 500 
Q 1428 441 1663 441 
Q 2288 441 2617 861 
Q 2947 1281 2994 2138 
Q 2813 1869 2534 1725 
Q 2256 1581 1919 1581 
Q 1219 1581 811 2004 
Q 403 2428 403 3163 
Q 403 3881 828 4315 
Q 1253 4750 1959 4750 
Q 2769 4750 3195 4129 
Q 3622 3509 3622 2328 
Q 3622 1225 3098 567 
Q 2575 -91 1691 -91 
Q 1453 -91 1209 -44 
Q 966 3 703 97 
z
M 1959 2075 
Q 2384 2075 2632 2365 
Q 2881 2656 2881 3163 
Q 2881 3666 2632 3958 
Q 2384 4250 1959 4250 
Q 1534 4250 1286 3958 
Q 1038 3666 1038 3163 
Q 1038 2656 1286 2365 
Q 1534 2075 1959 2075 
z
" transform="scale(0.015625)"/>
     </defs>
     <use xlink:href="#DejaVuSans-4d"/>
     <use xlink:href="#DejaVuSans-6f" x="86.279297"/>
     <use xlink:href="#DejaVuSans-72" x="147.460938"/>
     <use xlink:href="#DejaVuSans-65" x="186.324219"/>
     <use xlink:href="#DejaVuSans-65" x="247.847656"/>
     <use xlink:href="#DejaVuSans-28" x="309.371094"/>
     <use xlink:href="#DejaVuSans-24" x="348.384766"/>
     <use xlink:href="#DejaVuSans-34" x="412.007812"/>
     <use xlink:href="#DejaVuSans-37" x="475.630859"/>
     <use xlink:href="#DejaVuSans-39" x="539.253906"/>
     <use xlink:href="#DejaVuSans-29" x="602.876953"/>
    </g>
   </g>
   <g id="text_21">
    <!-- Pasquarello($731) -->
    <g transform="translate(130.994557 623.132108) scale(0.1 -0.1)">
     <defs>
      <path id="DejaVuSans-71" d="M 947 1747 
Q 947 1113 1208 752 
Q 1469 391 1925 391 
Q 2381 391 2643 752 
Q 2906 1113 2906 1747 
Q 2906 2381 2643 2742 
Q 2381 3103 1925 3103 
Q 1469 3103 1208 2742 
Q 947 2381 947 1747 
z
M 2906 525 
Q 2725 213 2448 61 
Q 2172 -91 1784 -91 
Q 1150 -91 751 415 
Q 353 922 353 1747 
Q 353 2572 751 3078 
Q 1150 3584 1784 3584 
Q 2172 3584 2448 3432 
Q 2725 3281 2906 2969 
L 2906 3500 
L 3481 3500 
L 3481 -1331 
L 2906 -1331 
L 2906 525 
z
" transform="scale(0.015625)"/>
     </defs>
     <use xlink:href="#DejaVuSans-50"/>
     <use xlink:href="#DejaVuSans-61" x="55.802734"/>
     <use xlink:href="#DejaVuSans-73" x="117.082031"/>
     <use xlink:href="#DejaVuSans-71" x="169.181641"/>
     <use xlink:href="#DejaVuSans-75" x="232.658203"/>
     <use xlink:href="#DejaVuSans-61" x="296.037109"/>
     <use xlink:href="#DejaVuSans-72" x="357.316406"/>
     <use xlink:href="#DejaVuSans-65" x="396.179688"/>
     <use xlink:href="#DejaVuSans-6c" x="457.703125"/>
     <use xlink:href="#DejaVuSans-6c" x="485.486328"/>
     <use xlink:href="#DejaVuSans-6f" x="513.269531"/>
     <use xlink:href="#DejaVuSans-28" x="574.451172"/>
     <use xlink:href="#DejaVuSans-24" x="613.464844"/>
     <use xlink:href="#DejaVuSans-37" x="677.087891"/>
     <use xlink:href="#DejaVuSans-33" x="740.710938"/>
     <use xlink:href="#DejaVuSans-31" x="804.333984"/>
     <use xlink:href="#DejaVuSans-29" x="867.957031"/>
    </g>
   </g>
   <g id="text_22">
    <!-- $5k -->
    <g transform="translate(190.917452 644.102261) scale(0.071022 -0.071022)">
     <defs>
      <path id="DejaVuSans-Bold-24" d="M 2484 -941 
L 1978 -941 
L 1975 0 
Q 1584 16 1218 87 
Q 853 159 506 288 
L 506 1106 
Q 866 922 1233 823 
Q 1600 725 1978 713 
L 1978 1684 
L 1875 1703 
Q 1128 1834 814 2115 
Q 500 2397 500 2925 
Q 500 3484 883 3798 
Q 1266 4113 1975 4141 
L 1978 4863 
L 2484 4863 
L 2484 4153 
Q 2797 4128 3109 4075 
Q 3422 4022 3738 3938 
L 3738 3144 
Q 3425 3275 3112 3348 
Q 2800 3422 2484 3438 
L 2484 2541 
L 2584 2522 
Q 3378 2397 3698 2105 
Q 4019 1813 4019 1241 
Q 4019 666 3637 358 
Q 3256 50 2484 6 
L 2484 -941 
z
M 1978 2613 
L 1978 3428 
Q 1756 3416 1623 3308 
Q 1491 3200 1491 3034 
Q 1491 2850 1612 2745 
Q 1734 2641 1978 2613 
z
M 2484 1594 
L 2484 725 
Q 2756 728 2892 831 
Q 3028 934 3028 1141 
Q 3028 1353 2903 1458 
Q 2778 1563 2484 1594 
z
" transform="scale(0.015625)"/>
      <path id="DejaVuSans-Bold-35" d="M 678 4666 
L 3669 4666 
L 3669 3781 
L 1638 3781 
L 1638 3059 
Q 1775 3097 1914 3117 
Q 2053 3138 2203 3138 
Q 3056 3138 3531 2711 
Q 4006 2284 4006 1522 
Q 4006 766 3489 337 
Q 2972 -91 2053 -91 
Q 1656 -91 1267 -14 
Q 878 63 494 219 
L 494 1166 
Q 875 947 1217 837 
Q 1559 728 1863 728 
Q 2300 728 2551 942 
Q 2803 1156 2803 1522 
Q 2803 1891 2551 2103 
Q 2300 2316 1863 2316 
Q 1603 2316 1309 2248 
Q 1016 2181 678 2041 
L 678 4666 
z
" transform="scale(0.015625)"/>
      <path id="DejaVuSans-Bold-6b" d="M 538 4863 
L 1656 4863 
L 1656 2216 
L 2944 3500 
L 4244 3500 
L 2534 1894 
L 4378 0 
L 3022 0 
L 1656 1459 
L 1656 0 
L 538 0 
L 538 4863 
z
" transform="scale(0.015625)"/>
     </defs>
     <use xlink:href="#DejaVuSans-Bold-24"/>
     <use xlink:href="#DejaVuSans-Bold-35" x="69.580078"/>
     <use xlink:href="#DejaVuSans-Bold-6b" x="139.160156"/>
    </g>
   </g>
   <g id="text_23">
    <!-- Winters -->
    <g transform="translate(211.151746 638.892324) scale(0.1 -0.1)">
     <defs>
      <path id="DejaVuSans-57" d="M 213 4666 
L 850 4666 
L 1831 722 
L 2809 4666 
L 3519 4666 
L 4500 722 
L 5478 4666 
L 6119 4666 
L 4947 0 
L 4153 0 
L 3169 4050 
L 2175 0 
L 1381 0 
L 213 4666 
z
" transform="scale(0.015625)"/>
     </defs>
     <use xlink:href="#DejaVuSans-57"/>
     <use xlink:href="#DejaVuSans-69" x="96.626953"/>
     <use xlink:href="#DejaVuSans-6e" x="124.410156"/>
     <use xlink:href="#DejaVuSans-74" x="187.789062"/>
     <use xlink:href="#DejaVuSans-65" x="226.998047"/>
     <use xlink:href="#DejaVuSans-72" x="288.521484"/>
     <use xlink:href="#DejaVuSans-73" x="329.634766"/>
    </g>
   </g>
   <g id="text_24">
    <!-- Klein($1k) -->
    <g transform="translate(254.954392 572.702123) scale(0.1 -0.1)">
     <defs>
      <path id="DejaVuSans-4b" d="M 628 4666 
L 1259 4666 
L 1259 2694 
L 3353 4666 
L 4166 4666 
L 1850 2491 
L 4331 0 
L 3500 0 
L 1259 2247 
L 1259 0 
L 628 0 
L 628 4666 
z
" transform="scale(0.015625)"/>
      <path id="DejaVuSans-6b" d="M 581 4863 
L 1159 4863 
L 1159 1991 
L 2875 3500 
L 3609 3500 
L 1753 1863 
L 3688 0 
L 2938 0 
L 1159 1709 
L 1159 0 
L 581 0 
L 581 4863 
z
" transform="scale(0.015625)"/>
     </defs>
     <use xlink:href="#DejaVuSans-4b"/>
     <use xlink:href="#DejaVuSans-6c" x="65.576172"/>
     <use xlink:href="#DejaVuSans-65" x="93.359375"/>
     <use xlink:href="#DejaVuSans-69" x="154.882812"/>
     <use xlink:href="#DejaVuSans-6e" x="182.666016"/>
     <use xlink:href="#DejaVuSans-28" x="246.044922"/>
     <use xlink:href="#DejaVuSans-24" x="285.058594"/>
     <use xlink:href="#DejaVuSans-31" x="348.681641"/>
     <use xlink:href="#DejaVuSans-6b" x="412.304688"/>
     <use xlink:href="#DejaVuSans-29" x="470.214844"/>
    </g>
   </g>
   <g id="text_25">
    <!-- $7k -->
    <g transform="translate(280.156794 618.945776) scale(0.076295 -0.076295)">
     <defs>
      <path id="DejaVuSans-Bold-37" d="M 428 4666 
L 3944 4666 
L 3944 3988 
L 2125 0 
L 953 0 
L 2675 3781 
L 428 3781 
L 428 4666 
z
" transform="scale(0.015625)"/>
     </defs>
     <use xlink:href="#DejaVuSans-Bold-24"/>
     <use xlink:href="#DejaVuSans-Bold-37" x="69.580078"/>
     <use xlink:href="#DejaVuSans-Bold-6b" x="139.160156"/>
    </g>
   </g>
   <g id="text_26">
    <!-- Al-Zubi -->
    <g transform="translate(263.002074 599.831699) scale(0.1 -0.1)">
     <defs>
      <path id="DejaVuSans-2d" d="M 313 2009 
L 1997 2009 
L 1997 1497 
L 313 1497 
L 313 2009 
z
" transform="scale(0.015625)"/>
      <path id="DejaVuSans-5a" d="M 359 4666 
L 4025 4666 
L 4025 4184 
L 1075 531 
L 4097 531 
L 4097 0 
L 288 0 
L 288 481 
L 3238 4134 
L 359 4134 
L 359 4666 
z
" transform="scale(0.015625)"/>
     </defs>
     <use xlink:href="#DejaVuSans-41"/>
     <use xlink:href="#DejaVuSans-6c" x="68.408203"/>
     <use xlink:href="#DejaVuSans-2d" x="96.191406"/>
     <use xlink:href="#DejaVuSans-5a" x="132.275391"/>
     <use xlink:href="#DejaVuSans-75" x="200.78125"/>
     <use xlink:href="#DejaVuSans-62" x="264.160156"/>
     <use xlink:href="#DejaVuSans-69" x="327.636719"/>
    </g>
   </g>
   <g id="text_27">
    <!-- $11k -->
    <g transform="translate(427.969966 560.769622) scale(0.085751 -0.085751)">
     <defs>
      <path id="DejaVuSans-Bold-31" d="M 750 831 
L 1813 831 
L 1813 3847 
L 722 3622 
L 722 4441 
L 1806 4666 
L 2950 4666 
L 2950 831 
L 4013 831 
L 4013 0 
L 750 0 
L 750 831 
z
" transform="scale(0.015625)"/>
     </defs>
     <use xlink:href="#DejaVuSans-Bold-24"/>
     <use xlink:href="#DejaVuSans-Bold-31" x="69.580078"/>
     <use xlink:href="#DejaVuSans-Bold-31" x="139.160156"/>
     <use xlink:href="#DejaVuSans-Bold-6b" x="208.740234"/>
    </g>
   </g>
   <g id="text_28">
    <!-- Wilson -->
    <g transform="translate(414.770711 536.917504) scale(0.1 -0.1)">
     <use xlink:href="#DejaVuSans-57"/>
     <use xlink:href="#DejaVuSans-69" x="96.626953"/>
     <use xlink:href="#DejaVuSans-6c" x="124.410156"/>
     <use xlink:href="#DejaVuSans-73" x="152.193359"/>
     <use xlink:href="#DejaVuSans-6f" x="204.292969"/>
     <use xlink:href="#DejaVuSans-6e" x="265.474609"/>
    </g>
   </g>
   <g id="text_29">
    <!-- $8k -->
    <g transform="translate(703.308957 439.470667) scale(0.078699 -0.078699)">
     <defs>
      <path id="DejaVuSans-Bold-38" d="M 2228 2088 
Q 1891 2088 1709 1903 
Q 1528 1719 1528 1375 
Q 1528 1031 1709 848 
Q 1891 666 2228 666 
Q 2563 666 2741 848 
Q 2919 1031 2919 1375 
Q 2919 1722 2741 1905 
Q 2563 2088 2228 2088 
z
M 1350 2484 
Q 925 2613 709 2878 
Q 494 3144 494 3541 
Q 494 4131 934 4440 
Q 1375 4750 2228 4750 
Q 3075 4750 3515 4442 
Q 3956 4134 3956 3541 
Q 3956 3144 3739 2878 
Q 3522 2613 3097 2484 
Q 3572 2353 3814 2058 
Q 4056 1763 4056 1313 
Q 4056 619 3595 264 
Q 3134 -91 2228 -91 
Q 1319 -91 855 264 
Q 391 619 391 1313 
Q 391 1763 633 2058 
Q 875 2353 1350 2484 
z
M 1631 3419 
Q 1631 3141 1786 2991 
Q 1941 2841 2228 2841 
Q 2509 2841 2662 2991 
Q 2816 3141 2816 3419 
Q 2816 3697 2662 3845 
Q 2509 3994 2228 3994 
Q 1941 3994 1786 3844 
Q 1631 3694 1631 3419 
z
" transform="scale(0.015625)"/>
     </defs>
     <use xlink:href="#DejaVuSans-Bold-24"/>
     <use xlink:href="#DejaVuSans-Bold-38" x="69.580078"/>
     <use xlink:href="#DejaVuSans-Bold-6b" x="139.160156"/>
    </g>
   </g>
   <g id="text_30">
    <!-- Azeem -->
    <g transform="translate(686.401427 419.201542) scale(0.1 -0.1)">
     <defs>
      <path id="DejaVuSans-7a" d="M 353 3500 
L 3084 3500 
L 3084 2975 
L 922 459 
L 3084 459 
L 3084 0 
L 275 0 
L 275 525 
L 2438 3041 
L 353 3041 
L 353 3500 
z
" transform="scale(0.015625)"/>
     </defs>
     <use xlink:href="#DejaVuSans-41"/>
     <use xlink:href="#DejaVuSans-7a" x="68.408203"/>
     <use xlink:href="#DejaVuSans-65" x="120.898438"/>
     <use xlink:href="#DejaVuSans-65" x="182.421875"/>
     <use xlink:href="#DejaVuSans-6d" x="243.945312"/>
    </g>
   </g>
   <g id="text_31">
    <!-- $7k -->
    <g transform="translate(765.347897 418.957887) scale(0.076768 -0.076768)">
     <use xlink:href="#DejaVuSans-Bold-24"/>
     <use xlink:href="#DejaVuSans-Bold-37" x="69.580078"/>
     <use xlink:href="#DejaVuSans-Bold-6b" x="139.160156"/>
    </g>
   </g>
   <g id="text_32">
    <!-- Zusy -->
    <g transform="translate(748.241815 399.619207) scale(0.1 -0.1)">
     <use xlink:href="#DejaVuSans-5a"/>
     <use xlink:href="#DejaVuSans-75" x="68.505859"/>
     <use xlink:href="#DejaVuSans-73" x="131.884766"/>
     <use xlink:href="#DejaVuSans-79" x="183.984375"/>
    </g>
   </g>
   <g id="text_33">
    <!-- $11k -->
    <g transform="translate(546.921201 534.592827) scale(0.085499 -0.085499)">
     <use xlink:href="#DejaVuSans-Bold-24"/>
     <use xlink:href="#DejaVuSans-Bold-31" x="69.580078"/>
     <use xlink:href="#DejaVuSans-Bold-31" x="139.160156"/>
     <use xlink:href="#DejaVuSans-Bold-6b" x="208.740234"/>
    </g>
   </g>
   <g id="text_34">
    <!-- Totten -->
    <g transform="translate(533.687375 510.873346) scale(0.1 -0.1)">
     <defs>
      <path id="DejaVuSans-54" d="M -19 4666 
L 3928 4666 
L 3928 4134 
L 2272 4134 
L 2272 0 
L 1638 0 
L 1638 4134 
L -19 4134 
L -19 4666 
z
" transform="scale(0.015625)"/>
     </defs>
     <use xlink:href="#DejaVuSans-54"/>
     <use xlink:href="#DejaVuSans-6f" x="44.083984"/>
     <use xlink:href="#DejaVuSans-74" x="105.265625"/>
     <use xlink:href="#DejaVuSans-74" x="144.474609"/>
     <use xlink:href="#DejaVuSans-65" x="183.683594"/>
     <use xlink:href="#DejaVuSans-6e" x="245.207031"/>
    </g>
   </g>
   <g id="text_35">
    <!-- $31k -->
    <g transform="translate(716.399213 513.469579) scale(0.109956 -0.109956)">
     <defs>
      <path id="DejaVuSans-Bold-33" d="M 2981 2516 
Q 3453 2394 3698 2092 
Q 3944 1791 3944 1325 
Q 3944 631 3412 270 
Q 2881 -91 1863 -91 
Q 1503 -91 1142 -33 
Q 781 25 428 141 
L 428 1069 
Q 766 900 1098 814 
Q 1431 728 1753 728 
Q 2231 728 2486 893 
Q 2741 1059 2741 1369 
Q 2741 1688 2480 1852 
Q 2219 2016 1709 2016 
L 1228 2016 
L 1228 2791 
L 1734 2791 
Q 2188 2791 2409 2933 
Q 2631 3075 2631 3366 
Q 2631 3634 2415 3781 
Q 2200 3928 1806 3928 
Q 1516 3928 1219 3862 
Q 922 3797 628 3669 
L 628 4550 
Q 984 4650 1334 4700 
Q 1684 4750 2022 4750 
Q 2931 4750 3382 4451 
Q 3834 4153 3834 3553 
Q 3834 3144 3618 2883 
Q 3403 2622 2981 2516 
z
" transform="scale(0.015625)"/>
     </defs>
     <use xlink:href="#DejaVuSans-Bold-24"/>
     <use xlink:href="#DejaVuSans-Bold-33" x="69.580078"/>
     <use xlink:href="#DejaVuSans-Bold-31" x="139.160156"/>
     <use xlink:href="#DejaVuSans-Bold-6b" x="208.740234"/>
    </g>
   </g>
   <g id="text_36">
    <!-- Simmons -->
    <g transform="translate(706.531007 475.107709) scale(0.1 -0.1)">
     <use xlink:href="#DejaVuSans-53"/>
     <use xlink:href="#DejaVuSans-69" x="63.476562"/>
     <use xlink:href="#DejaVuSans-6d" x="91.259766"/>
     <use xlink:href="#DejaVuSans-6d" x="188.671875"/>
     <use xlink:href="#DejaVuSans-6f" x="286.083984"/>
     <use xlink:href="#DejaVuSans-6e" x="347.265625"/>
     <use xlink:href="#DejaVuSans-73" x="410.644531"/>
    </g>
   </g>
   <g id="text_37">
    <!-- Brown($65) -->
    <g transform="translate(159.26727 602.485165) scale(0.1 -0.1)">
     <defs>
      <path id="DejaVuSans-77" d="M 269 3500 
L 844 3500 
L 1563 769 
L 2278 3500 
L 2956 3500 
L 3675 769 
L 4391 3500 
L 4966 3500 
L 4050 0 
L 3372 0 
L 2619 2869 
L 1863 0 
L 1184 0 
L 269 3500 
z
" transform="scale(0.015625)"/>
     </defs>
     <use xlink:href="#DejaVuSans-42"/>
     <use xlink:href="#DejaVuSans-72" x="68.603516"/>
     <use xlink:href="#DejaVuSans-6f" x="107.466797"/>
     <use xlink:href="#DejaVuSans-77" x="168.648438"/>
     <use xlink:href="#DejaVuSans-6e" x="250.435547"/>
     <use xlink:href="#DejaVuSans-28" x="313.814453"/>
     <use xlink:href="#DejaVuSans-24" x="352.828125"/>
     <use xlink:href="#DejaVuSans-36" x="416.451172"/>
     <use xlink:href="#DejaVuSans-35" x="480.074219"/>
     <use xlink:href="#DejaVuSans-29" x="543.697266"/>
    </g>
   </g>
   <g id="text_38">
    <!-- Muchnik($2k) -->
    <g transform="translate(233.095702 588.617305) scale(0.1 -0.1)">
     <defs>
      <path id="DejaVuSans-68" d="M 3513 2113 
L 3513 0 
L 2938 0 
L 2938 2094 
Q 2938 2591 2744 2837 
Q 2550 3084 2163 3084 
Q 1697 3084 1428 2787 
Q 1159 2491 1159 1978 
L 1159 0 
L 581 0 
L 581 4863 
L 1159 4863 
L 1159 2956 
Q 1366 3272 1645 3428 
Q 1925 3584 2291 3584 
Q 2894 3584 3203 3211 
Q 3513 2838 3513 2113 
z
" transform="scale(0.015625)"/>
     </defs>
     <use xlink:href="#DejaVuSans-4d"/>
     <use xlink:href="#DejaVuSans-75" x="86.279297"/>
     <use xlink:href="#DejaVuSans-63" x="149.658203"/>
     <use xlink:href="#DejaVuSans-68" x="204.638672"/>
     <use xlink:href="#DejaVuSans-6e" x="268.017578"/>
     <use xlink:href="#DejaVuSans-69" x="331.396484"/>
     <use xlink:href="#DejaVuSans-6b" x="359.179688"/>
     <use xlink:href="#DejaVuSans-28" x="417.089844"/>
     <use xlink:href="#DejaVuSans-24" x="456.103516"/>
     <use xlink:href="#DejaVuSans-32" x="519.726562"/>
     <use xlink:href="#DejaVuSans-6b" x="583.349609"/>
     <use xlink:href="#DejaVuSans-29" x="641.259766"/>
    </g>
   </g>
   <g id="text_39">
    <!-- Wang($4k) -->
    <g transform="translate(428.258759 516.217042) scale(0.1 -0.1)">
     <use xlink:href="#DejaVuSans-57"/>
     <use xlink:href="#DejaVuSans-61" x="92.501953"/>
     <use xlink:href="#DejaVuSans-6e" x="153.78125"/>
     <use xlink:href="#DejaVuSans-67" x="217.160156"/>
     <use xlink:href="#DejaVuSans-28" x="280.636719"/>
     <use xlink:href="#DejaVuSans-24" x="319.650391"/>
     <use xlink:href="#DejaVuSans-34" x="383.273438"/>
     <use xlink:href="#DejaVuSans-6b" x="446.896484"/>
     <use xlink:href="#DejaVuSans-29" x="504.806641"/>
    </g>
   </g>
   <g id="text_40">
    <!-- Sobrinho-Wheeler($4k) -->
    <g transform="translate(472.792721 493.862886) scale(0.1 -0.1)">
     <use xlink:href="#DejaVuSans-53"/>
     <use xlink:href="#DejaVuSans-6f" x="63.476562"/>
     <use xlink:href="#DejaVuSans-62" x="124.658203"/>
     <use xlink:href="#DejaVuSans-72" x="188.134766"/>
     <use xlink:href="#DejaVuSans-69" x="229.248047"/>
     <use xlink:href="#DejaVuSans-6e" x="257.03125"/>
     <use xlink:href="#DejaVuSans-68" x="320.410156"/>
     <use xlink:href="#DejaVuSans-6f" x="383.789062"/>
     <use xlink:href="#DejaVuSans-2d" x="446.845703"/>
     <use xlink:href="#DejaVuSans-57" x="478.929688"/>
     <use xlink:href="#DejaVuSans-68" x="577.806641"/>
     <use xlink:href="#DejaVuSans-65" x="641.185547"/>
     <use xlink:href="#DejaVuSans-65" x="702.708984"/>
     <use xlink:href="#DejaVuSans-6c" x="764.232422"/>
     <use xlink:href="#DejaVuSans-65" x="792.015625"/>
     <use xlink:href="#DejaVuSans-72" x="853.539062"/>
     <use xlink:href="#DejaVuSans-28" x="894.652344"/>
     <use xlink:href="#DejaVuSans-24" x="933.666016"/>
     <use xlink:href="#DejaVuSans-34" x="997.289062"/>
     <use xlink:href="#DejaVuSans-6b" x="1060.912109"/>
     <use xlink:href="#DejaVuSans-29" x="1118.822266"/>
    </g>
   </g>
   <g id="text_41">
    <!-- $5k -->
    <g transform="translate(506.960112 510.336824) scale(0.069627 -0.069627)">
     <use xlink:href="#DejaVuSans-Bold-24"/>
     <use xlink:href="#DejaVuSans-Bold-35" x="69.580078"/>
     <use xlink:href="#DejaVuSans-Bold-6b" x="139.160156"/>
    </g>
   </g>
   <g id="text_42">
    <!-- Pickett -->
    <g transform="translate(494.119728 532.581202) scale(0.1 -0.1)">
     <use xlink:href="#DejaVuSans-50"/>
     <use xlink:href="#DejaVuSans-69" x="58.052734"/>
     <use xlink:href="#DejaVuSans-63" x="85.835938"/>
     <use xlink:href="#DejaVuSans-6b" x="140.816406"/>
     <use xlink:href="#DejaVuSans-65" x="195.101562"/>
     <use xlink:href="#DejaVuSans-74" x="256.625"/>
     <use xlink:href="#DejaVuSans-74" x="295.833984"/>
    </g>
   </g>
   <g id="text_43">
    <!-- McGuirk($2k) -->
    <g transform="translate(363.664981 524.035523) scale(0.1 -0.1)">
     <defs>
      <path id="DejaVuSans-47" d="M 3809 666 
L 3809 1919 
L 2778 1919 
L 2778 2438 
L 4434 2438 
L 4434 434 
Q 4069 175 3628 42 
Q 3188 -91 2688 -91 
Q 1594 -91 976 548 
Q 359 1188 359 2328 
Q 359 3472 976 4111 
Q 1594 4750 2688 4750 
Q 3144 4750 3555 4637 
Q 3966 4525 4313 4306 
L 4313 3634 
Q 3963 3931 3569 4081 
Q 3175 4231 2741 4231 
Q 1884 4231 1454 3753 
Q 1025 3275 1025 2328 
Q 1025 1384 1454 906 
Q 1884 428 2741 428 
Q 3075 428 3337 486 
Q 3600 544 3809 666 
z
" transform="scale(0.015625)"/>
     </defs>
     <use xlink:href="#DejaVuSans-4d"/>
     <use xlink:href="#DejaVuSans-63" x="86.279297"/>
     <use xlink:href="#DejaVuSans-47" x="141.259766"/>
     <use xlink:href="#DejaVuSans-75" x="218.75"/>
     <use xlink:href="#DejaVuSans-69" x="282.128906"/>
     <use xlink:href="#DejaVuSans-72" x="309.912109"/>
     <use xlink:href="#DejaVuSans-6b" x="351.025391"/>
     <use xlink:href="#DejaVuSans-28" x="408.935547"/>
     <use xlink:href="#DejaVuSans-24" x="447.949219"/>
     <use xlink:href="#DejaVuSans-32" x="511.572266"/>
     <use xlink:href="#DejaVuSans-6b" x="575.195312"/>
     <use xlink:href="#DejaVuSans-29" x="633.105469"/>
    </g>
   </g>
   <g id="text_44">
    <!-- Hanratty($1k) -->
    <g transform="translate(307.844629 554.633966) scale(0.1 -0.1)">
     <defs>
      <path id="DejaVuSans-48" d="M 628 4666 
L 1259 4666 
L 1259 2753 
L 3553 2753 
L 3553 4666 
L 4184 4666 
L 4184 0 
L 3553 0 
L 3553 2222 
L 1259 2222 
L 1259 0 
L 628 0 
L 628 4666 
z
" transform="scale(0.015625)"/>
     </defs>
     <use xlink:href="#DejaVuSans-48"/>
     <use xlink:href="#DejaVuSans-61" x="75.195312"/>
     <use xlink:href="#DejaVuSans-6e" x="136.474609"/>
     <use xlink:href="#DejaVuSans-72" x="199.853516"/>
     <use xlink:href="#DejaVuSans-61" x="240.966797"/>
     <use xlink:href="#DejaVuSans-74" x="302.246094"/>
     <use xlink:href="#DejaVuSans-74" x="341.455078"/>
     <use xlink:href="#DejaVuSans-79" x="380.664062"/>
     <use xlink:href="#DejaVuSans-28" x="439.84375"/>
     <use xlink:href="#DejaVuSans-24" x="478.857422"/>
     <use xlink:href="#DejaVuSans-31" x="542.480469"/>
     <use xlink:href="#DejaVuSans-6b" x="606.103516"/>
     <use xlink:href="#DejaVuSans-29" x="664.013672"/>
    </g>
   </g>
   <g id="text_45">
    <!-- $38k -->
    <g transform="translate(1002.450112 449.705051) scale(0.115971 -0.115971)">
     <use xlink:href="#DejaVuSans-Bold-24"/>
     <use xlink:href="#DejaVuSans-Bold-33" x="69.580078"/>
     <use xlink:href="#DejaVuSans-Bold-38" x="139.160156"/>
     <use xlink:href="#DejaVuSans-Bold-6b" x="208.740234"/>
    </g>
   </g>
   <g id="text_46">
    <!-- McGovern -->
    <g transform="translate(993.409692 407.206258) scale(0.1 -0.1)">
     <defs>
      <path id="DejaVuSans-76" d="M 191 3500 
L 800 3500 
L 1894 563 
L 2988 3500 
L 3597 3500 
L 2284 0 
L 1503 0 
L 191 3500 
z
" transform="scale(0.015625)"/>
     </defs>
     <use xlink:href="#DejaVuSans-4d"/>
     <use xlink:href="#DejaVuSans-63" x="86.279297"/>
     <use xlink:href="#DejaVuSans-47" x="141.259766"/>
     <use xlink:href="#DejaVuSans-6f" x="218.75"/>
     <use xlink:href="#DejaVuSans-76" x="279.931641"/>
     <use xlink:href="#DejaVuSans-65" x="339.111328"/>
     <use xlink:href="#DejaVuSans-72" x="400.634766"/>
     <use xlink:href="#DejaVuSans-6e" x="439.998047"/>
    </g>
   </g>
   <g id="text_47">
    <!-- $10k -->
    <g transform="translate(526.906356 460.353183) scale(0.084611 -0.084611)">
     <defs>
      <path id="DejaVuSans-Bold-30" d="M 2944 2338 
Q 2944 3213 2780 3570 
Q 2616 3928 2228 3928 
Q 1841 3928 1675 3570 
Q 1509 3213 1509 2338 
Q 1509 1453 1675 1090 
Q 1841 728 2228 728 
Q 2613 728 2778 1090 
Q 2944 1453 2944 2338 
z
M 4147 2328 
Q 4147 1169 3647 539 
Q 3147 -91 2228 -91 
Q 1306 -91 806 539 
Q 306 1169 306 2328 
Q 306 3491 806 4120 
Q 1306 4750 2228 4750 
Q 3147 4750 3647 4120 
Q 4147 3491 4147 2328 
z
" transform="scale(0.015625)"/>
     </defs>
     <use xlink:href="#DejaVuSans-Bold-24"/>
     <use xlink:href="#DejaVuSans-Bold-31" x="69.580078"/>
     <use xlink:href="#DejaVuSans-Bold-30" x="139.160156"/>
     <use xlink:href="#DejaVuSans-Bold-6b" x="208.740234"/>
    </g>
   </g>
   <g id="text_48">
    <!-- Nolan -->
    <g transform="translate(513.550291 437.099728) scale(0.1 -0.1)">
     <defs>
      <path id="DejaVuSans-4e" d="M 628 4666 
L 1478 4666 
L 3547 763 
L 3547 4666 
L 4159 4666 
L 4159 0 
L 3309 0 
L 1241 3903 
L 1241 0 
L 628 0 
L 628 4666 
z
" transform="scale(0.015625)"/>
     </defs>
     <use xlink:href="#DejaVuSans-4e"/>
     <use xlink:href="#DejaVuSans-6f" x="74.804688"/>
     <use xlink:href="#DejaVuSans-6c" x="135.986328"/>
     <use xlink:href="#DejaVuSans-61" x="163.769531"/>
     <use xlink:href="#DejaVuSans-6e" x="225.048828"/>
    </g>
   </g>
   <g id="text_49">
    <!-- $35k -->
    <g transform="translate(1333.695148 64.267022) scale(0.113958 -0.113958)">
     <use xlink:href="#DejaVuSans-Bold-24"/>
     <use xlink:href="#DejaVuSans-Bold-33" x="69.580078"/>
     <use xlink:href="#DejaVuSans-Bold-35" x="139.160156"/>
     <use xlink:href="#DejaVuSans-Bold-6b" x="208.740234"/>
    </g>
   </g>
   <g id="text_50">
    <!-- Toner -->
    <g transform="translate(1324.37773 23.176089) scale(0.1 -0.1)">
     <use xlink:href="#DejaVuSans-54"/>
     <use xlink:href="#DejaVuSans-6f" x="44.083984"/>
     <use xlink:href="#DejaVuSans-6e" x="105.265625"/>
     <use xlink:href="#DejaVuSans-65" x="168.644531"/>
     <use xlink:href="#DejaVuSans-72" x="230.167969"/>
    </g>
   </g>
   <g id="text_51">
    <!-- Hsu($91) -->
    <g transform="translate(143.302816 612.414391) scale(0.1 -0.1)">
     <use xlink:href="#DejaVuSans-48"/>
     <use xlink:href="#DejaVuSans-73" x="75.195312"/>
     <use xlink:href="#DejaVuSans-75" x="127.294922"/>
     <use xlink:href="#DejaVuSans-28" x="190.673828"/>
     <use xlink:href="#DejaVuSans-24" x="229.6875"/>
     <use xlink:href="#DejaVuSans-39" x="293.310547"/>
     <use xlink:href="#DejaVuSans-31" x="356.933594"/>
     <use xlink:href="#DejaVuSans-29" x="420.556641"/>
    </g>
   </g>
   <g id="text_52">
    <!-- $31k -->
    <g transform="translate(618.948678 501.889339) scale(0.109901 -0.109901)">
     <use xlink:href="#DejaVuSans-Bold-24"/>
     <use xlink:href="#DejaVuSans-Bold-33" x="69.580078"/>
     <use xlink:href="#DejaVuSans-Bold-31" x="139.160156"/>
     <use xlink:href="#DejaVuSans-Bold-6b" x="208.740234"/>
    </g>
   </g>
   <g id="text_53">
    <!-- Siddiqui -->
    <g transform="translate(609.072964 463.564024) scale(0.1 -0.1)">
     <use xlink:href="#DejaVuSans-53"/>
     <use xlink:href="#DejaVuSans-69" x="63.476562"/>
     <use xlink:href="#DejaVuSans-64" x="91.259766"/>
     <use xlink:href="#DejaVuSans-64" x="154.736328"/>
     <use xlink:href="#DejaVuSans-69" x="218.212891"/>
     <use xlink:href="#DejaVuSans-71" x="245.996094"/>
     <use xlink:href="#DejaVuSans-75" x="309.472656"/>
     <use xlink:href="#DejaVuSans-69" x="372.851562"/>
    </g>
   </g>
   <g id="text_54">
    <!-- Walker($2k) -->
    <g transform="translate(343.570363 542.184232) scale(0.1 -0.1)">
     <use xlink:href="#DejaVuSans-57"/>
     <use xlink:href="#DejaVuSans-61" x="92.501953"/>
     <use xlink:href="#DejaVuSans-6c" x="153.78125"/>
     <use xlink:href="#DejaVuSans-6b" x="181.564453"/>
     <use xlink:href="#DejaVuSans-65" x="235.849609"/>
     <use xlink:href="#DejaVuSans-72" x="297.373047"/>
     <use xlink:href="#DejaVuSans-28" x="338.486328"/>
     <use xlink:href="#DejaVuSans-24" x="377.5"/>
     <use xlink:href="#DejaVuSans-32" x="441.123047"/>
     <use xlink:href="#DejaVuSans-6b" x="504.746094"/>
     <use xlink:href="#DejaVuSans-29" x="562.65625"/>
    </g>
   </g>
  </g>
 </g>
 <defs>
  <clipPath id="pd58369c3e8">
   <rect x="79.445" y="28.025076" width="1349.755" height="640.654924"/>
  </clipPath>
 </defs>
</svg>
